<svg width="113" height="22" viewBox="0 0 113 22" fill="none" xmlns="http://www.w3.org/2000/svg">
<path d="M7.28198 13.6754C8.76331 12.1941 8.76331 9.79631 7.28198 8.32241L3.23399 4.26736C2.03866 3.07944 0 3.92272 0 5.60927C0 6.1079 0.197999 6.59186 0.557332 6.95117L7.28198 13.6754Z" fill="#32AE96"/>
<path d="M9.96596 3.57108L6.95197 0.557294C6.59264 0.197986 6.10864 0 5.60997 0C3.92331 0 3.07998 2.03852 4.26798 3.23377L4.60531 3.57108C6.08664 5.04498 8.48463 5.04498 9.96596 3.57108Z" fill="#32AE96" fill-opacity="0.7"/>
<path d="M18.4285 9.96496L21.4425 6.95117C21.7945 6.5992 21.9998 6.11523 21.9998 5.60927C21.9998 3.92272 19.9612 3.07944 18.7659 4.26736L18.4285 4.60467C16.9545 6.0859 16.9545 8.48373 18.4285 9.96496Z" fill="#32AE96" fill-opacity="0.7"/>
<path d="M13.6694 1.93586L8.32343 7.28149C9.80475 8.76272 12.2027 8.76272 13.6767 7.28149L17.7247 3.23377C18.9201 2.03852 18.0767 0 16.3901 0C15.8914 0 15.4074 0.197986 15.0481 0.557294L13.6694 1.93586Z" fill="#32AE96"/>
<path d="M12.0338 18.4289L15.0478 21.4427C15.3998 21.7947 15.8838 22 16.3898 22C18.0764 22 18.9198 19.9615 17.7318 18.7662L17.3944 18.4289C15.9131 16.955 13.5151 16.955 12.0338 18.4289Z" fill="#32AE96" fill-opacity="0.7"/>
<path d="M17.3946 11.0008L14.7179 8.32434C13.2366 9.80557 13.2366 12.2034 14.7179 13.6773L18.7659 17.725C19.9612 18.9203 21.9999 18.0697 21.9999 16.3831C21.9999 15.8845 21.8019 15.4005 21.4426 15.0412L17.3946 11.0008Z" fill="#32AE96"/>
<path d="M3.57132 12.0344L0.557332 15.0481C0.197999 15.4075 0 15.8914 0 16.3901C0 18.0766 2.03866 18.9199 3.23399 17.732L3.57132 17.3947C5.04532 15.9134 5.04532 13.5156 3.57132 12.0344Z" fill="#32AE96" fill-opacity="0.7"/>
<path d="M13.6765 14.7176C12.1952 13.2364 9.79722 13.2364 8.32323 14.7176L4.27524 18.7653C3.07991 19.9606 3.92324 21.9991 5.6099 21.9991C6.10857 21.9991 6.59256 21.8011 6.9519 21.4418L13.6765 14.7176Z" fill="#32AE96"/>
<path d="M109.516 8.38565C109.111 7.00754 107.996 6.15636 106.395 6.15636C104.125 6.15636 102.585 7.89926 102.585 10.9797C102.585 14.0805 104.085 15.8436 106.415 15.8436C108.513 15.8436 109.759 14.6581 109.8 12.8037H106.618V10.5136H112.738V12.3376C112.738 16.1882 110.104 18.5391 106.395 18.5391C102.281 18.5391 99.4841 15.6612 99.4841 11.0203C99.4841 6.25769 102.463 3.46094 106.334 3.46094C109.638 3.46094 112.191 5.48757 112.596 8.38565H109.516Z" fill="#11947A"/>
<path d="M98.1255 3.6636V18.3364H95.4908L89.0462 9.01391H88.9246V18.3364H85.8846V3.6636H88.5598L94.9639 12.9861H95.1058V3.6636H98.1255Z" fill="#11947A"/>
<path d="M84.2422 3.6636V18.3364H81.2023V3.6636H84.2422Z" fill="#11947A"/>
<path d="M70.7035 18.3364V3.6636H73.7435V15.8234H80.0666V18.3364H70.7035Z" fill="#11947A"/>
<path d="M60.2048 18.3364V3.6636H63.2447V15.8234H69.5678V18.3364H60.2048Z" fill="#11947A"/>
<path d="M48.8143 18.3364V3.6636H58.6637V6.17663H51.8542V9.74349H58.1571V12.2565H51.8542V15.8234H58.684V18.3364H48.8143Z" fill="#11947A"/>
<path d="M32.1951 18.3364L28 3.6636H31.3237L33.7962 13.9184H33.9178L36.6132 3.6636H39.4707L42.1661 13.9386H42.2877L44.7602 3.6636H48.0839L43.8888 18.3364H40.9096L38.1129 8.64911H37.9913L35.1743 18.3364H32.1951Z" fill="#11947A"/>
</svg>
