<svg width="22" height="22" viewBox="0 0 22 22" fill="none" xmlns="http://www.w3.org/2000/svg">
<path d="M7.28198 13.6754C8.76331 12.1941 8.76331 9.79629 7.28198 8.32239L3.23399 4.26735C2.03866 3.07943 0 3.9227 0 5.60925C0 6.10788 0.197999 6.59185 0.557332 6.95116L7.28198 13.6754Z" fill="#32AE96"/>
<path d="M9.96581 3.57108L6.95182 0.557294C6.59249 0.197986 6.10849 0 5.60982 0C3.92316 0 3.07983 2.03852 4.26783 3.23377L4.60516 3.57108C6.08649 5.04498 8.48448 5.04498 9.96581 3.57108Z" fill="#70C6B5"/>
<path d="M18.4285 9.96494L21.4425 6.95116C21.7945 6.59918 21.9998 6.11522 21.9998 5.60925C21.9998 3.9227 19.9612 3.07943 18.7658 4.26735L18.4285 4.60465C16.9545 6.08588 16.9545 8.48371 18.4285 9.96494Z" fill="#70C6B5"/>
<path d="M13.6692 1.93586L8.32324 7.28149C9.80457 8.76272 12.2026 8.76272 13.6766 7.28149L17.7245 3.23377C18.9199 2.03852 18.0765 0 16.3899 0C15.8912 0 15.4072 0.197986 15.0479 0.557294L13.6692 1.93586Z" fill="#32AE96"/>
<path d="M12.0337 18.4289L15.0477 21.4427C15.3997 21.7947 15.8837 22 16.3897 22C18.0763 22 18.9197 19.9615 17.7317 18.7662L17.3943 18.4289C15.913 16.955 13.515 16.955 12.0337 18.4289Z" fill="#70C6B5"/>
<path d="M17.3946 11.0008L14.7179 8.32436C13.2366 9.80559 13.2366 12.2034 14.7179 13.6773L18.7659 17.725C19.9612 18.9203 21.9999 18.0697 21.9999 16.3831C21.9999 15.8845 21.8019 15.4005 21.4426 15.0412L17.3946 11.0008Z" fill="#32AE96"/>
<path d="M3.57132 12.0344L0.557332 15.0482C0.197999 15.4075 0 15.8914 0 16.3901C0 18.0766 2.03866 18.9199 3.23399 17.732L3.57132 17.3947C5.04532 15.9134 5.04532 13.5156 3.57132 12.0344Z" fill="#70C6B5"/>
<path d="M13.6764 14.7176C12.1951 13.2364 9.79707 13.2364 8.32307 14.7176L4.27508 18.7653C3.07975 19.9606 3.92309 21.9991 5.60975 21.9991C6.10841 21.9991 6.59241 21.8011 6.95174 21.4418L13.6764 14.7176Z" fill="#32AE96"/>
</svg>
