<svg width="85" height="16" viewBox="0 0 85 16" fill="none" xmlns="http://www.w3.org/2000/svg">
<path d="M81.5159 4.92471C81.1106 3.5466 79.996 2.69542 78.3949 2.69542C76.1251 2.69542 74.5849 4.43832 74.5849 7.5188C74.5849 10.6195 76.0846 12.3827 78.4152 12.3827C80.5128 12.3827 81.7591 11.1971 81.7997 9.34276H78.6179V7.05267H84.7383V8.87664C84.7383 12.7272 82.1037 15.0781 78.3949 15.0781C74.2809 15.0781 71.4841 12.2003 71.4841 7.55933C71.4841 2.79675 74.4633 0 78.3341 0C81.6375 0 84.1911 2.02663 84.5964 4.92471H81.5159Z" fill="#11947A"/>
<path d="M70.1254 0.202667V14.8755H67.4907L61.0461 5.55297H60.9245V14.8755H57.8845V0.202667H60.5597L66.9638 9.52516H67.1057V0.202667H70.1254Z" fill="#11947A"/>
<path d="M56.2421 0.202667V14.8755H53.2021V0.202667H56.2421Z" fill="#11947A"/>
<path d="M42.7036 14.8755V0.202667H45.7436V12.3624H52.0666V14.8755H42.7036Z" fill="#11947A"/>
<path d="M32.2048 14.8755V0.202667H35.2448V12.3624H41.5679V14.8755H32.2048Z" fill="#11947A"/>
<path d="M20.8142 14.8755V0.202667H30.6636V2.71569H23.8542V6.28256H30.157V8.79558H23.8542V12.3624H30.6839V14.8755H20.8142Z" fill="#11947A"/>
<path d="M4.19512 14.8755L0 0.202667H3.32367L5.79616 10.4574H5.91776L8.61318 0.202667H11.4707L14.1661 10.4777H14.2877L16.7602 0.202667H20.0839L15.8888 14.8755H12.9096L10.1129 5.18818H9.99128L7.17427 14.8755H4.19512Z" fill="#11947A"/>
</svg>
