<svg viewBox="0 0 856 910" fill="none" xmlns="http://www.w3.org/2000/svg">
<g id="features">
<path id="KR42" d="M652.15 343.85H650.85L646.35 342.75L641.95 344.75L632.55 341.25L634.05 337.25L633.65 333.45L632.45 329.25L632.05 324.55L633.95 320.05L635.35 315.75L634.25 314.55L633.15 313.45L633.65 309.55L623.75 308.85L620.85 307.15L617.75 305.85L616.45 302.75L615.45 299.15L610.95 296.95L608.15 292.75L607.55 287.25L608.55 283.05L610.85 281.35L613.45 280.35L617.35 281.95L620.55 279.55L619.25 275.65L615.05 273.05L610.35 271.95L606.75 273.95L603.15 274.85L598.15 272.55L592.85 271.65L591.05 272.35L589.55 272.15L588.45 270.65L586.75 269.95L582.95 272.95L578.85 274.55L578.55 271.55L578.85 268.65L576.55 267.45L573.95 266.85L572.05 263.45L568.35 263.15L564.65 264.95L562.15 267.95L563.05 272.15L562.65 276.05L561.85 279.65L558.35 279.35L554.35 278.45L550.95 277.05L547.45 275.15L544.75 273.45L542.05 272.25L538.55 271.85L535.05 271.15L531.45 268.85L528.25 266.35L525.05 266.45L521.75 267.45L518.85 267.95L516.35 268.15L515.35 265.95L512.65 263.15L512.95 260.65L511.55 259.25L505.15 259.95L501.05 261.35L499.75 261.95L498.55 261.85L496.65 260.85L495.15 259.15L497.45 255.55L501.35 252.75L502.95 249.15L500.55 248.45L492.75 247.25L485.25 244.55L482.05 246.95L479.45 248.35L476.15 247.65L473.45 249.75L468.95 252.25L464.45 253.35L462.75 250.95V247.35L457.65 241.85L450.75 244.25L448.15 247.35L448.95 255.65L446.15 257.55L445.25 258.65L444.15 259.55L443.05 258.95L441.85 258.25L437.75 257.95L433.65 258.95L434.75 250.75L420.35 252.75L406.05 256.65L413.35 243.05L419.45 228.25L427.75 210.35L428.85 206.55L428.05 202.65L429.85 199.55L432.35 196.55L435.05 195.45L436.45 192.35L434.85 189.75L432.85 188.05L429.65 187.65L426.35 186.35L421.75 185.75L414.15 181.55L410.75 180.15L407.35 177.95L403.55 177.35L399.95 178.45L396.95 175.95L397.15 173.15L398.55 170.25L399.15 166.85V163.45L395.65 164.55L393.95 162.45L397.95 157.85L397.25 154.75L396.15 151.65L396.95 149.35V146.55L396.65 143.85L403.55 138.75L406.35 137.85L407.85 135.45L408.55 128.55L405.35 123.55L402.75 123.05L400.25 121.85L398.35 116.85L395.35 116.65L392.15 116.85L388.65 114.35L386.95 109.75L386.25 101.65L384.95 97.55L384.05 96.85L383.05 96.95L382.25 97.65L381.35 97.85L379.05 96.15L373.45 98.15L368.25 96.95L366.15 95.65L363.95 93.65V90.45L364.95 87.35L365.75 86.25L366.25 85.05L365.35 84.35L364.25 84.05L363.15 84.25L362.15 85.05L360.35 87.35L358.35 89.45L355.35 89.95L352.55 88.05L352.05 86.35L351.85 84.65L350.85 84.05L349.85 85.15L349.55 86.95L349.45 92.65L347.75 95.35L342.75 93.05L338.15 88.85L336.55 87.25L334.95 87.45L333.45 85.25L332.45 82.45L331.25 80.95L329.75 79.75L328.65 77.05L326.65 75.75L321.85 72.65L319.15 71.35L319.95 70.35L327.35 64.25L336.05 58.85L338.55 57.75L344.05 55.55L345.05 55.15L351.15 54.45L353.85 54.15L358.15 54.65L366.55 53.85L368.05 53.75L374.85 53.15L387.75 57.05L391.35 56.75L391.85 56.65L392.25 56.55L399.75 54.25L415.45 52.95L417.05 52.75L425.95 51.95L427.05 52.75L428.75 55.25L430.45 56.95L432.35 57.45L441.25 55.55L455.45 56.35L464.75 55.65L465.25 55.45L472.75 52.75L474.05 52.35L475.75 51.25L482.65 46.65L489.95 39.15L493.05 34.65L495.65 29.85L497.45 24.45L498.05 18.35L496.85 12.35L496.55 9.35L497.45 7.15L501.15 4.15L508.65 0.25H508.75L512.85 8.25L519.15 20.75L520.45 26.25L523.65 34.55L535.65 58.25L544.95 83.15L546.45 85.85L551.35 91.85L553.25 96.95L575.75 129.25L584.55 142.05L595.05 153.75L596.55 154.95L603.65 163.25L603.95 166.75V170.95L604.85 174.45L609.65 177.15L611.05 180.05L614.95 192.95L616.75 195.95L618.85 197.25L620.65 199.05L626.85 211.15L630.55 215.85L631.85 218.45L632.25 221.15L633.25 223.75L639.75 230.95L641.85 236.85L643.75 249.75L646.25 256.85L653.25 266.55L653.75 268.55L652.95 270.55L651.65 272.45L650.95 274.25L650.85 275.95L651.85 281.25L653.05 296.35L654.25 303.35L658.75 317.65L659.15 324.65L657.75 331.05L654.65 336.95L652.15 343.85Z" fill="#6F9C76" stroke="white" stroke-width="0.5" stroke-linecap="round" stroke-linejoin="round"/>
<path id="KR41" d="M321.85 72.65L326.65 75.75L328.65 77.05L329.75 79.75L331.25 80.95L332.45 82.45L333.45 85.25L334.95 87.45L336.55 87.25L338.15 88.85L342.75 93.05L347.75 95.35L349.45 92.65L349.55 86.95L349.85 85.15L350.85 84.05L351.85 84.65L352.05 86.35L352.55 88.05L355.35 89.95L358.35 89.45L360.35 87.35L362.15 85.05L363.15 84.25L364.25 84.05L365.35 84.35L366.25 85.05L365.75 86.25L364.95 87.35L363.95 90.45V93.65L366.15 95.65L368.25 96.95L373.45 98.15L379.05 96.15L381.35 97.85L382.25 97.65L383.05 96.95L384.05 96.85L384.95 97.55L386.25 101.65L386.95 109.75L388.65 114.35L392.15 116.85L395.35 116.65L398.35 116.85L400.25 121.85L402.75 123.05L405.35 123.55L408.55 128.55L407.85 135.45L406.35 137.85L403.55 138.75L396.65 143.85L396.95 146.55V149.35L396.15 151.65L397.25 154.75L397.95 157.85L393.95 162.45L395.65 164.55L399.15 163.45V166.85L398.55 170.25L397.15 173.15L396.95 175.95L399.95 178.45L403.55 177.35L407.35 177.95L410.75 180.15L414.15 181.55L421.75 185.75L426.35 186.35L429.65 187.65L432.85 188.05L434.85 189.75L436.45 192.35L435.05 195.45L432.35 196.55L429.85 199.55L428.05 202.65L428.85 206.55L427.75 210.35L419.45 228.25L413.35 243.05L406.05 256.65L405.05 258.45L403.95 260.15L402.95 260.85L401.85 261.75L401.05 263.05L400.45 264.45L393.95 276.55L390.55 278.95L389.75 277.95L387.15 277.35L385.05 279.55L383.85 282.45L382.25 284.55L378.75 286.05L376.55 288.45L375.35 293.45L370.85 294.95L365.05 297.75L358.95 299.55L352.55 298.65L347.35 294.25L341.45 291.55L330.25 296.35H324.95L318.55 295.05L320.25 293.75L322.35 292.75L323.75 291.15L324.75 287.05L324.45 286.25L323.15 284.95L322.95 284.55L323.65 283.95L324.45 283.85H325.15L326.95 282.85L328.15 282.65L329.05 282.05L329.45 280.05L321.35 282.35L320.15 284.05L320.55 289.35L319.55 290.55L316.35 291.55L311.95 290.95L306.55 287.85L301.75 283.05L299.95 278.55L308.05 277.65V276.55L307.45 276.35L306.25 275.35L307.75 275.15L309.15 275.25L310.55 275.65L311.65 276.55L311.15 273.35L309.25 270.45L307.95 267.15L308.85 262.65L307.35 261.95L306.15 263.55L305.45 266.25L305.25 268.95L304.55 271.95L303.25 272.65L302.05 271.35L299.45 271.85L296.85 272.55L290.55 270.65V268.75L290.05 267.05L290.55 264.75L290.25 261.85L291.85 258.95L293.65 256.45L295.85 255.35L298.15 254.45H301.55L305.25 253.45L306.05 252.35L306.25 249.15L305.35 248.55L303.45 249.55L300.65 252.05L298.95 251.65L297.65 250.85L296.95 249.55V247.45L293.75 249.15L291.15 250.95L286.25 256.25L285.05 257.25L283.45 257.75H282.05L281.15 256.85V255.35L282.05 253.75L284.05 250.95L280.05 251.85L278.75 251.45L278.35 249.15L279.05 247.45L280.75 246.45L282.65 245.85L284.05 245.05L285.65 242.75L285.25 242.25L281.55 242.75L280.35 241.95L279.45 240.15L278.55 237.85L277.45 235.75L278.05 235.55L278.45 235.25L279.25 234.45L280.25 235.25L281.75 235.15L284.45 234.45L286.55 235.05L288.35 236.15L290.15 236.75L292.25 235.75L292.05 237.65L292.25 239.45L292.85 240.95L294.15 241.55L295.65 240.95L296.25 239.35L296.95 235.75L299.25 232.35L301.15 232.55L303.25 233.85L306.25 233.45L305.55 232.05L304.75 230.95L303.65 230.25L302.45 229.95H300.55L299.65 228.65L297.65 228.35L296.05 228.85L294.45 228.75L291.85 228.25L287.55 226.85L281.65 222.45L281.35 220.45L284.05 216.65L285.75 214.85L290.05 213.55L291.05 212.85L292.85 211.45L294.75 207.75L296.05 203.55L294.75 201.45L292.55 199.95L291.15 196.65V192.65L283.15 184.95L276.25 185.15L270.05 185.35L269.35 183.85L268.35 181.35L267.15 179.35L265.75 176.95L264.15 175.45V173.15L263.55 169.65L262.15 164.35L260.15 150.25L260.65 147.85L262.45 147.55L269.95 150.25L272.35 149.75L274.35 148.75L276.05 148.45L277.95 149.65L278.55 151.65L278.85 154.85L278.65 158.05L277.95 160.25L277.85 164.35L282.05 167.85L287.25 170.05L290.55 170.25L288.05 167.55L280.15 161.95L282.45 155.85L283.15 152.25L282.55 149.65L281.25 146.95L281.15 145.55L281.05 143.55L281.65 140.05L283.05 137.35L282.05 136.05L280.75 136.25L280.15 136.65V136.25L281.65 132.35V132.05L281.75 130.75L281.85 129.65V129.05L281.75 128.05V126.55V125.55L282.05 124.75L282.35 123.95L282.45 123.35L282.15 122.25L281.75 120.35L280.75 117.55L282.55 117.35L286.05 116.05L287.15 115.15L287.75 114.95L288.35 114.65L288.65 114.55L290.45 114.35L292.45 114.55L293.65 114.35L294.45 113.55L295.75 111.55L297.55 109.35L299.35 107.55L299.85 107.05L302.15 104.95L303.45 103.35L304.25 102.15L304.35 101.95L305.25 100.15L305.75 98.05L305.85 96.85L305.95 96.45L306.45 94.85L306.75 94.15L307.45 92.85L307.75 92.35L309.15 91.05L310.15 90.45L312.65 88.55L314.85 86.65L315.35 86.25L315.55 86.15L316.85 85.45L318.85 84.35L319.25 84.15L319.85 83.45V83.05V82.85L319.65 82.45L318.55 80.85V80.15L318.95 76.95L319.25 76.05L319.55 74.95L320.05 74.35L320.45 73.65L320.65 73.55L321.45 73.25L321.75 72.75L321.85 72.65ZM339.45 185.15L340.75 180.35L340.65 176.15L339.25 172.35L338.35 166.85L335.95 162.85L331.15 162.45L326.85 163.45L324.15 166.35L322.25 170.45L319.15 174.45L313.05 175.05L312.25 177.75L312.05 180.65L309.15 182.45L305.95 183.55L301.65 180.85L297.85 180.65L295.75 184.95L298.95 188.95L301.65 192.75L302.35 197.65L305.05 199.45L309.05 200.65L313.05 205.85L318.85 206.05L321.25 205.65L323.65 204.25L327.05 203.25L330.45 202.45L331.95 206.05L335.95 204.05L339.85 203.15L343.35 201.05L344.65 198.75L346.95 195.65L345.85 194.35V191.35L347.85 189.95L349.75 188.95L350.15 186.45L349.15 183.95H346.35L343.15 185.15H339.45ZM278.95 137.45L278.65 137.65V137.05L278.95 137.45ZM228.15 142.05L230.85 141.95L233.35 142.35L234.65 143.75L233.75 146.85L231.35 148.95L228.35 149.15L222.65 147.85L221.45 148.35L219.95 149.15L218.55 149.25L218.05 147.35L218.35 146.75L219.95 142.05L221.55 140.45L223.45 139.95L225.65 140.45L228.15 142.05ZM236.55 160.45L238.25 161.75L239.55 163.25L239.75 164.85L238.35 166.75L235.65 166.85L226.45 159.75L227.55 158.65L228.15 157.25L228.95 154.05L229.35 153.25L230.05 152.35L230.75 151.65L231.55 151.45L232.05 151.75L232.35 152.35L232.55 153.05L233.05 156.15L233.15 156.75L233.85 157.85L234.65 158.85L236.55 160.45ZM257.05 177.25L255.95 177.35L255.15 176.95L253.75 175.45L252.75 174.85L251.95 175.05L251.45 175.65L250.95 175.95L243.75 176.35L241.15 175.15L238.35 171.45L242.55 170.35L243.55 169.65L244.65 167.85L244.55 167.05L243.75 166.45L243.05 165.55L238.25 156.35L237.95 154.95L238.45 153.05L238.25 144.95L238.85 143.15L240.15 142.65L243.35 138.85L245.85 138.25L247.95 139.85L250.05 142.25L252.05 144.15L256.45 146.35L258.15 148.05L258.85 150.85L258.75 152.25L258.05 154.55L257.85 155.55L258.15 156.75L259.45 159.05L259.75 160.25L260.15 166.45L259.75 167.85L260.45 168.85L261.25 170.65L261.65 171.45L259.85 172.45L258.35 176.05L257.05 177.25ZM16.35 111.45L17.85 113.25L17.65 115.85L15.75 117.15L13.15 115.65L9.65 115.95L8.95 116.25V118.05L10.35 118.75L11.95 119.05L12.65 119.65L9.85 121.85L4.35 121.05L0.25 117.55L1.65 111.45L5.05 112.65L12.55 110.05L16.35 111.45ZM201.75 240.25L200.75 240.75L200.15 240.55V239.95L200.65 237.15L201.35 234.85L202.35 233.45L203.45 234.25L204.45 235.85L205.35 236.65L208.75 238.45L209.75 239.55L209.15 240.55L207.45 242.35L206.25 242.85L204.65 243.15L203.35 242.55L202.45 240.95L202.05 240.05L201.75 240.25ZM253.75 231.55L255.15 232.45L255.75 234.55L255.15 235.25L253.65 235.75L253.15 236.85L253.05 237.85L251.85 239.25L250.25 239.65L249.25 238.85L248.15 238.95L247.25 238.45L246.95 236.25L247.15 234.05L248.35 232.55L250.65 231.25L253.75 231.55ZM271.45 235.55L271.75 236.35L272.05 237.85L271.35 239.35L264.45 244.95L261.25 245.35L261.35 244.45L262.75 242.45L262.95 241.25L262.35 240.35L264.15 238.25V236.25L263.45 233.75L262.45 231.95L261.45 230.85L261.75 230.55L264.05 231.55L265.95 229.95L266.35 230.05L265.95 231.55L266.55 232.85L268.15 233.75L270.65 234.85L271.45 235.55ZM145.95 163.15L147.35 163.35L148.35 164.35L147.95 166.15L146.65 167.45L145.85 167.85L145.45 166.95L144.65 164.75L144.85 163.35L145.95 163.15ZM14.15 134.35L15.25 134.95L15.45 136.05L14.85 137.55L14.35 139.35L13.85 140.85L12.85 141.35L11.75 141.25L10.85 141.55L10.15 142.35L9.85 142.45V141.95V141.75L9.45 140.95L8.35 139.55L8.75 138.15L11.05 136.35L12.45 134.85L13.15 134.25L14.15 134.35Z" fill="#6F9C76" stroke="white" stroke-width="0.5" stroke-linecap="round" stroke-linejoin="round"/>
<path id="KR44" d="M243.15 370.55L244.15 373.65L245.95 376.45L246.75 379.05L245.45 378.45L239.45 378.85L237.45 378.55L237.15 375.95L237.75 375.15L238.85 374.15L239.35 372.65L236.15 374.65L234.65 373.95L235.05 371.45L237.45 368.05L236.55 367.05L234.75 369.25L234.05 367.65L232.65 368.45L233.35 364.45L232.85 358.25L232.25 354.45L230.85 349.75L232.05 348.25L234.45 346.05L237.05 345.15L238.85 348.05L239.05 349.05L238.45 350.25L237.45 351.15L237.55 352.25L239.85 357.45L240.25 359.15L239.65 360.45L240.35 361.65L241.85 362.65L243.05 364.75H240.25V365.75L241.15 365.95L243.05 367.05L242.85 368.05L242.75 368.95L243.15 370.55ZM318.55 295.05L324.95 296.35H330.25L341.45 291.55L347.35 294.25L352.55 298.65L358.95 299.55L360.05 302.05L361.65 303.75L363.45 304.75L365.75 309.45L367.55 310.75L367.45 314.15L368.55 315.25L369.45 316.95L369.75 318.85L369.45 320.75L368.75 322.55L368.35 324.35L368.15 325.85L367.45 327.15L366.25 327.45L364.95 327.25L363.75 328.55L360.95 333.45L357.15 338.95L337.85 331.25L334.75 339.95L335.15 365.55L333.05 367.55L331.85 371.05L344.15 373.45L353.45 370.95L360.65 382.35L363.15 387.15L363.85 399.35L366.65 408.45L373.35 406.75L379.25 402.35L381.15 401.65L384.75 398.85L386.65 391.55L388.45 388.65L389.15 384.75L390.95 382.35L393.15 380.65L395.05 381.55L396.85 382.05L396.25 385.05L394.05 386.65L392.65 389.15L391.45 392.05L388.35 397.55L386.75 404.05L386.55 408.65L386.85 413.45L391.25 412.55L395.25 413.85L399.45 416.45L400.85 421.45L400.65 427.25L401.85 432.95L404.55 437.85L407.65 442.65L404.45 445.95L401.15 448.85L397.15 449.95L393.15 450.15L390.25 450.85L382.35 449.85L381.85 448.45L382.75 446.55L381.95 444.85L380.25 444.45L375.75 442.15L369.65 431.15L365.25 427.35L363.05 429.65L361.25 432.45L358.35 433.05L356.45 433.95L354.45 434.65L347.05 436.05L343.25 437.55L339.25 438.25L336.35 433.75L337.55 426.35L332.55 425.35L318.45 429.85L310.85 431.45L304.35 432.15L298.25 439.75L295.45 440.55L292.75 442.45L290.45 444.65L287.95 445.85L284.85 446.35L282.05 447.65L279.95 446.65L279.25 445.45L279.05 443.95L278.35 441.85L277.25 440.05L274.95 437.05L273.75 434.95L275.65 433.45L274.75 432.35L272.85 431.65L271.15 431.05L268.05 425.65L265.75 424.65L263.85 425.75L263.05 425.65L262.95 423.85L259.95 421.85L257.25 422.35L256.45 425.45L255.95 426.55L255.05 425.65L255.65 420.75L260.25 418.45L264.25 417.15L269.95 418.85L267.95 415.45L266.85 414.15L265.35 413.05L264.35 412.85L263.35 413.55L262.55 413.05L261.55 411.95L260.65 410.75L263.55 402.95L265.15 399.45L267.15 398.15L265.65 396.35L259.85 394.55L257.85 393.45L259.85 391.55L265.85 390.05L267.15 388.35L266.25 386.15L264.15 385.55H259.65L258.75 384.85L257.15 382.95L256.05 381.95V380.85H257.85L255.75 377.05L258.25 375.65L261.05 374.85L263.65 371.05L269.25 369.45L271.85 368.05H263.95L262.05 369.15L259.15 373.55L256.95 373.95L255.65 372.25L254.45 369.15L253.65 365.95L253.75 364.05L256.55 360.75L257.85 358.75L257.45 357.85L254.85 358.75L253.65 357.65L252.55 356.95L251.95 356.75L251.35 355.25L251.85 353.85L251.75 352.25L251.15 349.35L250.25 348.15V347.45L252.05 347.35L254.75 346.05L257.65 346.15L257.85 344.15L258.65 342.25L257.55 340.85L255.95 340.45L253.75 338.35L255.15 336.35L257.05 334.85L255.75 332.45L252.55 331.85L251.85 329.05L252.85 326.95L256.05 326.45L254.25 324.35L253.65 323.35L253.15 321.85L252.05 322.85L250.15 324.95L247.95 325.85L247.55 327.05L247.65 328.25L248.55 329.65L248.75 332.55L247.75 335.85L248.35 340.25L246.95 344.05L245.65 345.55L243.15 343.65L240.55 343.55L237.95 341.75L238.55 332.65L239.45 329.35L237.85 328.65L238.35 324.35L236.85 322.55L234.65 322.95L233.45 325.15L233.15 327.85L232.15 329.85L229.05 329.95L230.35 332.55L232.75 336.45L233.65 339.25L232.15 340.55L232.35 341.95L234.65 345.05L232.65 345.45L230.85 346.45L229.35 347.85L228.15 349.65L228.25 348.35L228.05 347.15L227.75 345.95L227.25 345.05L229.15 340.85L225.15 334.35L226.35 331.05L225.35 326.45L222.85 327.85L219.25 332.35L216.65 333.35L215.05 333.65L213.65 334.25L212.25 334.35L210.65 333.35L210.25 332.55L209.65 331.05L209.45 329.45L210.15 328.75L215.75 328.85L217.15 327.85L217.05 325.25L215.65 322.65L213.55 321.65L211.35 320.95L209.65 319.55L208.95 321.55L208.55 325.75L207.75 327.75L206.15 329.15L205.65 327.75L205.85 323.55L205.55 319.45L205.95 318.25L209.35 313.85L210.05 312.35L210.65 310.15L211.05 311.85L211.65 313.25L212.35 314.65L213.35 316.05L214.05 315.35L214.95 315.45L215.95 315.75L217.05 316.05L215.65 314.05L214.25 311.45L218.05 312.55L219.65 312.15L220.75 310.15L217.25 309.95L215.15 308.95L214.85 306.85L217.05 303.25L214.05 300.65L214.25 298.35L216.55 296.45L219.85 295.25L219.05 299.35L219.35 300.55L221.25 300.95L224.55 300.85L225.45 300.25L226.35 298.65L226.65 294.85L226.25 289.75L226.85 285.55L230.05 284.55L229.65 286.95L229.75 290.65L230.35 294.35L232.05 298.75L231.15 300.35L229.85 301.75L229.05 303.25V304.75L229.95 307.25L230.05 307.95L229.35 308.75L226.85 310.35L226.35 310.75L226.45 312.25L226.95 313.85L227.65 314.75L228.65 314.25L230.95 312.15L232.65 312.05L236.55 314.75L233.75 308.75L232.75 304.95L234.15 303.25L236.35 306.05L237.65 306.85L238.35 305.05L238.85 304.45L240.35 303.95L243.05 303.25V302.15L241.95 302.05L239.35 300.95V299.85L242.55 299.05L244.55 295.95L245.05 292.15L243.95 289.35L242.75 288.95L239.25 288.85L237.45 288.15L236.15 286.55L235.75 285.05L236.35 284.45L238.35 285.85L239.25 283.25L238.25 281.65L236.15 281.05L233.65 281.25L234.65 279.95L236.05 278.95L237.45 278.75L238.85 279.45L240.15 280.45L241.25 280.75L241.75 280.15L241.15 278.95V277.65L246.15 277.55L248.55 278.35L249.55 280.65L248.85 282.05L247.55 283.55L246.75 285.45L247.65 288.15L248.85 286.95L250.35 286.15H251.65L252.25 287.55L252.45 288.75L253.05 289.85L253.15 291.05L252.95 291.45L251.75 292.95L251.35 293.95V301.55L251.75 303.75L252.75 305.25L253.75 305.85L254.25 305.05L254.75 300.85L257.25 292.75L257.85 288.75L258.55 287.85L260.15 288.95L262.55 291.55L263.55 293.35L264.15 295.05L265.25 296.15L267.15 296.25V295.25L266.15 293.95L265.05 290.45L263.95 288.75L255.65 279.95L255.05 279.45L255.55 277.65L256.65 277.85L258.05 279.15L260.25 281.85L261.35 282.95L262.75 283.55H264.45L265.75 282.75L265.85 281.65L264.95 280.55L263.05 280.05L260.45 278.85L257.65 276.15L256.35 272.25L256.05 269.65L258.55 269.55L260.75 270.65L262.65 272.35L265.35 274.25L267.95 276.05L269.05 277.15L271.05 278.55L273.05 279.65L274.45 281.95L273.75 284.25L272.45 285.85L272.75 287.05L274.05 289.55L274.25 291.15L273.75 293.95L275.25 292.95L275.85 291.65L276.15 290.25L275.65 286.15L276.25 284.75L277.05 283.25L278.35 280.95L280.55 279.85H282.65L285.05 280.15L287.65 281.15L290.95 281.95L293.25 283.55L296.15 286.45L296.35 290.15L294.15 297.45L295.85 296.35L298.35 293.05L299.75 292.85L300.75 294.25L301.25 296.75L301.55 301.55L301.45 302.55L300.85 304.85L300.65 306.25L300.95 307.65L302.15 309.65L303.25 314.95L302.95 316.45L300.65 317.05L301.05 318.55L301.65 319.45L302.35 320.15L303.55 320.65L304.35 316.85L305.65 314.65L306.35 312.25L305.25 307.95L307.95 308.75L310.85 309.15L306.15 303.95L304.75 301.05L307.55 299.85L310.05 299.45L315.95 297.05L318.55 295.05Z" fill="#6F9C76" stroke="white" stroke-width="0.5" stroke-linecap="round" stroke-linejoin="round"/>
<path id="KR28" d="M270.05 185.35L276.25 185.15L283.15 184.95L291.15 192.65V196.65L292.55 199.95L294.75 201.45L296.05 203.55L294.75 207.75L292.85 211.45L291.05 212.85L290.05 213.55L285.75 214.85L285.35 213.65L278.25 212.75L274.95 216.95L271.55 214.35L272.95 211.25L274.75 208.55L273.65 206.65L271.15 205.35L268.95 204.15L269.25 201.05L268.85 198.55L270.15 196.25L274.05 195.05L275.25 194.45L275.55 193.05L273.65 192.55L273.15 194.05L270.35 194.35L269.65 192.65L269.35 189.55L270.05 185.35ZM264.55 191.35L265.05 191.85L265.65 192.75L266.35 193.45L266.85 194.55L267.25 195.45L266.45 195.75L265.35 196.65L264.85 197.25L262.55 197.85L261.45 197.65L260.05 198.35L256.85 199.65L255.15 201.25L254.15 202.95L248.25 207.35L246.95 207.05L245.75 207.25L245.15 207.05L244.65 204.95L243.55 204.35L243.05 204.85L242.55 205.05L242.45 204.65L242.65 204.05L242.35 203.25L241.55 203.15L240.95 203.85L240.15 204.45L239.15 204.05L237.65 203.65L238.55 202.85L238.25 201.85L236.75 200.45L236.35 199.55L236.85 198.35L237.65 198.05L238.85 198.65L244.95 194.35L249.35 193.85L252.35 193.95L255.15 192.45L256.05 188.65L257.95 187.95L259.55 189.55L260.25 189.85L261.05 190.25L261.85 190.55L262.65 190.65L263.45 190.75L264.55 191.35Z" fill="#6F9C76" stroke="white" stroke-width="0.5" stroke-linecap="round" stroke-linejoin="round"/>
<path id="KR45" d="M298.25 439.75L304.35 432.15L310.85 431.45L318.45 429.85L332.55 425.35L337.55 426.35L336.35 433.75L339.25 438.25L343.25 437.55L347.05 436.05L354.45 434.65L356.45 433.95L358.35 433.05L361.25 432.45L363.05 429.65L365.25 427.35L369.65 431.15L375.75 442.15L380.25 444.45L381.95 444.85L382.75 446.55L381.85 448.45L382.35 449.85L390.25 450.85L393.15 450.15L397.15 449.95L401.15 448.85L404.45 445.95L407.65 442.65L408.85 444.05L410.15 445.25L411.25 445.05L412.05 443.85L414.35 445.15L416.45 447.55L422.45 449.55L423.75 451.15L425.95 451.75L430.25 449.15L435.25 446.85L437.25 448.75L439.25 449.85L440.95 448.25L442.75 446.45L448.25 455.85L447.65 466.55L442.65 471.85L441.35 475.35L434.65 478.95L431.25 480.05L429.45 479.85L428.15 480.65L425.55 486.15L422.65 489.25L419.55 492.05L418.05 496.35L417.65 501.55L415.95 505.25L413.85 509.15L412.25 514.25L411.05 519.45L409.15 523.25L409.05 527.45L412.55 528.95L413.05 530.75L413.25 532.85L414.75 536.85L414.55 541.05L415.95 544.25L417.85 545.55L417.05 550.05L411.35 556.85L410.45 561.35L410.35 565.35L407.45 568.35L399.75 562.05L391.05 558.95L386.15 561.65L382.15 565.95L377.95 566.55H373.45L368.55 567.25L363.55 567.15L361.25 565.75L359.15 564.15L356.75 564.75H353.95L349.85 565.45L345.95 567.75L340.95 567.05L337.65 563.55L337.85 558.05L335.05 554.95L334.25 551.85L335.45 547.05L332.75 542.85L328.75 543.05L327.75 544.75L326.45 546.05L325.55 548.25L325.25 550.65L321.05 550.75L314.65 542.05L310.55 538.65L308.15 537.65L305.75 537.45L303.45 540.15L298.85 539.75L295.45 542.75V545.05L295.55 547.25L294.35 549.15L292.55 550.45L292.65 552.25L292.95 553.95L291.85 556.25L290.05 557.85L287.85 558.85L285.45 559.55L283.55 560.75L281.75 562.15L277.15 562.75L272.85 564.35L268.85 565.35L265.45 564.25L265.65 559.75L266.55 555.25L267.35 549.15L263.35 548.15L250.25 551.75L247.45 552.65V552.75L245.55 550.55L244.85 548.75L245.85 544.85L248.15 539.95L251.85 531.45L254.95 526.95L259.35 525.35L264.45 524.35L268.75 524.05L270.75 522.45L272.65 519.75L275.35 519.05L277.75 521.75L280.25 524.85L282.05 525.45L280.25 519.25L279.05 516.35L276.95 515.25L257.75 518.35L251.05 514.15L251.45 509.65L251.55 507.85L254.75 506.35L257.55 503.55L260.05 500.65L264.15 498.25L269.15 495.45L272.95 490.15L273.45 485.25L275.55 483.95L277.15 482.95L277.95 482.25L282.85 481.75L287.55 482.35L290.55 484.75L292.75 485.25L294.15 487.75L294.75 486.35L295.25 484.55L295.45 482.55L293.65 481.05L292.35 480.15L289.75 478.85L286.85 476.85L284.45 475.05L283.15 474.45L283.55 473.05L284.65 471.45L285.75 470.55L287.05 470.25L294.55 470.75L296.25 470.55L297.45 469.95L298.25 468.45L298.65 467.25L299.25 466.35L301.15 466.05L301.75 465.55L301.05 464.25L299.55 463.05L297.95 462.45L297.55 462.75L287.55 466.75L284.25 466.95L277.65 466.55L271.15 466.05V463.15L270.75 459.15L269.45 458.05L265.45 456.65L259.45 457.65L258.85 452.55L271.15 451.25L277.85 450.45L284.55 450.05L286.75 448.75L289.15 449.35L291.95 447.95L296.95 444.15L303.25 441.55L305.95 439.65L306.25 437.25L298.25 439.75ZM223.15 519.35L222.55 518.75L222.15 517.65L222.35 516.65L223.85 515.85L223.65 515.55L222.95 515.15L223.25 514.75L224.05 514.35L224.55 513.65L225.35 513.45L225.85 513.25L225.65 512.35H226.15L227.75 512.65L228.75 511.85L229.25 511.25L229.85 511.75L230.15 512.75L229.65 513.95L227.15 516.15L225.45 517.95L224.35 518.85L223.95 519.25L223.15 519.35Z" fill="#6F9C76" stroke="white" stroke-width="0.5" stroke-linecap="round" stroke-linejoin="round"/>
<path id="KR46" d="M247.45 552.75V552.65L250.25 551.75L263.35 548.15L267.35 549.15L266.55 555.25L265.65 559.75L265.45 564.25L268.85 565.35L272.85 564.35L277.15 562.75L281.75 562.15L283.55 560.75L285.45 559.55L287.85 558.85L290.05 557.85L291.85 556.25L292.95 553.95L292.65 552.25L292.55 550.45L294.35 549.15L295.55 547.25L295.45 545.05V542.75L298.85 539.75L303.45 540.15L305.75 537.45L308.15 537.65L310.55 538.65L314.65 542.05L321.05 550.75L325.25 550.65L325.55 548.25L326.45 546.05L327.75 544.75L328.75 543.05L332.75 542.85L335.45 547.05L334.25 551.85L335.05 554.95L337.85 558.05L337.65 563.55L340.95 567.05L345.95 567.75L349.85 565.45L353.95 564.75H356.75L359.15 564.15L361.25 565.75L363.55 567.15L368.55 567.25L373.45 566.55H377.95L382.15 565.95L386.15 561.65L391.05 558.95L399.75 562.05L407.45 568.35L406.75 571.95L409.55 575.25L410.85 579.45L411.45 588.25L413.25 591.55L416.65 594.05L419.65 597.15L420.85 600.65L422.25 603.75L430.75 612.95L432.55 617.45V620.55L432.85 621.25L431.95 621.05H426.45L424.65 620.75L423.95 619.95L423.65 618.65L422.85 617.05L421.25 615.85L420.85 617.05L421.15 619.05L421.45 619.95L420.45 622.95L419.85 624.05L418.65 625.45L413.55 629.55L410.65 630.85L408.65 629.15L406.05 623.85L403.95 623.05L402.45 625.15L401.75 628.45L401.85 631.25L403.15 634.15L405.25 637.95L407.65 641.25L409.85 642.65L411.35 644.55L412.75 645.25L414.45 644.25L418.65 640.25L421.55 639.85L424.05 640.35L426.35 640.45L428.95 639.15L428.75 642.35L428.35 644.75L426.95 649.35L425.45 657.65L424.25 659.55L419.55 661.15L415.75 659.25L412.75 658.55L410.25 664.05L409.45 663.55H409.25L409.05 663.85L408.35 664.05L409.45 666.15L410.25 668.55L411.25 675.85L410.65 677.25L409.25 676.45L406.95 674.15L403.75 673.75L401.35 672.45L399.75 669.95L399.15 666.25L399.95 662.75L401.75 659.35L402.95 656.15L402.35 653.35L401.25 651.75L399.15 647.15L398.55 646.75H397.75L396.95 646.65L396.35 645.85L396.25 645.05L396.45 644.05L396.85 643.45L394.85 639.05L394.45 637.45L394.65 636.55L395.25 634.85L395.35 634.05L395.05 633.15L394.45 632.35L393.75 632.15L393.45 632.85L393.05 633.25L390.75 639.15L389.85 640.35L389.35 640.75H388.65L384.05 642.45L381.35 642.75L375.45 642.65L373.25 643.25L375.05 644.75L378.55 646.25L381.45 647.15V648.15L375.65 649.95L372.75 651.65L372.25 653.85L373.45 654.85L375.95 653.85L377.35 654.35L378.25 655.95L378.05 656.55L377.25 656.75L376.95 657.15L378.75 663.75L382.75 667.25L386.95 669.95L389.85 674.15L388.45 673.95H386.05L385.05 674.15L390.85 676.35L391.65 678.25L392.05 681.65L390.75 682.85L389.35 684.05L386.75 683.95L385.05 684.35L378.85 680.55L376.95 679.85L375.15 680.25L372.95 681.25L371.15 682.55L370.35 683.85L370.65 684.35L372.25 687.75L374.15 688.15L375.35 688.95L380.45 687.55L383.25 689.95L376.85 695.85L374.55 699.15L372.05 697.95L368.15 700.95L368.55 703.85L370.35 705.75H366.55L361.05 698.45L359.15 694.45L354.05 688.95L352.45 689.35L347.15 692.15L347.65 693.85L348.05 694.45L345.85 693.75L343.75 693.35L341.85 692.35L340.65 689.95L340.45 687.55L341.35 686.15L344.35 684.35L345.35 683.55L348.05 679.85L349.75 676.35L350.65 675.15L352.65 674.15L352.55 676.85L351.85 679.55L349.85 684.35L353.85 684.15L357.15 682.85L359.15 680.15V675.25L358.35 673.35L357.25 672.25L356.45 671.05L356.35 668.55L357.05 667.25L360.95 662.85L362.45 663.65L363.35 664.65L363.55 665.95L362.85 667.45L363.65 669.65L364.85 671.15L366.35 671.65L368.45 670.85L369.35 669.75L371.25 665.75L372.25 664.05L370.35 661.25L369.65 658.25L368.65 656.95L366.15 658.95L363.15 660.25L360.75 658.15L357.35 652.75L355.45 655.75L352.75 662.85L350.85 665.15L348.85 665.95L347.25 665.85L343.85 665.15L342.25 665.75L340.75 667.05L338.25 670.35L337.15 671.25L332.25 674.15L329.55 676.15L327.85 677.15L326.15 677.65L325.15 678.15L324.95 679.55V681.35L324.75 683.25L323.85 684.65L322.55 686.05L321.95 687.85L322.95 689.95L315.45 697.35L315.75 704.15L314.45 705.25L310.85 703.45L309.65 704.95L309.05 706.55L309.15 708.25L309.95 710.25L308.15 709.65L304.35 706.95L299.15 705.45L297.95 704.65L296.95 701.55L297.45 693.25L296.95 689.95L297.65 687.95L297.55 685.35L296.65 683.15L295.05 682.05L293.65 682.45L292.15 683.85L291.05 685.65L290.55 687.15L291.15 689.45L291.95 691.45L292.05 692.85L287.85 694.25L288.35 696.25L291.45 700.05L286.25 703.15L284.25 704.95L286.25 705.75L286.75 706.05L286.85 706.85L286.75 707.65L286.25 708.05L285.45 707.85L284.15 707.15L283.55 706.95L281.75 707.25L281.35 707.95V709.15L280.65 710.85L279.65 711.55L275.55 712.55L274.05 713.85L273.55 714.85L270.25 725.95L269.95 727.55V729.45L266.65 728.75L260.45 730.85L258.85 730.45L258.65 728.55L259.95 724.65L259.65 722.75L258.45 721.65L256.75 721.35L253.15 721.55V720.45L253.95 719.55L254.15 718.85L254.45 716.35L254.85 716.25L255.45 716.45L256.05 716.05L257.95 712.55L258.35 710.85L257.85 709.15L257.15 708.65L256.15 708.25L254.15 708.05L252.65 707.65L252.45 706.75L252.85 705.95L253.15 705.75L253.25 703.65L253.75 701.55L253.55 700.45L251.35 701.25L251.95 697.25L254.65 695.25L258.25 694.55L261.65 694.45L261.05 693.25L260.15 692.25L259.15 691.55L257.85 691.15L259.95 689.65L261.25 687.85L261.35 686.35L259.65 685.35L259.05 685.65L257.85 687.15L256.95 687.75H255.85L254.15 686.65H253.15L252.35 687.35L251.75 688.45L251.35 689.95L250.15 690.25H248.95L247.65 689.95L244.75 690.05L243.15 690.35L241.15 691.15L240.95 688.45L239.75 686.95L236.55 685.35V684.85L235.85 683.55L235.05 682.75L234.65 683.85L234.25 684.45L233.35 684.95L232.25 685.25L231.35 684.85L228.55 682.15L228.15 682.05L227.75 680.35L227.95 679.85L228.55 679.65L229.05 678.75L229.55 679.55H230.95L231.95 678.75L231.35 677.05L227.75 675.25L224.95 673.25L224.65 668.45L225.85 663.15L227.25 659.55L227.45 658.25L227.35 656.75L227.55 655.45L228.65 654.95L229.65 655.05L230.75 655.35L231.45 655.85L232.35 657.85L236.55 664.05L235.25 665.75L234.85 667.35L235.05 669.05L235.55 670.85L238.35 678.75L240.05 679.75L246.75 680.85L249.65 682.85L251.15 682.75L252.25 679.85L250.75 680.15L249.95 679.75L247.15 679.05L245.85 677.05L244.15 675.35L244.55 671.55L242.75 671.85L241.95 674.15L240.55 674.35L239.65 671.25L239.25 667.15L240.25 664.75L239.45 661.85L243.25 661.55L248.85 662.75L249.65 664.05L249.25 666.25L249.35 666.85L249.25 667.55L249.55 668.55L250.95 669.45L251.85 670.55L253.55 671.75L256.05 672.65L257.45 674.05L259.35 675.45L260.75 676.35L261.35 675.65L258.55 671.95L260.25 671.55L262.75 672.95L265.95 674.75L269.85 676.05L272.75 675.25L269.85 674.75L267.55 673.35L263.45 669.75L264.45 668.55L261.55 666.35L257.05 660.65L254.65 659.55L251.25 658.85L247.25 659.05L244.45 657.35L241.05 658.25L237.95 657.15L237.55 655.65L239.45 653.15L241.35 652.45L245.35 653.05L250.55 650.75L256.75 655.35L258.85 654.95L259.35 655.25L259.65 655.65L260.05 655.85L260.65 656.15L260.05 652.95L260.35 650.05L261.95 647.95L265.35 647.15L271.55 648.95L274.65 649.25L273.75 647.15L275.85 646.05L276.95 645.85H278.35L276.35 643.55L273.25 643.05L266.25 643.65L266.75 642.05L266.55 640.95L266.25 639.85V638.15L266.75 637.05L267.45 636.25L268.05 635.15V633.45L266.95 631.05L265.15 630.45L263.15 631.45L261.65 633.45L261.45 634.85L262.35 637.65L262.55 639.15L262.35 639.35L260.65 642.65L259.15 648.25L257.75 650.15L255.05 650.35V650.05L254.25 649.35L254.75 648.45L255.45 646.75L256.05 645.85L254.25 644.95L252.95 645.55L251.75 646.55L250.05 647.15L246.35 646.35L245.25 646.85L245.05 648.55H243.15L240.25 649.45L238.85 648.75L238.35 647.05L239.35 645.35L242.05 642.65L243.05 641.05L243.65 639.85L243.85 638.75L243.95 637.45L243.55 635.05L244.05 633.75L245.75 632.25L244.15 630.95L242.65 628.15L241.85 624.95L242.05 622.15L243.95 620.45L246.55 618.75L247.35 617.25L243.95 616.45L242.35 616.75L241.45 617.55L240.75 618.35L239.75 618.75L238.45 619.35L238.65 621.05L239.25 622.85L239.35 624.45L237.45 626.15L234.95 626.35L232.65 625.55L230.95 624.45L232.15 623.55L232.75 623.35L231.55 622.45L230.55 621.45L229.75 620.25L229.05 618.75L230.65 617.95H232.15L235.55 618.75L235.15 615.15L238.85 611.35L237.85 607.95L234.05 602.55L231.65 600.35L229.05 599.45L230.15 603.25L229.15 605.35L227.25 605.45L225.35 602.85L226.65 601.15L223.15 596.45L222.65 593.75L224.55 591.45L227.35 591.05L229.85 592.35L230.95 594.95L232.65 593.85L233.55 591.95L234.65 588.15L235.65 590.05L235.85 591.65L235.45 594.75L234.85 596.25L234.65 597.25L234.95 598.25H235.45L236.15 597.95L236.55 598.25L237.05 600.45L237.25 601.35L237.65 601.95L239.35 602.85L240.65 603.35L242.95 603.45L243.95 604.05L243.15 605.95L243.35 607.75L244.35 609.45L245.75 610.95L249.25 603.15L249.55 600.55V597.55L248.85 596.55L246.25 595.85L245.25 595.25L244.35 594.35L242.95 590.65L238.45 585.45L237.45 583.05L237.75 582.25L238.35 581.55L239.05 580.65L239.35 579.15L237.85 578.05L237.15 576.75L237.45 574.45L235.75 575.15L233.95 575.45L230.05 575.55L231.55 573.65L234.05 573.05L236.85 572.95L239.35 572.35L238.55 571.95L238.05 571.65L237.55 571.25L236.55 571.05L237.15 569.55L237.95 568.65L238.85 568.05L239.75 567.05L240.25 565.85L239.95 564.75L239.55 563.65L239.35 562.55L239.75 559.95L240.95 557.35L243.95 552.85L244.75 553.65L246.75 556.25L249.15 556.95L250.35 556.85L250.05 555.65L247.45 552.75ZM321.75 574.55L314.75 571.95L311.05 573.05L307.55 573.85L302.65 572.65L299.75 575.35L303.45 583.55L310.85 587.95L319.15 589.35L324.55 582.15L321.75 574.55ZM347.25 699.35L351.45 698.85L353.65 699.05L355.45 699.95L356.95 702.55L356.55 705.65L354.75 708.15L352.25 709.15L346.65 710.25L344.45 709.85L342.85 709.15L339.65 706.95V705.75L340.35 704.85L340.55 704.05L339.95 703.35L338.75 702.45L340.65 701.05L342.75 700.15L347.25 699.35ZM239.65 696.95L239.95 699.15L239.55 701.75L238.85 704.15L236.15 709.85L235.05 711.65L233.75 712.55L233.45 712.05L231.15 709.85L230.05 709.15V710.25L229.55 712.85L216.65 719.85L215.05 720.45L209.35 720.95L207.75 720.45L207.55 719.05L208.25 717.85L209.25 716.85L209.65 716.05L208.95 715.05L205.05 712.55V716.05L202.15 712.65L203.85 707.15L207.75 702.75L211.55 702.45L212.75 698.85L213.55 697.65L214.75 696.25L216.25 695.45L217.55 695.15L218.55 694.45L218.85 692.15L220.45 694.05L222.65 694.35L224.55 693.05L225.35 690.55L224.35 688.45L220.85 685.75L221.75 684.35L223.95 684.25L226.15 685.45L228.15 686.95L229.55 687.75L229.95 688.25L230.35 689.25L230.95 690.35L231.85 691.15L232.45 690.95L235.55 688.95L235.65 690.35L239.65 696.95ZM429.75 666.25L431.15 666.65L432.45 668.65L433.35 671.05L434.55 675.15L434.65 677.55L434.25 679.85L433.25 682.15L431.95 683.55L430.35 683.65L428.85 682.85L424.05 677.95L423.55 676.05L424.35 673.05L424.95 672.25L427.45 670.35L427.95 669.35L428.95 665.15L426.85 662.95L427.15 661.65L428.65 660.95L430.25 660.75L431.75 661.35L432.15 662.95L431.45 664.75L429.75 666.25ZM186.65 661.55L188.35 663.05L188.75 663.65L188.85 664.95L188.65 666.25L188.05 667.45L185.95 670.25L185.05 670.95L184.05 671.05L182.75 670.85L182.65 670.35L180.75 669.25L178.65 668.25L178.05 668.55L176.75 665.75L177.75 664.45L181.75 662.85L184.15 659.55L185.05 659.05L185.55 659.45L186.65 661.55ZM189.15 650.35V653.85L188.55 653.55L187.05 653.15L186.35 652.75L185.15 654.35H183.35L181.65 653.95L180.85 654.35L180.55 656.65L179.85 658.55L178.65 660.05L177.05 660.75L175.45 660.55L174.35 659.45L173.65 657.65L173.35 655.55L173.75 653.45L174.85 652.05L176.35 651.05L178.05 650.35L179.85 651.15L182.25 650.55L186.75 648.85L187.65 648.75L188.25 648.85L188.75 649.35L189.15 650.35ZM195.75 628.45L196.35 626.25L197.65 625.95L199.15 626.95L200.25 628.85L200.55 631.25L200.15 633.55L199.15 635.55L197.55 636.85L195.55 637.45L194.45 637.05L193.55 636.25L192.45 635.85L188.05 636.85H186.35V635.85L187.65 634.65L190.15 630.75L191.95 629.05L192.85 629.15L194.15 629.45H195.25L195.75 628.45ZM203.15 605.65L202.45 605.85L198.85 604.95L197.55 605.15L197.05 604.75L196.75 604.35L196.35 604.15L195.75 604.05L196.85 598.75L197.55 597.25L198.45 596.65L200.05 596.15L201.55 595.45L202.25 594.35L203.25 592.05L205.75 590.55L208.45 589.85L210.55 590.45L206.45 592.85L205.45 594.25L205.35 595.85L205.95 597.55L207.75 600.55L206.35 601.15L204.85 602.65L203.65 604.35L203.15 605.65ZM365.65 775.35L366.45 776.15L367.45 776.35L367.75 776.95L367.65 777.75L365.65 776.85L363.85 776.35L363.45 775.85L363.05 774.75L362.75 773.35L362.25 773.05L361.85 772.55L361.45 771.35L361.65 770.75V769.95L361.75 769.25L362.15 769.15L362.65 769.35L363.25 769.15L363.65 768.65H363.85L364.15 769.35L363.65 770.85L363.95 772.55L365.65 775.35ZM395.85 704.85L396.45 706.45V707.45L395.45 708.55L392.95 710.15L390.85 710.75L390.05 710.35L389.95 708.95L389.05 707.95L387.65 707.55L387.05 706.65L387.45 706.05L385.95 705.05L385.05 704.35L385.55 703.15L385.45 702.25L385.25 701.55L385.85 701.15L386.85 701.55L387.85 702.15L389.75 702.65V703.05L390.45 702.85L391.65 701.65H392.85L395.85 704.85ZM429.85 695.55L430.75 696.05L431.35 696.95L431.05 697.95L429.35 698.55L428.25 698.65L428.05 698.35L427.55 697.65L426.35 696.95L424.35 696.35L423.05 695.25L422.45 693.85L421.75 692.85L420.65 692.25L419.65 691.05L420.35 689.65L422.65 688.65L425.15 688.25L426.95 689.55L428.95 693.55L428.75 694.75L428.85 695.35L429.85 695.55ZM201.75 680.75L202.05 681.05L202.35 681.85L202.15 683.65L201.75 685.45L201.65 687.05L200.85 687.85L199.75 688.65L198.65 689.75L195.95 691.35L194.55 691.55L192.95 691.05L192.45 690.25L193.25 689.95H194.05L194.75 689.25L195.55 688.65L195.45 688.05L192.45 687.35L193.15 686.55L195.05 686.25L196.95 686.15L198.55 684.95L199.15 683.35L198.55 681.75L197.15 679.55L196.35 676.75L197.35 676.05L198.95 677.35L199.95 678.35L201.65 679.35L201.75 680.75ZM193.35 685.25L192.05 685.85L190.95 684.95L190.45 679.25L190.95 676.05L192.05 674.55L193.75 678.35L195.25 680.45L196.35 682.85L195.95 684.75L194.75 685.15L193.35 685.25ZM113.05 665.65L114.55 665.25L114.85 665.95L113.65 667.05L113.05 667.85L112.65 668.75L110.55 671.25L110.15 672.45L109.25 673.95L108.55 674.85L107.95 675.55L106.65 674.95L105.75 672.55L105.95 670.35L106.65 668.35L107.55 666.65L108.55 665.05L109.75 664.25L110.85 663.95L111.45 664.45L111.85 665.65H113.05ZM211.75 658.35L212.25 659.75V661.55L211.55 663.15L209.75 663.25L208.15 661.65L206.95 659.85H205.45L204.75 660.45L204.25 660.75L203.25 660.85L202.35 660.15L202.05 658.65L200.85 656.45L198.15 653.65L197.65 652.25L198.95 652.55H199.95L200.95 652.05L202.45 651.95L204.15 652.15L205.45 652.75L206.25 653.65L207.45 654.25L209.05 654.35L210.35 654.65L211.25 655.45L211.75 656.45L211.65 657.25L211.75 658.35ZM211.05 648.55L210.65 648.95L210.15 649.95L210.45 652.25L209.65 653.05L207.95 653.55L206.45 652.65L204.65 651.15L202.35 650.25L200.75 649.25L202.05 648.15L205.45 647.65L207.45 646.75L208.45 645.85L209.75 646.45L210.75 647.85L211.05 648.55ZM198.95 643.45L197.85 641.95L196.85 640.15L197.25 638.85L199.25 637.85L200.85 637.75L202.15 638.45H203.45L203.75 637.45L203.55 635.45L204.85 634.25H206.55L207.45 634.15L208.15 634.55L208.75 635.45L208.95 636.55L207.15 637.65L207.75 640.25L207.45 641.75L206.45 642.35H205.15L204.25 643.35L204.35 645.15L203.85 646.75L202.45 647.55L201.25 647.45L200.95 646.45V645.85L198.95 643.45ZM221.55 628.05L220.35 628.55L218.75 628.45L218.05 627.05L218.35 625.45L219.35 624.85H221.75L222.45 625.15L222.55 625.85L222.05 627.55L221.55 628.05ZM212.35 606.15L212.65 606.85L212.85 607.75L212.75 609.35L212.25 609.85L211.55 610.25L210.85 609.95L209.55 608.65L209.05 608.25L208.35 608.65L207.65 608.55L207.45 607.85L206.95 607.55H206.25L206.05 607.25L207.05 606.45L206.65 606.25L206.05 606.35L205.45 606.15L205.75 605.45L206.75 604.75L207.65 604.65L208.85 605.15L210.55 605.05L211.75 605.35L212.35 606.15ZM69.95 770.75L69.25 770.35L66.55 767.85L65.05 766.95L64.75 765.65L65.45 763.95L66.45 762.95L67.95 763.45L69.15 764.95L71.05 768.95L71.25 770.25L70.75 771.05L70.25 770.95L69.95 770.75ZM269.35 751.05L270.55 751.55L271.65 752.95L271.35 753.75L270.75 753.25L270.35 753.15L270.05 753.75L269.55 753.55L268.35 752.85L267.05 752.95L266.35 753.65L265.85 754.55L264.35 755.55L262.95 756.75L260.95 757.95L258.35 757.85L256.95 755.95L256.85 753.45L258.05 751.05L260.45 749.35H262.45L265.15 751.05L265.95 751.15L267.05 750.85H268.65L269.35 751.05ZM279.25 753.55L279.85 753.85L280.25 754.65L279.85 755.15L279.25 755.25L279.05 756.25V757.95L278.35 759.15L277.05 759.55L276.35 759.15L276.15 758.35L275.45 757.85L274.75 757.75L274.45 755.55L275.35 751.75L275.65 749.65L274.75 748.75L274.45 748.05L275.55 746.95L275.65 746.45H276.85L279.15 747.55L279.45 749.15L278.15 750.35L277.95 751.55L279.25 753.55ZM311.45 746.35L312.75 747.45L313.55 748.45L313.25 750.45L312.85 751.35L312.05 752.85L310.45 753.75L308.45 753.95L306.95 753.15L305.75 752.05L304.85 752.15L304.35 752.95L303.85 752.65L303.25 750.15L304.15 748.45L304.35 746.85L304.85 745.65L305.85 744.75L307.75 743.75L310.05 744.35L311.45 746.35ZM271.15 742.95L271.75 743.75L271.85 745.15L270.85 745.95L270.45 747.85L268.45 747.95L267.35 748.15L268.05 749.35L267.35 749.95L265.25 749.35L264.15 748.35L263.95 747.75L263.35 747.55L262.75 747.35L262.55 746.85L263.25 744.85L263.65 744.15L263.75 743.65L263.45 743.25L263.55 742.85L264.05 742.65L264.35 742.25L264.25 741.85L263.65 740.65L264.05 740.25L265.15 740.65L266.15 741.15L268.95 741.65L270.45 742.45L271.15 742.95ZM200.15 728.25L200.05 730.05L200.25 731.25L199.65 732.15L198.35 732.35L197.55 732.95L196.95 732.75L196.45 731.85H195.95L195.75 732.65L194.85 732.75L192.05 731.65L191.15 730.25L191.05 729.35L191.55 728.55L191.65 727.75L192.65 727.05L197.35 728.05L199.25 727.75L200.15 728.25ZM303.95 728.15L303.35 728.75L302.15 728.95L301.45 728.05L301.15 726.75L300.45 725.75L299.45 725.35L298.05 725.55L296.45 726.15L295.15 726.05L294.55 725.85L294.05 725.45L291.05 724.15L290.85 723.65L292.25 723.45L293.65 723.05L294.25 722.65L294.75 722.45L295.75 722.65L297.05 723.15L298.55 722.55L300.35 721.05L301.75 720.75L302.55 721.35L303.55 721.55H304.05L304.65 721.45L306.15 721.55L308.05 722.05L309.25 722.75L309.05 723.95L308.25 724.85L308.05 725.45L307.85 726.55L307.05 727.55L305.85 727.35L304.65 727.55L303.95 728.15ZM336.15 722.15L336.65 722.55L336.85 723.35L336.05 723.55L334.95 722.95L333.55 722.65L332.55 723.05L332.95 723.45L333.75 723.95L332.75 724.95L330.35 726.75L329.05 727.45L328.85 725.95L329.55 724.95L330.45 724.35L329.95 723.75L326.95 723.15L327.35 722.45L327.05 721.65L326.15 721.05L323.85 720.85L322.95 720.55L322.55 720.25L322.95 719.95L323.95 719.75L324.65 719.25L325.95 717.75L327.25 716.65L327.15 716.15L327.65 716.35L328.55 717.25L329.45 718.55L329.95 720.05L331.05 720.55L332.85 719.95L334.25 719.75L334.85 720.35L335.35 721.15L336.15 722.15ZM291.75 728.05L292.05 729.05L292.75 730.85L292.35 731.35L291.65 731.25L290.95 731.05L289.75 730.45L288.75 729.85L288.15 729.95L288.05 730.95L287.35 731.25L286.15 730.75L284.15 730.25L281.55 729.35V728.25L282.85 727.35L282.45 726.15L281.35 725.85L279.95 726.15L278.15 725.65L276.55 724.65L275.55 723.45L275.15 721.65L275.05 719.65L275.15 717.55L275.75 715.45L276.75 713.95L278.25 713.25L279.05 713.05L281.45 712.75L282.95 713.25L284.45 714.25L286.05 716.15L287.25 719.35L287.65 721.95L288.05 723.15L288.85 724.15L289.25 725.55L291.75 728.05ZM291.55 715.95L290.85 715.85L290.25 715.25L290.75 714.25L291.45 713.35L292.35 711.25L294.25 708.75L296.95 707.25L299.75 706.55L301.45 706.85L302.05 707.85L302.15 708.95L301.45 709.65L301.55 710.05L302.85 710.85L303.85 711.95L304.75 713.35L304.95 714.35L303.95 714.45L301.15 713.65L299.95 713.95L299.25 714.95L295.75 716.55L294.45 718.25L294.05 720.05L293.35 720.55L292.45 719.55V717.85L292.15 716.35L291.55 715.95ZM234.35 636.65L236.95 637.55L237.25 641.05L234.55 643.55L233.05 642.95L233.95 641.95L234.35 641.05L234.05 640.35L230.25 638.35L229.65 638.05L225.65 638.65L223.85 639.55L221.85 639.85L220.25 639.25L219.45 638.25L220.15 637.35L222.35 637.25L225.05 636.25L225.55 635.55L226.05 635.15L226.15 634.45L227.85 633.95L228.45 632.85L228.55 631.65L227.45 630.25L227.05 628.55L228.45 627.85L230.85 628.35L233.25 629.65L234.95 631.35L234.75 632.35L233.65 632.45L231.55 633.85L231.25 634.65L231.35 635.55L231.55 636.35L232.45 636.65H234.35ZM219.95 606.35L220.15 605.55L219.25 605.25L215.75 604.75L215.05 604.05L213.85 603.95L213.25 603.75L212.65 603.25L211.85 602.85L211.15 601.95L209.65 598.55L210.55 597.25L212.25 596.65L213.85 597.25L215.05 598.05L216.25 597.65L217.55 597.05L218.35 597.45L218.65 598.15H219.35L220.15 597.85L220.55 598.95L219.55 599.95H218.35L217.75 600.65V601.45L219.25 603.05L220.55 603.55L221.95 603.65L222.75 604.85L223.15 606.35L223.85 607.25L224.05 608.55L223.55 610.15L223.05 610.55L222.65 610.05L221.15 609.65L220.45 608.85L219.95 607.85V606.35Z" fill="#6F9C76" stroke="white" stroke-width="0.5" stroke-linecap="round" stroke-linejoin="round"/>
<path id="KR48" d="M407.45 568.35L410.35 565.35L410.45 561.35L411.35 556.85L417.05 550.05L417.85 545.55L415.95 544.25L414.55 541.05L414.75 536.85L413.25 532.85L413.05 530.75L412.55 528.95L409.05 527.45L409.15 523.25L411.05 519.45L412.25 514.25L413.85 509.15L415.95 505.25L417.65 501.55L418.05 496.35L419.55 492.05L422.65 489.25L425.55 486.15L428.15 480.65L429.45 479.85L431.25 480.05L434.65 478.95L441.35 475.35L442.65 471.85L447.65 466.55L448.75 470.25L451.45 471.85L452.75 472.85L453.95 473.85L454.15 475.25L454.65 476.55L455.75 477.05L456.85 477.45L460.95 477.75L462.75 479.25L464.95 480.75L468.85 481.05L472.65 480.95L476.15 482.15L478.75 484.95L480.55 488.45L483.55 490.55L484.35 492.15L484.75 493.55L486.85 494.85L488.65 496.95L488.55 500.95L486.95 504.65L489.05 512.35L497.45 512.75L501.55 512.15L505.45 512.85L509.15 514.55L512.65 517.15L516.45 517.95L523.75 514.25L527.45 514.95L530.75 510.15L533.95 507.75L535.05 516.95L538.45 521.15L542.65 523.85L547.65 523.35L552.65 522.45L557.15 523.75L561.35 525.95L566.35 526.15L570.85 522.65L572.75 521.95L574.75 521.65L576.55 520.05L578.15 518.05L583.05 516.05L588.25 517.35L592.25 519.15L596.05 517.95L596.65 524.55L593.25 531.35L595.25 535.45L603.65 536.75L607.15 539.45L612.95 546.15L619.95 550.05L623.05 552.45L623.95 557.05L626.95 559.95L630.75 561.35L631.35 561.85L630.75 564.05L630.45 567.05L629.65 568.65L628.75 570.05L629.55 572.35V573.25L628.05 576.35L625.85 580.95L623.45 583.85L622.15 586.55L621.95 587.05L621.65 586.45L618.95 583.65L616.45 580.55L613.35 577.95L610.95 574.65L610.15 570.95L607.55 569.25L604.05 569.15L600.85 570.45L598.35 572.35L596.35 574.75L594.95 584.55L593.05 587.45L590.95 590.05L589.85 592.05L589.25 591.45L587.95 593.35L583.85 600.65L581.95 600.75L581.85 597.35L581.95 594.25L581.05 594.05L579.85 596.75L578.95 600.65L575.55 600.25L566.65 600.45L566.15 597.35L565.25 595.75L563.95 600.35L562.65 601.05L559.45 599.65L557.95 596.85L556.35 596.65L554.25 598.25V591.05L553.75 590.45L552.55 590.85L551.55 592.45V594.95L549.35 593.25L547.65 590.85L545.85 589.35L543.05 590.45L543.65 588.15L542.55 584.75L543.05 583.55L541.75 579.15L540.95 578.75L539.35 580.15L537.75 582.75L537.65 584.55L539.35 588.15L540.35 592.55L540.95 594.05L542.05 596.05L544.35 599.15L544.65 600.65L544.05 602.85L545.05 603.05L546.75 603.75L547.75 604.05L546.55 604.85L545.35 605.15H542.55L541.15 604.75L540.75 603.95L540.65 602.85L540.25 601.75L538.95 600.35L537.95 599.65L530.65 597.05L528.65 596.95L524.15 597.75L522.95 598.35L523.05 599.55L524.55 601.75L522.05 602.25L517.45 604.65L512.05 606.05L511.35 608.15L511.15 610.45L509.65 611.95V613.05L523.25 605.85L525.45 605.65L525.95 608.65L526.75 610.75L527.05 612.65L525.95 614.85L524.25 615.85L521.55 616.25L518.95 616.15L517.15 615.45L516.25 617.05L516.85 617.85L518.15 618.55L519.05 619.95L519.15 620.75L519.25 622.05L519.05 625.45L518.05 632.25L519.25 633.45L520.45 633.05L521.35 631.75L521.85 630.05L523.65 632.25L521.75 635.65L518.35 640.15L515.35 641.05L511.25 640.75V638.25L513.95 638.15L515.05 637.95L515.75 636.85L507.25 635.95L505.55 635.25L503.55 632.55L503.35 631.15L504.75 630.25L507.85 629.05L504.75 622.85L502.55 625.05L500.25 629.35L497.15 629.55L494.25 625.75L492.75 624.75L489.75 624.45L488.35 625.25L487.55 627.25L487.35 629.85V632.25L484.55 631.75L478.25 632.05L475.75 630.65L475.45 629.75V627.35L475.25 626.75L474.65 626.55L473.15 626.85L471.15 626.35L467.95 626.05L466.85 625.45L466.25 624.15L466.35 622.85L466.65 621.65L466.85 620.55L466.65 608.25L466.85 606.25L467.25 605.35L467.95 604.15L468.55 602.55L468.75 600.55L466.65 603.05L464.85 606.05L462.75 608.25L459.45 608.55L461.95 614.35L460.25 615.55L456.55 615.45L453.05 617.65L451.65 613.75L450.75 612.05L449.25 610.95L448.85 616.25L447.45 620.45L444.55 622.95L440.95 623.35L439.55 622.75L438.25 622.45L437.15 622.55L436.35 623.35L434.25 621.65L432.85 621.25L432.55 620.55V617.45L430.75 612.95L422.25 603.75L420.85 600.65L419.65 597.15L416.65 594.05L413.25 591.55L411.45 588.25L410.85 579.45L409.55 575.25L406.75 571.95L407.45 568.35ZM468.75 644.75L469.45 646.65L469.05 648.25L468.35 650.05L467.95 652.15L468.25 655.55L468.15 657.55L467.35 658.35L466.35 658.95L467.45 662.35L466.95 664.05L464.85 664.45L462.85 663.25L460.65 662.25L458.15 663.45L455.95 663.75L454.65 660.55L453.05 653.85L450.85 652.65L449.05 653.95L447.85 656.65L447.45 660.15L446.65 661.55L444.65 661.65L442.65 660.95L441.45 660.15L440.55 658.65L440.35 657.45V655.95L440.05 653.85L436.35 641.65L435.85 638.75L436.15 635.85L437.75 632.85L438.75 632.15L439.85 631.95L440.65 631.35L441.25 627.75L442.05 626.65L444.25 624.95L446.05 624.05L448.15 624.75L449.85 626.35L450.95 628.45L450.75 630.55L449.55 632.65L446.55 635.85L447.05 636.95L447.75 639.85L448.45 641.35L449.65 642.15L452.55 643.15L454.15 646.05L456.75 645.65L460.15 644.35L463.25 643.65L467.85 644.45L468.75 644.75ZM560.85 635.85L560.65 637.75L560.05 639.85L558.85 641.05L557.05 640.25L557.75 642.45L559.55 646.25L559.85 648.75L558.85 649.15L556.45 648.35L553.95 647.05L552.35 645.85L551.95 648.25L551.55 649.45L549.15 652.15L548.45 654.35L550.05 655.55L552.25 656.55L553.35 657.75L551.25 659.65L541.45 662.65L538.45 662.85L543.15 659.55L541.25 658.65L540.45 657.15L540.55 655.15L541.25 652.75L537.05 654.95L535.85 654.05L535.25 652.15V650.25L536.15 649.35L539.55 648.65L540.45 646.85L540.55 644.25L541.25 641.35L539.45 640.25L538.05 641.95L533.15 644.15L531.05 645.85L529.45 643.45L527.55 641.35L525.95 638.95L525.55 635.85L526.45 633.95L528.25 632.15L530.25 630.85L532.05 630.05L537.15 629.05H538.45L540.75 630.05L542.55 631.15L544.35 632.05L546.85 632.25V631.25L544.35 629.55L542.85 627.05L542.25 624.25L542.15 621.65L543.85 621.85L553.35 616.45L551.75 613.45L552.55 610.35L554.65 608.75L557.05 609.65L557.65 611.05V612.65L556.75 618.75L556.85 619.75L557.45 621.65L558.25 623.25L558.85 624.85V627.05L558.35 628.95L556.15 634.65L558.95 633.65L560.25 632.75L560.65 633.05L560.85 635.85ZM469.15 639.75L469.75 640.25L470.45 641.35L469.05 641.75L462.95 640.05L459.55 641.15L457.65 640.95L455.55 639.75L454.35 637.35L455.35 634.85L457.15 632.45L458.35 630.15L459.55 628.55L461.75 627.95L462.45 629.85L461.45 632.45L461.05 634.25L461.15 635.85L461.85 636.35L462.65 634.55L464.25 631.95L465.55 631.75L465.95 632.95L466.65 633.55L467.35 633.95L467.65 635.95L468.35 638.65L469.15 639.75ZM573.55 610.55L572.95 613.95L572.05 615.15L571.35 615.45L571.05 614.75L570.45 611.85L569.35 610.75L569.05 609.85L569.15 608.75L568.75 607.35L567.95 606.05L568.35 604.85L569.85 604.05L571.35 603.85L572.75 604.25L573.65 606.35L573.55 610.55ZM499.25 673.65L499.65 674.05L499.45 674.95L498.15 676.55L497.55 676.95L496.65 677.05L495.35 676.75L494.35 676.95L492.85 677.65L492.15 678.35L491.35 678.45L491.25 677.85L491.65 676.85L491.55 675.95L490.95 675.35L490.45 675.25L489.85 674.85L489.95 673.95L490.25 673.25L490.35 672.35L490.85 671.85L491.75 671.55L496.05 673.85V674.85L496.75 674.95L499.25 673.65ZM511.65 643.95L512.95 643.35L515.05 642.85L517.35 642.75L518.75 644.05L519.05 646.15L518.35 647.45L518.85 648.25L518.25 649.25L516.85 648.65L516.35 649.05V649.45L517.45 649.65L518.65 650.55L518.05 651.55L516.65 653.25L514.45 653.35L513.45 652.05L512.95 650.75H511.75L512.05 649.65L511.65 648.55L509.95 648.35L509.35 647.85L510.65 646.75L510.85 645.55L509.55 644.45L507.05 643.65L505.55 644.15L504.65 644.05L504.35 642.95L505.45 641.75L507.05 641.35L509.15 642.25L510.75 643.45L511.65 643.95ZM491.85 641.25L493.85 643.55L494.65 644.85L494.05 645.75H492.65L491.95 646.05L492.05 647.25L491.65 647.75L490.35 647.35L489.55 646.95L488.05 645.95L487.25 644.65L487.35 643.75L488.35 642.25L490.15 640.85L491.85 641.25Z" fill="#6F9C76" stroke="white" stroke-width="0.5" stroke-linecap="round" stroke-linejoin="round"/>
<path id="KR26" d="M589.85 592.05L590.95 590.05L593.05 587.45L594.95 584.55L596.35 574.75L598.35 572.35L600.85 570.45L604.05 569.15L607.55 569.25L610.15 570.95L610.95 574.65L613.35 577.95L616.45 580.55L618.95 583.65L621.65 586.45L621.95 587.05L621.25 588.45L619.15 588.35H617.65L615.65 588.65L614.25 588.55L612.85 589.15L611.15 589.35L611.05 591.75L612.15 593.35L612.35 595.25L611.65 597.45L608.55 598.85L606.15 596.75L604.65 595.55L603.55 594.15L599.95 597.95L598.35 601.05L597.85 604.25L596.75 605.05L596.15 603.35L594.45 601.65L594.65 603.15L594.95 606.55H593.95L593.45 605.45L592.85 605.15L591.45 606.15L590.15 606.95L589.25 605.85L588.15 602.05L588.65 598.75L589.65 594.45L589.85 592.05Z" fill="#6F9C76" stroke="white" stroke-width="0.5" stroke-linecap="round" stroke-linejoin="round"/>
<path id="KR31" d="M631.35 561.85L630.75 561.35L626.95 559.95L623.95 557.05L623.05 552.45L619.95 550.05L612.95 546.15L607.15 539.45L603.65 536.75L595.25 535.45L593.25 531.35L596.65 524.55L596.05 517.95L599.35 515.25L602.75 513.25L604.85 513.15L605.75 511.55L604.45 509.35L603.65 507.05L608.25 503.55L613.95 501.55L618.65 500.75L623.25 501.75L628.05 503.85L629.35 505.85V508.35L629.75 510.55L631.35 511.75L633.65 512.35L646.25 510.15L657.05 512.75H657.15L657.35 512.95L658.25 514.55L657.75 518.15L657.45 522.45L656.55 528.95L655.15 531.65L652.95 534.75L650.85 535.85L649.95 532.85L649.15 529.05L647.45 526.15L645.55 525.75L644.45 528.95L646.25 529.35L647.35 530.75L647.95 532.85L648.05 535.25L647.45 537.45L646.05 537.95L644.45 538.15L643.35 539.15L643.55 540.35L643.75 543.45L644.35 546.65L643.05 548.75L641.95 550.75L643.05 552.35L643.95 553.25L643.75 555.55L640.95 556.45L638.35 558.05L634.55 561.75L631.35 561.65V561.85Z" fill="#6F9C76" stroke="white" stroke-width="0.5" stroke-linecap="round" stroke-linejoin="round"/>
<path id="KR47" d="M547.45 275.15L550.95 277.05L554.35 278.45L558.35 279.35L561.85 279.65L562.65 276.05L563.05 272.15L562.15 267.95L564.65 264.95L568.35 263.15L572.05 263.45L573.95 266.85L576.55 267.45L578.85 268.65L578.55 271.55L578.85 274.55L582.95 272.95L586.75 269.95L588.45 270.65L589.55 272.15L591.05 272.35L592.85 271.65L598.15 272.55L603.15 274.85L606.75 273.95L610.35 271.95L615.05 273.05L619.25 275.65L620.55 279.55L617.35 281.95L613.45 280.35L610.85 281.35L608.55 283.05L607.55 287.25L608.15 292.75L610.95 296.95L615.45 299.15L616.45 302.75L617.75 305.85L620.85 307.15L623.75 308.85L633.65 309.55L633.15 313.45L634.25 314.55L635.35 315.75L633.95 320.05L632.05 324.55L632.45 329.25L633.65 333.45L634.05 337.25L632.55 341.25L641.95 344.75L646.35 342.75L650.85 343.85H652.15L652.25 344.15L652.95 350.85L654.75 357.75L655.55 364.75L654.65 379.05L653.85 382.15L649.65 387.25L648.05 390.15L647.35 393.45L646.75 413.75L647.15 416.55L648.05 418.05L648.95 418.65L649.65 419.55L650.45 425.25L651.45 429.55L652.55 430.35L653.25 431.35L652.75 433.95L651.65 435.45L650.25 436.05L648.95 436.55L646.65 438.35L646.55 440.65L649.35 443.35L651.45 445.65L653.65 448.25L656.35 448.75L659.85 446.05L668.45 436.55L670.15 433.85L672.35 435.55L672.85 438.45L673.85 441.45L674.55 444.85L672.35 448.15L667.55 457.85L667.15 462.25L665.65 473.65L662.15 483.65L662.35 489.85L658.75 500.65L656.15 505.85L654.95 508.45L656.05 511.45L657.15 512.75H657.05L646.25 510.15L633.65 512.35L631.35 511.75L629.75 510.55L629.35 508.35V505.85L628.05 503.85L623.25 501.75L618.65 500.75L613.95 501.55L608.25 503.55L603.65 507.05L604.45 509.35L605.75 511.55L604.85 513.15L602.75 513.25L599.35 515.25L596.05 517.95L592.25 519.15L588.25 517.35L583.05 516.05L578.15 518.05L576.55 520.05L574.75 521.65L572.75 521.95L570.85 522.65L566.35 526.15L561.35 525.95L557.15 523.75L552.65 522.45L547.65 523.35L542.65 523.85L538.45 521.15L535.05 516.95L533.95 507.75L530.75 510.15L527.45 514.95L523.75 514.25L516.45 517.95L512.65 517.15L509.15 514.55L505.45 512.85L501.55 512.15L497.45 512.75L489.05 512.35L486.95 504.65L488.55 500.95L488.65 496.95L486.85 494.85L484.75 493.55L484.35 492.15L483.55 490.55L480.55 488.45L478.75 484.95L476.15 482.15L472.65 480.95L468.85 481.05L464.95 480.75L462.75 479.25L460.95 477.75L456.85 477.45L455.75 477.05L454.65 476.55L454.15 475.25L453.95 473.85L452.75 472.85L451.45 471.85L448.75 470.25L447.65 466.55L448.25 455.85L442.75 446.45L446.05 444.75L449.45 443.65L451.55 439.55L452.65 435.25L453.75 433.35L455.05 431.75L455.35 429.05L455.25 426.75L454.55 422.25L457.85 419.35L461.05 419.95L463.95 420.15L462.35 411.45L459.35 409.15L452.45 410.85L449.75 409.55L445.95 406.35L442.65 405.25L437.25 406.55L436.35 398.55L439.35 395.95L441.35 392.15L439.85 389.45L438.95 386.55L439.75 382.45L440.35 373.35L441.65 369.45L444.15 367.05L437.55 357.35L432.25 356.45L430.65 352.65L432.65 351.75L434.65 351.35L436.65 349.25L439.65 345.15L440.45 343.45L440.35 341.85L440.75 339.85L444.95 336.95L449.65 334.75L452.65 330.35L457.75 332.55L467.35 334.05L465.45 330.25L462.85 326.95L463.75 323.45L465.45 319.75L467.05 316.95L469.25 318.45L471.95 318.15L474.15 315.15L476.45 313.75L478.65 315.15L482.85 316.55L486.75 316.85L487.75 314.15L488.35 311.45L489.85 309.25L491.55 307.45L493.35 309.45L495.55 311.05L498.75 313.85L500.85 317.95L505.65 319.55L516.95 314.75L518.95 308.15L517.15 306.45L516.25 304.75L517.95 301.65L519.35 298.45L522.35 294.15L526.55 291.15L527.75 289.05L529.45 287.65L532.25 286.75L534.45 284.55L537.95 281.65L541.05 278.35L542.35 277.55L543.95 278.15L545.85 277.05L547.45 275.15ZM559.85 472.95L561.95 470.75L562.65 468.15L562.55 465.25L562.35 462.65L560.85 461.35L559.75 459.75V455.55L560.35 454.35L560.45 453.05L558.75 450.05L553.25 446.05L546.15 446.55L537.55 447.75L531.15 453.05L531.95 460.65L529.65 463.15L528.15 466.45L529.45 466.65L530.65 467.15L530.45 468.85L529.85 470.35L527.65 470.75H525.65L523.75 473.35L524.55 476.45L526.65 477.25L528.65 479.25L530.25 482.35L532.65 484.25L534.35 485.35L535.55 486.45L536.65 485.55L538.55 482.15L540.45 480.65L544.85 481.05L552.65 483.05L555.75 481.25L556.15 479.65V478.65L557.45 475.25L557.55 473.85V472.75L558.85 472.65L559.85 472.95ZM852.95 185.95L855.25 187.75L855.15 192.05L853.65 196.95L852.05 200.15L849.45 201.45L846.05 200.75L842.65 198.75L840.45 196.05L839.75 192.55L840.85 189.95L843.35 188.35L848.15 187.55L851.35 186.35L852.95 185.95Z" fill="#6F9C76" stroke="white" stroke-width="0.5" stroke-linecap="round" stroke-linejoin="round"/>
<path id="KR49" d="M316.45 863.75L317.45 865.85L316.85 866.65L315.55 867.05L314.55 868.15L314.65 869.05L315.55 870.55V871.45L315.05 872.35L313.85 873.85L313.65 874.35L311.25 877.15L306.55 880.85L305.15 883.95L303.15 887.45L303.05 888.95L302.15 891.05L298.75 891.45L297.45 892.15L293.95 891.75L288.75 895.95L275.05 898.45L270.45 902.35L264.85 903.55L258.85 902.95L251.95 904.25L246.25 902.55L233.35 902.75L229.35 904.55L226.95 908.85L224.75 909.25L222.55 908.25L219.55 903.25L215.35 901.85L211.45 897.65L210.05 892.55L212.45 885.95L214.75 881.85L216.15 880.45L220.85 877.65L224.85 870.65L228.55 869.65L230.25 865.95L236.65 863.75L250.45 859.85L253.95 856.85L267.15 855.45L276.15 851.55L278.25 852.15L289.25 850.35L295.55 849.85L299.75 850.55L301.45 852.95L303.45 854.55L309.95 857.15L311.95 859.15L313.25 864.05L314.55 865.95L315.25 865.15L316.05 864.45L316.45 863.75Z" fill="#6F9C76" stroke="white" stroke-width="0.5" stroke-linecap="round" stroke-linejoin="round"/>
<path id="KR11" d="M339.45 185.15H343.15L346.35 183.95H349.15L350.15 186.45L349.75 188.95L347.85 189.95L345.85 191.35V194.35L346.95 195.65L344.65 198.75L343.35 201.05L339.85 203.15L335.95 204.05L331.95 206.05L330.45 202.45L327.05 203.25L323.65 204.25L321.25 205.65L318.85 206.05L313.05 205.85L309.05 200.65L305.05 199.45L302.35 197.65L301.65 192.75L298.95 188.95L295.75 184.95L297.85 180.65L301.65 180.85L305.95 183.55L309.15 182.45L312.05 180.65L312.25 177.75L313.05 175.05L319.15 174.45L322.25 170.45L324.15 166.35L326.85 163.45L331.15 162.45L335.95 162.85L338.35 166.85L339.25 172.35L340.65 176.15L340.75 180.35L339.45 185.15Z" fill="#6F9C76" stroke="white" stroke-width="0.5" stroke-linecap="round" stroke-linejoin="round"/>
<path id="KR30" d="M389.15 384.75L388.45 388.65L386.65 391.55L384.75 398.85L381.15 401.65L379.25 402.35L373.35 406.75L366.65 408.45L363.85 399.35L363.15 387.15L360.65 382.35L353.45 370.95L359.65 369.25L368.45 366.85L371.55 367.15L371.25 368.35L371.75 369.65L372.65 370.65L373.85 371.25L374.65 373.15L374.15 376.05L378.25 377.25L382.55 376.25L384.15 373.95L386.05 374.45L385.85 376.35L387.45 377.25L387.75 380.25L389.15 384.75Z" fill="#6F9C76" stroke="white" stroke-width="0.5" stroke-linecap="round" stroke-linejoin="round"/>
<path id="KR50" d="M353.45 370.95L344.15 373.45L331.85 371.05L333.05 367.55L335.15 365.55L334.75 339.95L337.85 331.25L357.15 338.95L354.55 344.65L354.75 347.55L353.05 352.35L352.45 357.55L362.45 355.55L372.75 356.25L372.65 358.05L371.95 359.65L371.65 360.95L372.15 361.95L372.25 362.85L372.35 363.75L372.15 365.45L371.55 367.15L368.45 366.85L359.65 369.25L353.45 370.95Z" fill="#6F9C76" stroke="white" stroke-width="0.5" stroke-linecap="round" stroke-linejoin="round"/>
<path id="KR43" d="M406.05 256.65L420.35 252.75L434.75 250.75L433.65 258.95L437.75 257.95L441.85 258.25L443.05 258.95L444.15 259.55L445.25 258.65L446.15 257.55L448.95 255.65L448.15 247.35L450.75 244.25L457.65 241.85L462.75 247.35V250.95L464.45 253.35L468.95 252.25L473.45 249.75L476.15 247.65L479.45 248.35L482.05 246.95L485.25 244.55L492.75 247.25L500.55 248.45L502.95 249.15L501.35 252.75L497.45 255.55L495.15 259.15L496.65 260.85L498.55 261.85L499.75 261.95L501.05 261.35L505.15 259.95L511.55 259.25L512.95 260.65L512.65 263.15L515.35 265.95L516.35 268.15L518.85 267.95L521.75 267.45L525.05 266.45L528.25 266.35L531.45 268.85L535.05 271.15L538.55 271.85L542.05 272.25L544.75 273.45L547.45 275.15L545.85 277.05L543.95 278.15L542.35 277.55L541.05 278.35L537.95 281.65L534.45 284.55L532.25 286.75L529.45 287.65L527.75 289.05L526.55 291.15L522.35 294.15L519.35 298.45L517.95 301.65L516.25 304.75L517.15 306.45L518.95 308.15L516.95 314.75L505.65 319.55L500.85 317.95L498.75 313.85L495.55 311.05L493.35 309.45L491.55 307.45L489.85 309.25L488.35 311.45L487.75 314.15L486.75 316.85L482.85 316.55L478.65 315.15L476.45 313.75L474.15 315.15L471.95 318.15L469.25 318.45L467.05 316.95L465.45 319.75L463.75 323.45L462.85 326.95L465.45 330.25L467.35 334.05L457.75 332.55L452.65 330.35L449.65 334.75L444.95 336.95L440.75 339.85L440.35 341.85L440.45 343.45L439.65 345.15L436.65 349.25L434.65 351.35L432.65 351.75L430.65 352.65L432.25 356.45L437.55 357.35L444.15 367.05L441.65 369.45L440.35 373.35L439.75 382.45L438.95 386.55L439.85 389.45L441.35 392.15L439.35 395.95L436.35 398.55L437.25 406.55L442.65 405.25L445.95 406.35L449.75 409.55L452.45 410.85L459.35 409.15L462.35 411.45L463.95 420.15L461.05 419.95L457.85 419.35L454.55 422.25L455.25 426.75L455.35 429.05L455.05 431.75L453.75 433.35L452.65 435.25L451.55 439.55L449.45 443.65L446.05 444.75L442.75 446.45L440.95 448.25L439.25 449.85L437.25 448.75L435.25 446.85L430.25 449.15L425.95 451.75L423.75 451.15L422.45 449.55L416.45 447.55L414.35 445.15L412.05 443.85L411.25 445.05L410.15 445.25L408.85 444.05L407.65 442.65L404.55 437.85L401.85 432.95L400.65 427.25L400.85 421.45L399.45 416.45L395.25 413.85L391.25 412.55L386.85 413.45L386.55 408.65L386.75 404.05L388.35 397.55L391.45 392.05L392.65 389.15L394.05 386.65L396.25 385.05L396.85 382.05L395.05 381.55L393.15 380.65L390.95 382.35L389.15 384.75L387.75 380.25L387.45 377.25L385.85 376.35L386.05 374.45L384.15 373.95L382.55 376.25L378.25 377.25L374.15 376.05L374.65 373.15L373.85 371.25L372.65 370.65L371.75 369.65L371.25 368.35L371.55 367.15L372.15 365.45L372.35 363.75L372.25 362.85L372.15 361.95L371.65 360.95L371.95 359.65L372.65 358.05L372.75 356.25L362.45 355.55L352.45 357.55L353.05 352.35L354.75 347.55L354.55 344.65L357.15 338.95L360.95 333.45L363.75 328.55L364.95 327.25L366.25 327.45L367.45 327.15L368.15 325.85L368.35 324.35L368.75 322.55L369.45 320.75L369.75 318.85L369.45 316.95L368.55 315.25L367.45 314.15L367.55 310.75L365.75 309.45L363.45 304.75L361.65 303.75L360.05 302.05L358.95 299.55L365.05 297.75L370.85 294.95L375.35 293.45L376.55 288.45L378.75 286.05L382.25 284.55L383.85 282.45L385.05 279.55L387.15 277.35L389.75 277.95L390.55 278.95L393.95 276.55L400.45 264.45L401.05 263.05L401.85 261.75L402.95 260.85L403.95 260.15L405.05 258.45L406.05 256.65Z" fill="#6F9C76" stroke="white" stroke-width="0.5" stroke-linecap="round" stroke-linejoin="round"/>
<path id="KR29" d="M321.75 574.55L324.55 582.15L319.15 589.35L310.85 587.95L303.45 583.55L299.75 575.35L302.65 572.65L307.55 573.85L311.05 573.05L314.75 571.95L321.75 574.55Z" fill="#6F9C76" stroke="white" stroke-width="0.5" stroke-linecap="round" stroke-linejoin="round"/>
<path id="KR27" d="M559.85 472.95L558.85 472.65L557.55 472.75V473.85L557.45 475.25L556.15 478.65V479.65L555.75 481.25L552.65 483.05L544.85 481.05L540.45 480.65L538.55 482.15L536.65 485.55L535.55 486.45L534.35 485.35L532.65 484.25L530.25 482.35L528.65 479.25L526.65 477.25L524.55 476.45L523.75 473.35L525.65 470.75H527.65L529.85 470.35L530.45 468.85L530.65 467.15L529.45 466.65L528.15 466.45L529.65 463.15L531.95 460.65L531.15 453.05L537.55 447.75L546.15 446.55L553.25 446.05L558.75 450.05L560.45 453.05L560.35 454.35L559.75 455.55V459.75L560.85 461.35L562.35 462.65L562.55 465.25L562.65 468.15L561.95 470.75L559.85 472.95Z" fill="#6F9C76" stroke="white" stroke-width="0.5" stroke-linecap="round" stroke-linejoin="round"/>
</g>
</svg>
