<svg width="55" height="45" viewBox="0 0 55 45" fill="none" xmlns="http://www.w3.org/2000/svg">
<path d="M43.95 22.95H47.65L50.85 21.75H53.65L54.65 24.25L54.25 26.75L52.35 27.75L50.35 29.15V32.15L51.45 33.45L49.15 36.55L47.85 38.85L44.35 40.95L40.45 41.85L36.45 43.85L34.95 40.25L31.55 41.05L28.15 42.05L25.75 43.45L23.35 43.85L17.55 43.65L13.55 38.45L9.54999 37.25L6.85001 35.45L6.14999 30.55L3.45001 26.75L0.25 22.75L2.35001 18.45L6.14999 18.65L10.45 21.35L13.65 20.25L16.55 18.45L16.75 15.55L17.55 12.85L23.65 12.25L26.75 8.25L28.65 4.15001L31.35 1.25L35.65 0.25L40.45 0.650009L42.85 4.65001L43.75 10.15L45.15 13.95L45.25 18.15L43.95 22.95Z" fill="#6F9C76" stroke="white" stroke-width="0.5" stroke-linecap="round" stroke-linejoin="round"/>
</svg>
