<svg width="35" height="39" viewBox="0 0 35 39" fill="none" xmlns="http://www.w3.org/2000/svg">
<path d="M1.94995 23.15L3.04999 21.15L5.14996 18.55L7.04999 15.65L8.44995 5.84998L10.45 3.44995L12.95 1.54999L16.15 0.25L19.65 0.349976L22.25 2.04999L23.05 5.75L25.45 9.04999L28.55 11.65L31.05 14.75L33.75 17.55L34.05 18.15L33.35 19.55L31.25 19.45H29.75L27.75 19.75L26.35 19.65L24.95 20.25L23.25 20.45L23.15 22.85L24.25 24.45L24.45 26.35L23.75 28.55L20.65 29.95L18.25 27.85L16.75 26.65L15.65 25.25L12.05 29.05L10.45 32.15L9.94995 35.35L8.84998 36.15L8.25 34.45L6.54999 32.75L6.75 34.25L7.04999 37.65H6.04999L5.54999 36.55L4.94995 36.25L3.54999 37.25L2.25 38.05L1.34998 36.95L0.25 33.15L0.75 29.85L1.75 25.55L1.94995 23.15Z" fill="#6F9C76" stroke="white" stroke-width="0.5" stroke-linecap="round" stroke-linejoin="round"/>
</svg>
