<svg width="40" height="41" viewBox="0 0 40 41" fill="none" xmlns="http://www.w3.org/2000/svg">
<path d="M36.35 27.15L35.35 26.85L34.05 26.95V28.05L33.95 29.45L32.65 32.85V33.85L32.25 35.45L29.15 37.25L21.35 35.25L16.95 34.85L15.05 36.35L13.15 39.75L12.05 40.65L10.85 39.55L9.15002 38.45L6.75 36.55L5.15002 33.45L3.15002 31.45L1.04999 30.65L0.25 27.55L2.15002 24.95H4.15002L6.34998 24.55L6.95001 23.05L7.15002 21.35L5.95001 20.85L4.65002 20.65L6.15002 17.35L8.45001 14.85L7.65002 7.25L14.05 1.95001L22.65 0.75L29.75 0.25L35.25 4.25L36.95 7.25L36.85 8.55002L36.25 9.75V13.95L37.35 15.55L38.85 16.85L39.05 19.45L39.15 22.35L38.45 24.95L36.35 27.15Z" fill="#6F9C76" stroke="white" stroke-width="0.5" stroke-linecap="round" stroke-linejoin="round"/>
</svg>
