<svg width="61" height="33" viewBox="0 0 61 33" fill="none" xmlns="http://www.w3.org/2000/svg">
<path d="M33.95 0.650009L40.15 0.449997L47.05 0.25L55.05 7.95V11.95L56.45 15.25L58.65 16.75L59.95 18.85L58.65 23.05L56.75 26.75L54.95 28.15L53.95 28.85L49.65 30.15L49.25 28.95L42.15 28.05L38.85 32.25L35.45 29.65L36.85 26.55L38.65 23.85L37.55 21.95L35.05 20.65L32.85 19.45L33.15 16.35L32.75 13.85L34.05 11.55L37.95 10.35L39.15 9.75L39.45 8.35001L37.55 7.85001L37.05 9.35001L34.25 9.65001L33.55 7.95L33.25 4.85001L33.95 0.650009ZM28.45 6.65001L28.95 7.15001L29.55 8.05L30.25 8.75L30.75 9.85001L31.15 10.75L30.35 11.05L29.25 11.95L28.75 12.55L26.45 13.15L25.35 12.95L23.95 13.65L20.75 14.95L19.05 16.55L18.05 18.25L12.15 22.65L10.85 22.35L9.64999 22.55L9.04999 22.35L8.54999 20.25L7.44998 19.65L6.94998 20.15L6.44998 20.35L6.35001 19.95L6.54999 19.35L6.25 18.55L5.44998 18.45L4.85001 19.15L4.04999 19.75L3.04999 19.35L1.54999 18.95L2.44998 18.15L2.14999 17.15L0.649994 15.75L0.25 14.85L0.75 13.65L1.54999 13.35L2.75 13.95L8.85001 9.65001L13.25 9.15001L16.25 9.25L19.05 7.75L19.95 3.95L21.85 3.25L23.45 4.85001L24.15 5.15001L24.95 5.55L25.75 5.85001L26.55 5.95L27.35 6.05L28.45 6.65001Z" fill="#6F9C76" stroke="white" stroke-width="0.5" stroke-linecap="round" stroke-linejoin="round"/>
</svg>
