<svg width="37" height="43" viewBox="0 0 37 43" fill="none" xmlns="http://www.w3.org/2000/svg">
<path d="M35.95 18.15L35.25 22.05L33.45 24.95L31.55 32.25L27.95 35.05L26.05 35.75L20.15 40.15L13.45 41.85L10.65 32.75L9.94998 20.55L7.44998 15.75L0.25 4.35001L6.44998 2.64999L15.25 0.25L18.35 0.549988L18.05 1.75L18.55 3.04999L19.45 4.04999L20.65 4.64999L21.45 6.54999L20.95 9.44998L25.05 10.65L29.35 9.64999L30.95 7.35001L32.85 7.85001L32.65 9.75L34.25 10.65L34.55 13.65L35.95 18.15Z" fill="#6F9C76" stroke="white" stroke-width="0.5" stroke-linecap="round" stroke-linejoin="round"/>
</svg>
