<svg width="66" height="62" viewBox="0 0 66 62" fill="none" xmlns="http://www.w3.org/2000/svg">
<path d="M38.35 61.35L37.75 60.85L33.95 59.45L30.95 56.55L30.05 51.95L26.95 49.55L19.95 45.65L14.15 38.95L10.65 36.25L2.25 34.95L0.25 30.85L3.65002 24.05L3.04999 17.45L6.34998 14.75L9.75 12.75L11.85 12.65L12.75 11.05L11.45 8.84998L10.65 6.54999L15.25 3.04999L20.95 1.04999L25.65 0.25L30.25 1.25L35.05 3.34998L36.35 5.34998V7.84998L36.75 10.05L38.35 11.25L40.65 11.85L53.25 9.65002L64.05 12.25H64.15L64.35 12.45L65.25 14.05L64.75 17.65L64.45 21.95L63.55 28.45L62.15 31.15L59.95 34.25L57.85 35.35L56.95 32.35L56.15 28.55L54.45 25.65L52.55 25.25L51.45 28.45L53.25 28.85L54.35 30.25L54.95 32.35L55.05 34.75L54.45 36.95L53.05 37.45L51.45 37.65L50.35 38.65L50.55 39.85L50.75 42.95L51.35 46.15L50.05 48.25L48.95 50.25L50.05 51.85L50.95 52.75L50.75 55.05L47.95 55.95L45.35 57.55L41.55 61.25L38.35 61.15V61.35Z" fill="#6F9C76" stroke="white" stroke-width="0.5" stroke-linecap="round" stroke-linejoin="round"/>
</svg>
