<svg width="437" height="228" viewBox="0 0 437 228" fill="none" xmlns="http://www.w3.org/2000/svg">
<path d="M321.85 0.25L326.65 3.35L328.65 4.65L329.75 7.35L331.25 8.55L332.45 10.05L333.45 12.85L334.95 15.05L336.55 14.85L338.15 16.45L342.75 20.65L347.75 22.95L349.45 20.25L349.55 14.55L349.85 12.75L350.85 11.65L351.85 12.25L352.05 13.95L352.55 15.65L355.35 17.55L358.35 17.05L360.35 14.95L362.15 12.65L363.15 11.85L364.25 11.65L365.35 11.95L366.25 12.65L365.75 13.85L364.95 14.95L363.95 18.05V21.25L366.15 23.25L368.25 24.55L373.45 25.75L379.05 23.75L381.35 25.45L382.25 25.25L383.05 24.55L384.05 24.45L384.95 25.15L386.25 29.25L386.95 37.35L388.65 41.95L392.15 44.45L395.35 44.25L398.35 44.45L400.25 49.45L402.75 50.65L405.35 51.15L408.55 56.15L407.85 63.05L406.35 65.45L403.55 66.35L396.65 71.45L396.95 74.15V76.95L396.15 79.25L397.25 82.35L397.95 85.45L393.95 90.05L395.65 92.15L399.15 91.05V94.45L398.55 97.85L397.15 100.75L396.95 103.55L399.95 106.05L403.55 104.95L407.35 105.55L410.75 107.75L414.15 109.15L421.75 113.35L426.35 113.95L429.65 115.25L432.85 115.65L434.85 117.35L436.45 119.95L435.05 123.05L432.35 124.15L429.85 127.15L428.05 130.25L428.85 134.15L427.75 137.95L419.45 155.85L413.35 170.65L406.05 184.25L405.05 186.05L403.95 187.75L402.95 188.45L401.85 189.35L401.05 190.65L400.45 192.05L393.95 204.15L390.55 206.55L389.75 205.55L387.15 204.95L385.05 207.15L383.85 210.05L382.25 212.15L378.75 213.65L376.55 216.05L375.35 221.05L370.85 222.55L365.05 225.35L358.95 227.15L352.55 226.25L347.35 221.85L341.45 219.15L330.25 223.95H324.95L318.55 222.65L320.25 221.35L322.35 220.35L323.75 218.75L324.75 214.65L324.45 213.85L323.15 212.55L322.95 212.15L323.65 211.55L324.45 211.45H325.15L326.95 210.45L328.15 210.25L329.05 209.65L329.45 207.65L321.35 209.95L320.15 211.65L320.55 216.95L319.55 218.15L316.35 219.15L311.95 218.55L306.55 215.45L301.75 210.65L299.95 206.15L308.05 205.25V204.15L307.45 203.95L306.25 202.95L307.75 202.75L309.15 202.85L310.55 203.25L311.65 204.15L311.15 200.95L309.25 198.05L307.95 194.75L308.85 190.25L307.35 189.55L306.15 191.15L305.45 193.85L305.25 196.55L304.55 199.55L303.25 200.25L302.05 198.95L299.45 199.45L296.85 200.15L290.55 198.25V196.35L290.05 194.65L290.55 192.35L290.25 189.45L291.85 186.55L293.65 184.05L295.85 182.95L298.15 182.05H301.55L305.25 181.05L306.05 179.95L306.25 176.75L305.35 176.15L303.45 177.15L300.65 179.65L298.95 179.25L297.65 178.45L296.95 177.15V175.05L293.75 176.75L291.15 178.55L286.25 183.85L285.05 184.85L283.45 185.35H282.05L281.15 184.45V182.95L282.05 181.35L284.05 178.55L280.05 179.45L278.75 179.05L278.35 176.75L279.05 175.05L280.75 174.05L282.65 173.45L284.05 172.65L285.65 170.35L285.25 169.85L281.55 170.35L280.35 169.55L279.45 167.75L278.55 165.45L277.45 163.35L278.05 163.15L278.45 162.85L279.25 162.05L280.25 162.85L281.75 162.75L284.45 162.05L286.55 162.65L288.35 163.75L290.15 164.35L292.25 163.35L292.05 165.25L292.25 167.05L292.85 168.55L294.15 169.15L295.65 168.55L296.25 166.95L296.95 163.35L299.25 159.95L301.15 160.15L303.25 161.45L306.25 161.05L305.55 159.65L304.75 158.55L303.65 157.85L302.45 157.55H300.55L299.65 156.25L297.65 155.95L296.05 156.45L294.45 156.35L291.85 155.85L287.55 154.45L281.65 150.05L281.35 148.05L284.05 144.25L285.75 142.45L290.05 141.15L291.05 140.45L292.85 139.05L294.75 135.35L296.05 131.15L294.75 129.05L292.55 127.55L291.15 124.25V120.25L283.15 112.55L276.25 112.75L270.05 112.95L269.35 111.45L268.35 108.95L267.15 106.95L265.75 104.55L264.15 103.05V100.75L263.55 97.25L262.15 91.95L260.15 77.85L260.65 75.45L262.45 75.15L269.95 77.85L272.35 77.35L274.35 76.35L276.05 76.05L277.95 77.25L278.55 79.25L278.85 82.45L278.65 85.65L277.95 87.85L277.85 91.95L282.05 95.45L287.25 97.65L290.55 97.85L288.05 95.15L280.15 89.55L282.45 83.45L283.15 79.85L282.55 77.25L281.25 74.55L281.15 73.15L281.05 71.15L281.65 67.65L283.05 64.95L282.05 63.65L280.75 63.85L280.15 64.25V63.85L281.65 59.95V59.65L281.75 58.35L281.85 57.25V56.65L281.75 55.65V54.15V53.15L282.05 52.35L282.35 51.55L282.45 50.95L282.15 49.85L281.75 47.95L280.75 45.15L282.55 44.95L286.05 43.65L287.15 42.75L287.75 42.55L288.35 42.25L288.65 42.15L290.45 41.95L292.45 42.15L293.65 41.95L294.45 41.15L295.75 39.15L297.55 36.95L299.35 35.15L299.85 34.65L302.15 32.55L303.45 30.95L304.25 29.75L304.35 29.55L305.25 27.75L305.75 25.65L305.85 24.45L305.95 24.05L306.45 22.45L306.75 21.75L307.45 20.45L307.75 19.95L309.15 18.65L310.15 18.05L312.65 16.15L314.85 14.25L315.35 13.85L315.55 13.75L316.85 13.05L318.85 11.95L319.25 11.75L319.85 11.05V10.65V10.45L319.65 10.05L318.55 8.45V7.75L318.95 4.55L319.25 3.65L319.55 2.55L320.05 1.95L320.45 1.25L320.65 1.15L321.45 0.849998L321.75 0.349998L321.85 0.25ZM339.45 112.75L340.75 107.95L340.65 103.75L339.25 99.95L338.35 94.45L335.95 90.45L331.15 90.05L326.85 91.05L324.15 93.95L322.25 98.05L319.15 102.05L313.05 102.65L312.25 105.35L312.05 108.25L309.15 110.05L305.95 111.15L301.65 108.45L297.85 108.25L295.75 112.55L298.95 116.55L301.65 120.35L302.35 125.25L305.05 127.05L309.05 128.25L313.05 133.45L318.85 133.65L321.25 133.25L323.65 131.85L327.05 130.85L330.45 130.05L331.95 133.65L335.95 131.65L339.85 130.75L343.35 128.65L344.65 126.35L346.95 123.25L345.85 121.95V118.95L347.85 117.55L349.75 116.55L350.15 114.05L349.15 111.55H346.35L343.15 112.75H339.45ZM278.95 65.05L278.65 65.25V64.65L278.95 65.05ZM228.15 69.65L230.85 69.55L233.35 69.95L234.65 71.35L233.75 74.45L231.35 76.55L228.35 76.75L222.65 75.45L221.45 75.95L219.95 76.75L218.55 76.85L218.05 74.95L218.35 74.35L219.95 69.65L221.55 68.05L223.45 67.55L225.65 68.05L228.15 69.65ZM236.55 88.05L238.25 89.35L239.55 90.85L239.75 92.45L238.35 94.35L235.65 94.45L226.45 87.35L227.55 86.25L228.15 84.85L228.95 81.65L229.35 80.85L230.05 79.95L230.75 79.25L231.55 79.05L232.05 79.35L232.35 79.95L232.55 80.65L233.05 83.75L233.15 84.35L233.85 85.45L234.65 86.45L236.55 88.05ZM257.05 104.85L255.95 104.95L255.15 104.55L253.75 103.05L252.75 102.45L251.95 102.65L251.45 103.25L250.95 103.55L243.75 103.95L241.15 102.75L238.35 99.05L242.55 97.95L243.55 97.25L244.65 95.45L244.55 94.65L243.75 94.05L243.05 93.15L238.25 83.95L237.95 82.55L238.45 80.65L238.25 72.55L238.85 70.75L240.15 70.25L243.35 66.45L245.85 65.85L247.95 67.45L250.05 69.85L252.05 71.75L256.45 73.95L258.15 75.65L258.85 78.45L258.75 79.85L258.05 82.15L257.85 83.15L258.15 84.35L259.45 86.65L259.75 87.85L260.15 94.05L259.75 95.45L260.45 96.45L261.25 98.25L261.65 99.05L259.85 100.05L258.35 103.65L257.05 104.85ZM16.35 39.05L17.85 40.85L17.65 43.45L15.75 44.75L13.15 43.25L9.65 43.55L8.95 43.85V45.65L10.35 46.35L11.95 46.65L12.65 47.25L9.85 49.45L4.35 48.65L0.25 45.15L1.65 39.05L5.05 40.25L12.55 37.65L16.35 39.05ZM201.75 167.85L200.75 168.35L200.15 168.15V167.55L200.65 164.75L201.35 162.45L202.35 161.05L203.45 161.85L204.45 163.45L205.35 164.25L208.75 166.05L209.75 167.15L209.15 168.15L207.45 169.95L206.25 170.45L204.65 170.75L203.35 170.15L202.45 168.55L202.05 167.65L201.75 167.85ZM253.75 159.15L255.15 160.05L255.75 162.15L255.15 162.85L253.65 163.35L253.15 164.45L253.05 165.45L251.85 166.85L250.25 167.25L249.25 166.45L248.15 166.55L247.25 166.05L246.95 163.85L247.15 161.65L248.35 160.15L250.65 158.85L253.75 159.15ZM271.45 163.15L271.75 163.95L272.05 165.45L271.35 166.95L264.45 172.55L261.25 172.95L261.35 172.05L262.75 170.05L262.95 168.85L262.35 167.95L264.15 165.85V163.85L263.45 161.35L262.45 159.55L261.45 158.45L261.75 158.15L264.05 159.15L265.95 157.55L266.35 157.65L265.95 159.15L266.55 160.45L268.15 161.35L270.65 162.45L271.45 163.15ZM145.95 90.75L147.35 90.95L148.35 91.95L147.95 93.75L146.65 95.05L145.85 95.45L145.45 94.55L144.65 92.35L144.85 90.95L145.95 90.75ZM14.15 61.95L15.25 62.55L15.45 63.65L14.85 65.15L14.35 66.95L13.85 68.45L12.85 68.95L11.75 68.85L10.85 69.15L10.15 69.95L9.85 70.05V69.55V69.35L9.45 68.55L8.35 67.15L8.75 65.75L11.05 63.95L12.45 62.45L13.15 61.85L14.15 61.95Z" fill="#6F9C76" stroke="white" stroke-width="0.5" stroke-linecap="round" stroke-linejoin="round"/>
</svg>
