<svg width="341" height="345" viewBox="0 0 341 345" fill="none" xmlns="http://www.w3.org/2000/svg">
<path d="M333.25 343.85H331.95L327.45 342.75L323.05 344.75L313.65 341.25L315.15 337.25L314.75 333.45L313.55 329.25L313.15 324.55L315.05 320.05L316.45 315.75L315.35 314.55L314.25 313.45L314.75 309.55L304.85 308.85L301.95 307.15L298.85 305.85L297.55 302.75L296.55 299.15L292.05 296.95L289.25 292.75L288.65 287.25L289.65 283.05L291.95 281.35L294.55 280.35L298.45 281.95L301.65 279.55L300.35 275.65L296.15 273.05L291.45 271.95L287.85 273.95L284.25 274.85L279.25 272.55L273.95 271.65L272.15 272.35L270.65 272.15L269.55 270.65L267.85 269.95L264.05 272.95L259.95 274.55L259.65 271.55L259.95 268.65L257.65 267.45L255.05 266.85L253.15 263.45L249.45 263.15L245.75 264.95L243.25 267.95L244.15 272.15L243.75 276.05L242.95 279.65L239.45 279.35L235.45 278.45L232.05 277.05L228.55 275.15L225.85 273.45L223.15 272.25L219.65 271.85L216.15 271.15L212.55 268.85L209.35 266.35L206.15 266.45L202.85 267.45L199.95 267.95L197.45 268.15L196.45 265.95L193.75 263.15L194.05 260.65L192.65 259.25L186.25 259.95L182.15 261.35L180.85 261.95L179.65 261.85L177.75 260.85L176.25 259.15L178.55 255.55L182.45 252.75L184.05 249.15L181.65 248.45L173.85 247.25L166.35 244.55L163.15 246.95L160.55 248.35L157.25 247.65L154.55 249.75L150.05 252.25L145.55 253.35L143.85 250.95V247.35L138.75 241.85L131.85 244.25L129.25 247.35L130.05 255.65L127.25 257.55L126.35 258.65L125.25 259.55L124.15 258.95L122.95 258.25L118.85 257.95L114.75 258.95L115.85 250.75L101.45 252.75L87.15 256.65L94.45 243.05L100.55 228.25L108.85 210.35L109.95 206.55L109.15 202.65L110.95 199.55L113.45 196.55L116.15 195.45L117.55 192.35L115.95 189.75L113.95 188.05L110.75 187.65L107.45 186.35L102.85 185.75L95.25 181.55L91.85 180.15L88.45 177.95L84.65 177.35L81.05 178.45L78.05 175.95L78.25 173.15L79.65 170.25L80.25 166.85V163.45L76.75 164.55L75.05 162.45L79.05 157.85L78.35 154.75L77.25 151.65L78.05 149.35V146.55L77.75 143.85L84.65 138.75L87.45 137.85L88.95 135.45L89.65 128.55L86.45 123.55L83.85 123.05L81.35 121.85L79.45 116.85L76.45 116.65L73.25 116.85L69.75 114.35L68.05 109.75L67.35 101.65L66.05 97.55L65.15 96.85L64.15 96.95L63.35 97.65L62.45 97.85L60.15 96.15L54.55 98.15L49.35 96.95L47.25 95.65L45.05 93.65V90.45L46.05 87.35L46.85 86.25L47.35 85.05L46.45 84.35L45.35 84.05L44.25 84.25L43.25 85.05L41.45 87.35L39.45 89.45L36.45 89.95L33.65 88.05L33.15 86.35L32.95 84.65L31.95 84.05L30.95 85.15L30.65 86.95L30.55 92.65L28.85 95.35L23.85 93.05L19.25 88.85L17.65 87.25L16.05 87.45L14.55 85.25L13.55 82.45L12.35 80.95L10.85 79.75L9.75 77.05L7.75 75.75L2.95001 72.65L0.25 71.35L1.05002 70.35L8.45001 64.25L17.15 58.85L19.65 57.75L25.15 55.55L26.15 55.15L32.25 54.45L34.95 54.15L39.25 54.65L47.65 53.85L49.15 53.75L55.95 53.15L68.85 57.05L72.45 56.75L72.95 56.65L73.35 56.55L80.85 54.25L96.55 52.95L98.15 52.75L107.05 51.95L108.15 52.75L109.85 55.25L111.55 56.95L113.45 57.45L122.35 55.55L136.55 56.35L145.85 55.65L146.35 55.45L153.85 52.75L155.15 52.35L156.85 51.25L163.75 46.65L171.05 39.15L174.15 34.65L176.75 29.85L178.55 24.45L179.15 18.35L177.95 12.35L177.65 9.35L178.55 7.15L182.25 4.15L189.75 0.25H189.85L193.95 8.25L200.25 20.75L201.55 26.25L204.75 34.55L216.75 58.25L226.05 83.15L227.55 85.85L232.45 91.85L234.35 96.95L256.85 129.25L265.65 142.05L276.15 153.75L277.65 154.95L284.75 163.25L285.05 166.75V170.95L285.95 174.45L290.75 177.15L292.15 180.05L296.05 192.95L297.85 195.95L299.95 197.25L301.75 199.05L307.95 211.15L311.65 215.85L312.95 218.45L313.35 221.15L314.35 223.75L320.85 230.95L322.95 236.85L324.85 249.75L327.35 256.85L334.35 266.55L334.85 268.55L334.05 270.55L332.75 272.45L332.05 274.25L331.95 275.95L332.95 281.25L334.15 296.35L335.35 303.35L339.85 317.65L340.25 324.65L338.85 331.05L335.75 336.95L333.25 343.85Z" fill="#6F9C76" stroke="white" stroke-width="0.5" stroke-linecap="round" stroke-linejoin="round"/>
</svg>
