<svg width="196" height="211" viewBox="0 0 196 211" fill="none" xmlns="http://www.w3.org/2000/svg">
<path d="M53.85 15.05L68.15 11.15L82.55 9.15L81.45 17.35L85.55 16.35L89.65 16.65L90.85 17.35L91.95 17.95L93.05 17.05L93.95 15.95L96.75 14.05L95.95 5.75001L98.55 2.65L105.45 0.250008L110.55 5.75001V9.35001L112.25 11.75L116.75 10.65L121.25 8.15L123.95 6.05L127.25 6.75001L129.85 5.35001L133.05 2.94999L140.55 5.65L148.35 6.85001L150.75 7.55L149.15 11.15L145.25 13.95L142.95 17.55L144.45 19.25L146.35 20.25L147.55 20.35L148.85 19.75L152.95 18.35L159.35 17.65L160.75 19.05L160.45 21.55L163.15 24.35L164.15 26.55L166.65 26.35L169.55 25.85L172.85 24.85L176.05 24.75L179.25 27.25L182.85 29.55L186.35 30.25L189.85 30.65L192.55 31.85L195.25 33.55L193.65 35.45L191.75 36.55L190.15 35.95L188.85 36.75L185.75 40.05L182.25 42.95L180.05 45.15L177.25 46.05L175.55 47.45L174.35 49.55L170.15 52.55L167.15 56.85L165.75 60.05L164.05 63.15L164.95 64.85L166.75 66.55L164.75 73.15L153.45 77.95L148.65 76.35L146.55 72.25L143.35 69.45L141.15 67.85L139.35 65.85L137.65 67.65L136.15 69.85L135.55 72.55L134.55 75.25L130.65 74.95L126.45 73.55L124.25 72.15L121.95 73.55L119.75 76.55L117.05 76.85L114.85 75.35L113.25 78.15L111.55 81.85L110.65 85.35L113.25 88.65L115.15 92.45L105.55 90.95L100.45 88.75L97.45 93.15L92.75 95.35L88.55 98.25L88.15 100.25L88.25 101.85L87.45 103.55L84.45 107.65L82.45 109.75L80.45 110.15L78.45 111.05L80.05 114.85L85.35 115.75L91.95 125.45L89.45 127.85L88.15 131.75L87.55 140.85L86.75 144.95L87.65 147.85L89.15 150.55L87.15 154.35L84.15 156.95L85.05 164.95L90.45 163.65L93.75 164.75L97.55 167.95L100.25 169.25L107.15 167.55L110.15 169.85L111.75 178.55L108.85 178.35L105.65 177.75L102.35 180.65L103.05 185.15L103.15 187.45L102.85 190.15L101.55 191.75L100.45 193.65L99.35 197.95L97.25 202.05L93.85 203.15L90.55 204.85L88.75 206.65L87.05 208.25L85.05 207.15L83.05 205.25L78.05 207.55L73.75 210.15L71.55 209.55L70.25 207.95L64.25 205.95L62.15 203.55L59.85 202.25L59.05 203.45L57.95 203.65L56.65 202.45L55.45 201.05L52.35 196.25L49.65 191.35L48.45 185.65L48.65 179.85L47.25 174.85L43.05 172.25L39.05 170.95L34.65 171.85L34.35 167.05L34.55 162.45L36.15 155.95L39.25 150.45L40.45 147.55L41.85 145.05L44.05 143.45L44.65 140.45L42.85 139.95L40.95 139.05L38.75 140.75L36.95 143.15L35.55 138.65L35.25 135.65L33.65 134.75L33.85 132.85L31.95 132.35L30.35 134.65L26.05 135.65L21.95 134.45L22.45 131.55L21.65 129.65L20.45 129.05L19.55 128.05L19.05 126.75L19.35 125.55L19.95 123.85L20.15 122.15L20.05 121.25L19.95 120.35L19.45 119.35L19.75 118.05L20.45 116.45L20.55 114.65L10.25 113.95L0.25 115.95L0.849976 110.75L2.54999 105.95L2.34998 103.05L4.94998 97.35L8.75 91.85L11.55 86.95L12.75 85.65L14.05 85.85L15.25 85.55L15.95 84.25L16.15 82.75L16.55 80.95L17.25 79.15L17.55 77.25L17.25 75.35L16.35 73.65L15.25 72.55L15.35 69.15L13.55 67.85L11.25 63.15L9.44998 62.15L7.84998 60.45L6.75 57.95L12.85 56.15L18.65 53.35L23.15 51.85L24.35 46.85L26.55 44.45L30.05 42.95L31.65 40.85L32.85 37.95L34.95 35.75L37.55 36.35L38.35 37.35L41.75 34.95L48.25 22.85L48.85 21.45L49.65 20.15L50.75 19.25L51.75 18.55L52.85 16.85L53.85 15.05Z" fill="#6F9C76" stroke="white" stroke-width="0.5" stroke-linecap="round" stroke-linejoin="round"/>
</svg>
