<svg width="203" height="182" viewBox="0 0 203 182" fill="none" xmlns="http://www.w3.org/2000/svg">
<path d="M37.85 101.25L38.85 104.35L40.65 107.15L41.45 109.75L40.15 109.15L34.15 109.55L32.15 109.25L31.85 106.65L32.45 105.85L33.55 104.85L34.05 103.35L30.85 105.35L29.35 104.65L29.75 102.15L32.15 98.75L31.25 97.75L29.45 99.95L28.75 98.35L27.35 99.15L28.05 95.15L27.55 88.95L26.95 85.15L25.55 80.45L26.75 78.95L29.15 76.75L31.75 75.85L33.55 78.75L33.75 79.75L33.15 80.95L32.15 81.85L32.25 82.95L34.55 88.15L34.95 89.85L34.35 91.15L35.05 92.35L36.55 93.35L37.75 95.45H34.95V96.45L35.85 96.65L37.75 97.75L37.55 98.75L37.45 99.65L37.85 101.25ZM113.25 25.75L119.65 27.05H124.95L136.15 22.25L142.05 24.95L147.25 29.35L153.65 30.25L154.75 32.75L156.35 34.45L158.15 35.45L160.45 40.15L162.25 41.45L162.15 44.85L163.25 45.95L164.15 47.65L164.45 49.55L164.15 51.45L163.45 53.25L163.05 55.05L162.85 56.55L162.15 57.85L160.95 58.15L159.65 57.95L158.45 59.25L155.65 64.15L151.85 69.65L132.55 61.95L129.45 70.65L129.85 96.25L127.75 98.25L126.55 101.75L138.85 104.15L148.15 101.65L155.35 113.05L157.85 117.85L158.55 130.05L161.35 139.15L168.05 137.45L173.95 133.05L175.85 132.35L179.45 129.55L181.35 122.25L183.15 119.35L183.85 115.45L185.65 113.05L187.85 111.35L189.75 112.25L191.55 112.75L190.95 115.75L188.75 117.35L187.35 119.85L186.15 122.75L183.05 128.25L181.45 134.75L181.25 139.35L181.55 144.15L185.95 143.25L189.95 144.55L194.15 147.15L195.55 152.15L195.35 157.95L196.55 163.65L199.25 168.55L202.35 173.35L199.15 176.65L195.85 179.55L191.85 180.65L187.85 180.85L184.95 181.55L177.05 180.55L176.55 179.15L177.45 177.25L176.65 175.55L174.95 175.15L170.45 172.85L164.35 161.85L159.95 158.05L157.75 160.35L155.95 163.15L153.05 163.75L151.15 164.65L149.15 165.35L141.75 166.75L137.95 168.25L133.95 168.95L131.05 164.45L132.25 157.05L127.25 156.05L113.15 160.55L105.55 162.15L99.05 162.85L92.95 170.45L90.15 171.25L87.45 173.15L85.15 175.35L82.65 176.55L79.55 177.05L76.75 178.35L74.65 177.35L73.95 176.15L73.75 174.65L73.05 172.55L71.95 170.75L69.65 167.75L68.45 165.65L70.35 164.15L69.45 163.05L67.55 162.35L65.85 161.75L62.75 156.35L60.45 155.35L58.55 156.45L57.75 156.35L57.65 154.55L54.65 152.55L51.95 153.05L51.15 156.15L50.65 157.25L49.75 156.35L50.35 151.45L54.95 149.15L58.95 147.85L64.65 149.55L62.65 146.15L61.55 144.85L60.05 143.75L59.05 143.55L58.05 144.25L57.25 143.75L56.25 142.65L55.35 141.45L58.25 133.65L59.85 130.15L61.85 128.85L60.35 127.05L54.55 125.25L52.55 124.15L54.55 122.25L60.55 120.75L61.85 119.05L60.95 116.85L58.85 116.25H54.35L53.45 115.55L51.85 113.65L50.75 112.65V111.55H52.55L50.45 107.75L52.95 106.35L55.75 105.55L58.35 101.75L63.95 100.15L66.55 98.75H58.65L56.75 99.85L53.85 104.25L51.65 104.65L50.35 102.95L49.15 99.85L48.35 96.65L48.45 94.75L51.25 91.45L52.55 89.45L52.15 88.55L49.55 89.45L48.35 88.35L47.25 87.65L46.65 87.45L46.05 85.95L46.55 84.55L46.45 82.95L45.85 80.05L44.95 78.85V78.15L46.75 78.05L49.45 76.75L52.35 76.85L52.55 74.85L53.35 72.95L52.25 71.55L50.65 71.15L48.45 69.05L49.85 67.05L51.75 65.55L50.45 63.15L47.25 62.55L46.55 59.75L47.55 57.65L50.75 57.15L48.95 55.05L48.35 54.05L47.85 52.55L46.75 53.55L44.85 55.65L42.65 56.55L42.25 57.75L42.35 58.95L43.25 60.35L43.45 63.25L42.45 66.55L43.05 70.95L41.65 74.75L40.35 76.25L37.85 74.35L35.25 74.25L32.65 72.45L33.25 63.35L34.15 60.05L32.55 59.35L33.05 55.05L31.55 53.25L29.35 53.65L28.15 55.85L27.85 58.55L26.85 60.55L23.75 60.65L25.05 63.25L27.45 67.15L28.35 69.95L26.85 71.25L27.05 72.65L29.35 75.75L27.35 76.15L25.55 77.15L24.05 78.55L22.85 80.35L22.95 79.05L22.75 77.85L22.45 76.65L21.95 75.75L23.85 71.55L19.85 65.05L21.05 61.75L20.05 57.15L17.55 58.55L13.95 63.05L11.35 64.05L9.75 64.35L8.35001 64.95L6.95001 65.05L5.35001 64.05L4.95001 63.25L4.35001 61.75L4.15002 60.15L4.85001 59.45L10.45 59.55L11.85 58.55L11.75 55.95L10.35 53.35L8.25 52.35L6.05002 51.65L4.35001 50.25L3.65002 52.25L3.25 56.45L2.45001 58.45L0.850006 59.85L0.350006 58.45L0.550018 54.25L0.25 50.15L0.650024 48.95L4.05002 44.55L4.75 43.05L5.35001 40.85L5.75 42.55L6.35001 43.95L7.05002 45.35L8.05002 46.75L8.75 46.05L9.65002 46.15L10.65 46.45L11.75 46.75L10.35 44.75L8.95001 42.15L12.75 43.25L14.35 42.85L15.45 40.85L11.95 40.65L9.85001 39.65L9.55002 37.55L11.75 33.95L8.75 31.35L8.95001 29.05L11.25 27.15L14.55 25.95L13.75 30.05L14.05 31.25L15.95 31.65L19.25 31.55L20.15 30.95L21.05 29.35L21.35 25.55L20.95 20.45L21.55 16.25L24.75 15.25L24.35 17.65L24.45 21.35L25.05 25.05L26.75 29.45L25.85 31.05L24.55 32.45L23.75 33.95V35.45L24.65 37.95L24.75 38.65L24.05 39.45L21.55 41.05L21.05 41.45L21.15 42.95L21.65 44.55L22.35 45.45L23.35 44.95L25.65 42.85L27.35 42.75L31.25 45.45L28.45 39.45L27.45 35.65L28.85 33.95L31.05 36.75L32.35 37.55L33.05 35.75L33.55 35.15L35.05 34.65L37.75 33.95V32.85L36.65 32.75L34.05 31.65V30.55L37.25 29.75L39.25 26.65L39.75 22.85L38.65 20.05L37.45 19.65L33.95 19.55L32.15 18.85L30.85 17.25L30.45 15.75L31.05 15.15L33.05 16.55L33.95 13.95L32.95 12.35L30.85 11.75L28.35 11.95L29.35 10.65L30.75 9.65002L32.15 9.45001L33.55 10.15L34.85 11.15L35.95 11.45L36.45 10.85L35.85 9.65002V8.35001L40.85 8.25L43.25 9.05002L44.25 11.35L43.55 12.75L42.25 14.25L41.45 16.15L42.35 18.85L43.55 17.65L45.05 16.85H46.35L46.95 18.25L47.15 19.45L47.75 20.55L47.85 21.75L47.65 22.15L46.45 23.65L46.05 24.65V32.25L46.45 34.45L47.45 35.95L48.45 36.55L48.95 35.75L49.45 31.55L51.95 23.45L52.55 19.45L53.25 18.55L54.85 19.65L57.25 22.25L58.25 24.05L58.85 25.75L59.95 26.85L61.85 26.95V25.95L60.85 24.65L59.75 21.15L58.65 19.45L50.35 10.65L49.75 10.15L50.25 8.35001L51.35 8.55002L52.75 9.85001L54.95 12.55L56.05 13.65L57.45 14.25H59.15L60.45 13.45L60.55 12.35L59.65 11.25L57.75 10.75L55.15 9.55002L52.35 6.85001L51.05 2.95001L50.75 0.350006L53.25 0.25L55.45 1.35001L57.35 3.05002L60.05 4.95001L62.65 6.75L63.75 7.85001L65.75 9.25L67.75 10.35L69.15 12.65L68.45 14.95L67.15 16.55L67.45 17.75L68.75 20.25L68.95 21.85L68.45 24.65L69.95 23.65L70.55 22.35L70.85 20.95L70.35 16.85L70.95 15.45L71.75 13.95L73.05 11.65L75.25 10.55H77.35L79.75 10.85L82.35 11.85L85.65 12.65L87.95 14.25L90.85 17.15L91.05 20.85L88.85 28.15L90.55 27.05L93.05 23.75L94.45 23.55L95.45 24.95L95.95 27.45L96.25 32.25L96.15 33.25L95.55 35.55L95.35 36.95L95.65 38.35L96.85 40.35L97.95 45.65L97.65 47.15L95.35 47.75L95.75 49.25L96.35 50.15L97.05 50.85L98.25 51.35L99.05 47.55L100.35 45.35L101.05 42.95L99.95 38.65L102.65 39.45L105.55 39.85L100.85 34.65L99.45 31.75L102.25 30.55L104.75 30.15L110.65 27.75L113.25 25.75Z" fill="#6F9C76" stroke="white" stroke-width="0.5" stroke-linecap="round" stroke-linejoin="round"/>
</svg>
