<svg width="227" height="144" viewBox="0 0 227 144" fill="none" xmlns="http://www.w3.org/2000/svg">
<path d="M76.35 14.65L82.45 7.04999L88.95 6.35001L96.55 4.75L110.65 0.25L115.65 1.25L114.45 8.64999L117.35 13.15L121.35 12.45L125.15 10.95L132.55 9.54999L134.55 8.85001L136.45 7.94998L139.35 7.35001L141.15 4.54999L143.35 2.25L147.75 6.04999L153.85 17.05L158.35 19.35L160.05 19.75L160.85 21.45L159.95 23.35L160.45 24.75L168.35 25.75L171.25 25.05L175.25 24.85L179.25 23.75L182.55 20.85L185.75 17.55L186.95 18.95L188.25 20.15L189.35 19.95L190.15 18.75L192.45 20.05L194.55 22.45L200.55 24.45L201.85 26.05L204.05 26.65L208.35 24.05L213.35 21.75L215.35 23.65L217.35 24.75L219.05 23.15L220.85 21.35L226.35 30.75L225.75 41.45L220.75 46.75L219.45 50.25L212.75 53.85L209.35 54.95L207.55 54.75L206.25 55.55L203.65 61.05L200.75 64.15L197.65 66.95L196.15 71.25L195.75 76.45L194.05 80.15L191.95 84.05L190.35 89.15L189.15 94.35L187.25 98.15L187.15 102.35L190.65 103.85L191.15 105.65L191.35 107.75L192.85 111.75L192.65 115.95L194.05 119.15L195.95 120.45L195.15 124.95L189.45 131.75L188.55 136.25L188.45 140.25L185.55 143.25L177.85 136.95L169.15 133.85L164.25 136.55L160.25 140.85L156.05 141.45H151.55L146.65 142.15L141.65 142.05L139.35 140.65L137.25 139.05L134.85 139.65H132.05L127.95 140.35L124.05 142.65L119.05 141.95L115.75 138.45L115.95 132.95L113.15 129.85L112.35 126.75L113.55 121.95L110.85 117.75L106.85 117.95L105.85 119.65L104.55 120.95L103.65 123.15L103.35 125.55L99.15 125.65L92.75 116.95L88.65 113.55L86.25 112.55L83.85 112.35L81.55 115.05L76.95 114.65L73.55 117.65V119.95L73.65 122.15L72.45 124.05L70.65 125.35L70.75 127.15L71.05 128.85L69.95 131.15L68.15 132.75L65.95 133.75L63.55 134.45L61.65 135.65L59.85 137.05L55.25 137.65L50.95 139.25L46.95 140.25L43.55 139.15L43.75 134.65L44.65 130.15L45.45 124.05L41.45 123.05L28.35 126.65L25.55 127.55V127.65L23.65 125.45L22.95 123.65L23.95 119.75L26.25 114.85L29.95 106.35L33.05 101.85L37.45 100.25L42.55 99.25L46.85 98.95L48.85 97.35L50.75 94.65L53.45 93.95L55.85 96.65L58.35 99.75L60.15 100.35L58.35 94.15L57.15 91.25L55.05 90.15L35.85 93.25L29.15 89.05L29.55 84.55L29.65 82.75L32.85 81.25L35.65 78.45L38.15 75.55L42.25 73.15L47.25 70.35L51.05 65.05L51.55 60.15L53.65 58.85L55.25 57.85L56.05 57.15L60.95 56.65L65.65 57.25L68.65 59.65L70.85 60.15L72.25 62.65L72.85 61.25L73.35 59.45L73.55 57.45L71.75 55.95L70.45 55.05L67.85 53.75L64.95 51.75L62.55 49.95L61.25 49.35L61.65 47.95L62.75 46.35L63.85 45.45L65.15 45.15L72.65 45.65L74.35 45.45L75.55 44.85L76.35 43.35L76.75 42.15L77.35 41.25L79.25 40.95L79.85 40.45L79.15 39.15L77.65 37.95L76.05 37.35L75.65 37.65L65.65 41.65L62.35 41.85L55.75 41.45L49.25 40.95V38.05L48.85 34.05L47.55 32.95L43.55 31.55L37.55 32.55L36.95 27.45L49.25 26.15L55.95 25.35L62.65 24.95L64.85 23.65L67.25 24.25L70.05 22.85L75.05 19.05L81.35 16.45L84.05 14.55L84.35 12.15L76.35 14.65ZM1.25 94.25L0.649994 93.65L0.25 92.55L0.450012 91.55L1.95001 90.75L1.75 90.45L1.05002 90.05L1.35001 89.65L2.14999 89.25L2.64999 88.55L3.45001 88.35L3.95001 88.15L3.75 87.25H4.25L5.85001 87.55L6.85001 86.75L7.35001 86.15L7.95001 86.65L8.25 87.65L7.75 88.85L5.25 91.05L3.55002 92.85L2.45001 93.75L2.05002 94.15L1.25 94.25Z" fill="#6F9C76" stroke="white" stroke-width="0.5" stroke-linecap="round" stroke-linejoin="round"/>
</svg>
