<svg width="371" height="241" viewBox="0 0 371 241" fill="none" xmlns="http://www.w3.org/2000/svg">
<path d="M182.95 15.55V15.45L185.75 14.55L198.85 10.95L202.85 11.95L202.05 18.05L201.15 22.55L200.95 27.05L204.35 28.15L208.35 27.15L212.65 25.55L217.25 24.95L219.05 23.55L220.95 22.35L223.35 21.65L225.55 20.65L227.35 19.05L228.45 16.75L228.15 15.05L228.05 13.25L229.85 11.95L231.05 10.05L230.95 7.84998V5.54999L234.35 2.54999L238.95 2.95001L241.25 0.25L243.65 0.450012L246.05 1.45001L250.15 4.84998L256.55 13.55L260.75 13.45L261.05 11.05L261.95 8.84998L263.25 7.54999L264.25 5.84998L268.25 5.64996L270.95 9.84998L269.75 14.65L270.55 17.75L273.35 20.85L273.15 26.35L276.45 29.85L281.45 30.55L285.35 28.25L289.45 27.55H292.25L294.65 26.95L296.75 28.55L299.05 29.95L304.05 30.05L308.95 29.35H313.45L317.65 28.75L321.65 24.45L326.55 21.75L335.25 24.85L342.95 31.15L342.25 34.75L345.05 38.05L346.35 42.25L346.95 51.05L348.75 54.35L352.15 56.85L355.15 59.95L356.35 63.45L357.75 66.55L366.25 75.75L368.05 80.25V83.35L368.35 84.05L367.45 83.85H361.95L360.15 83.55L359.45 82.75L359.15 81.45L358.35 79.85L356.75 78.65L356.35 79.85L356.65 81.85L356.95 82.75L355.95 85.75L355.35 86.85L354.15 88.25L349.05 92.35L346.15 93.65L344.15 91.95L341.55 86.65L339.45 85.85L337.95 87.95L337.25 91.25L337.35 94.05L338.65 96.95L340.75 100.75L343.15 104.05L345.35 105.45L346.85 107.35L348.25 108.05L349.95 107.05L354.15 103.05L357.05 102.65L359.55 103.15L361.85 103.25L364.45 101.95L364.25 105.15L363.85 107.55L362.45 112.15L360.95 120.45L359.75 122.35L355.05 123.95L351.25 122.05L348.25 121.35L345.75 126.85L344.95 126.35H344.75L344.55 126.65L343.85 126.85L344.95 128.95L345.75 131.35L346.75 138.65L346.15 140.05L344.75 139.25L342.45 136.95L339.25 136.55L336.85 135.25L335.25 132.75L334.65 129.05L335.45 125.55L337.25 122.15L338.45 118.95L337.85 116.15L336.75 114.55L334.65 109.95L334.05 109.55H333.25L332.45 109.45L331.85 108.65L331.75 107.85L331.95 106.85L332.35 106.25L330.35 101.85L329.95 100.25L330.15 99.35L330.75 97.65L330.85 96.85L330.55 95.95L329.95 95.15L329.25 94.95L328.95 95.65L328.55 96.05L326.25 101.95L325.35 103.15L324.85 103.55H324.15L319.55 105.25L316.85 105.55L310.95 105.45L308.75 106.05L310.55 107.55L314.05 109.05L316.95 109.95V110.95L311.15 112.75L308.25 114.45L307.75 116.65L308.95 117.65L311.45 116.65L312.85 117.15L313.75 118.75L313.55 119.35L312.75 119.55L312.45 119.95L314.25 126.55L318.25 130.05L322.45 132.75L325.35 136.95L323.95 136.75H321.55L320.55 136.95L326.35 139.15L327.15 141.05L327.55 144.45L326.25 145.65L324.85 146.85L322.25 146.75L320.55 147.15L314.35 143.35L312.45 142.65L310.65 143.05L308.45 144.05L306.65 145.35L305.85 146.65L306.15 147.15L307.75 150.55L309.65 150.95L310.85 151.75L315.95 150.35L318.75 152.75L312.35 158.65L310.05 161.95L307.55 160.75L303.65 163.75L304.05 166.65L305.85 168.55H302.05L296.55 161.25L294.65 157.25L289.55 151.75L287.95 152.15L282.65 154.95L283.15 156.65L283.55 157.25L281.35 156.55L279.25 156.15L277.35 155.15L276.15 152.75L275.95 150.35L276.85 148.95L279.85 147.15L280.85 146.35L283.55 142.65L285.25 139.15L286.15 137.95L288.15 136.95L288.05 139.65L287.35 142.35L285.35 147.15L289.35 146.95L292.65 145.65L294.65 142.95V138.05L293.85 136.15L292.75 135.05L291.95 133.85L291.85 131.35L292.55 130.05L296.45 125.65L297.95 126.45L298.85 127.45L299.05 128.75L298.35 130.25L299.15 132.45L300.35 133.95L301.85 134.45L303.95 133.65L304.85 132.55L306.75 128.55L307.75 126.85L305.85 124.05L305.15 121.05L304.15 119.75L301.65 121.75L298.65 123.05L296.25 120.95L292.85 115.55L290.95 118.55L288.25 125.65L286.35 127.95L284.35 128.75L282.75 128.65L279.35 127.95L277.75 128.55L276.25 129.85L273.75 133.15L272.65 134.05L267.75 136.95L265.05 138.95L263.35 139.95L261.65 140.45L260.65 140.95L260.45 142.35V144.15L260.25 146.05L259.35 147.45L258.05 148.85L257.45 150.65L258.45 152.75L250.95 160.15L251.25 166.95L249.95 168.05L246.35 166.25L245.15 167.75L244.55 169.35L244.65 171.05L245.45 173.05L243.65 172.45L239.85 169.75L234.65 168.25L233.45 167.45L232.45 164.35L232.95 156.05L232.45 152.75L233.15 150.75L233.05 148.15L232.15 145.95L230.55 144.85L229.15 145.25L227.65 146.65L226.55 148.45L226.05 149.95L226.65 152.25L227.45 154.25L227.55 155.65L223.35 157.05L223.85 159.05L226.95 162.85L221.75 165.95L219.75 167.75L221.75 168.55L222.25 168.85L222.35 169.65L222.25 170.45L221.75 170.85L220.95 170.65L219.65 169.95L219.05 169.75L217.25 170.05L216.85 170.75V171.95L216.15 173.65L215.15 174.35L211.05 175.35L209.55 176.65L209.05 177.65L205.75 188.75L205.45 190.35V192.25L202.15 191.55L195.95 193.65L194.35 193.25L194.15 191.35L195.45 187.45L195.15 185.55L193.95 184.45L192.25 184.15L188.65 184.35V183.25L189.45 182.35L189.65 181.65L189.95 179.15L190.35 179.05L190.95 179.25L191.55 178.85L193.45 175.35L193.85 173.65L193.35 171.95L192.65 171.45L191.65 171.05L189.65 170.85L188.15 170.45L187.95 169.55L188.35 168.75L188.65 168.55L188.75 166.45L189.25 164.35L189.05 163.25L186.85 164.05L187.45 160.05L190.15 158.05L193.75 157.35L197.15 157.25L196.55 156.05L195.65 155.05L194.65 154.35L193.35 153.95L195.45 152.45L196.75 150.65L196.85 149.15L195.15 148.15L194.55 148.45L193.35 149.95L192.45 150.55H191.35L189.65 149.45H188.65L187.85 150.15L187.25 151.25L186.85 152.75L185.65 153.05H184.45L183.15 152.75L180.25 152.85L178.65 153.15L176.65 153.95L176.45 151.25L175.25 149.75L172.05 148.15V147.65L171.35 146.35L170.55 145.55L170.15 146.65L169.75 147.25L168.85 147.75L167.75 148.05L166.85 147.65L164.05 144.95L163.65 144.85L163.25 143.15L163.45 142.65L164.05 142.45L164.55 141.55L165.05 142.35H166.45L167.45 141.55L166.85 139.85L163.25 138.05L160.45 136.05L160.15 131.25L161.35 125.95L162.75 122.35L162.95 121.05L162.85 119.55L163.05 118.25L164.15 117.75L165.15 117.85L166.25 118.15L166.95 118.65L167.85 120.65L172.05 126.85L170.75 128.55L170.35 130.15L170.55 131.85L171.05 133.65L173.85 141.55L175.55 142.55L182.25 143.65L185.15 145.65L186.65 145.55L187.75 142.65L186.25 142.95L185.45 142.55L182.65 141.85L181.35 139.85L179.65 138.15L180.05 134.35L178.25 134.65L177.45 136.95L176.05 137.15L175.15 134.05L174.75 129.95L175.75 127.55L174.95 124.65L178.75 124.35L184.35 125.55L185.15 126.85L184.75 129.05L184.85 129.65L184.75 130.35L185.05 131.35L186.45 132.25L187.35 133.35L189.05 134.55L191.55 135.45L192.95 136.85L194.85 138.25L196.25 139.15L196.85 138.45L194.05 134.75L195.75 134.35L198.25 135.75L201.45 137.55L205.35 138.85L208.25 138.05L205.35 137.55L203.05 136.15L198.95 132.55L199.95 131.35L197.05 129.15L192.55 123.45L190.15 122.35L186.75 121.65L182.75 121.85L179.95 120.15L176.55 121.05L173.45 119.95L173.05 118.45L174.95 115.95L176.85 115.25L180.85 115.85L186.05 113.55L192.25 118.15L194.35 117.75L194.85 118.05L195.15 118.45L195.55 118.65L196.15 118.95L195.55 115.75L195.85 112.85L197.45 110.75L200.85 109.95L207.05 111.75L210.15 112.05L209.25 109.95L211.35 108.85L212.45 108.65H213.85L211.85 106.35L208.75 105.85L201.75 106.45L202.25 104.85L202.05 103.75L201.75 102.65V100.95L202.25 99.85L202.95 99.05L203.55 97.95V96.25L202.45 93.85L200.65 93.25L198.65 94.25L197.15 96.25L196.95 97.65L197.85 100.45L198.05 101.95L197.85 102.15L196.15 105.45L194.65 111.05L193.25 112.95L190.55 113.15V112.85L189.75 112.15L190.25 111.25L190.95 109.55L191.55 108.65L189.75 107.75L188.45 108.35L187.25 109.35L185.55 109.95L181.85 109.15L180.75 109.65L180.55 111.35H178.65L175.75 112.25L174.35 111.55L173.85 109.85L174.85 108.15L177.55 105.45L178.55 103.85L179.15 102.65L179.35 101.55L179.45 100.25L179.05 97.85L179.55 96.55L181.25 95.05L179.65 93.75L178.15 90.95L177.35 87.75L177.55 84.95L179.45 83.25L182.05 81.55L182.85 80.05L179.45 79.25L177.85 79.55L176.95 80.35L176.25 81.15L175.25 81.55L173.95 82.15L174.15 83.85L174.75 85.65L174.85 87.25L172.95 88.95L170.45 89.15L168.15 88.35L166.45 87.25L167.65 86.35L168.25 86.15L167.05 85.25L166.05 84.25L165.25 83.05L164.55 81.55L166.15 80.75H167.65L171.05 81.55L170.65 77.95L174.35 74.15L173.35 70.75L169.55 65.35L167.15 63.15L164.55 62.25L165.65 66.05L164.65 68.15L162.75 68.25L160.85 65.65L162.15 63.95L158.65 59.25L158.15 56.55L160.05 54.25L162.85 53.85L165.35 55.15L166.45 57.75L168.15 56.65L169.05 54.75L170.15 50.95L171.15 52.85L171.35 54.45L170.95 57.55L170.35 59.05L170.15 60.05L170.45 61.05H170.95L171.65 60.75L172.05 61.05L172.55 63.25L172.75 64.15L173.15 64.75L174.85 65.65L176.15 66.15L178.45 66.25L179.45 66.85L178.65 68.75L178.85 70.55L179.85 72.25L181.25 73.75L184.75 65.95L185.05 63.35V60.35L184.35 59.35L181.75 58.65L180.75 58.05L179.85 57.15L178.45 53.45L173.95 48.25L172.95 45.85L173.25 45.05L173.85 44.35L174.55 43.45L174.85 41.95L173.35 40.85L172.65 39.55L172.95 37.25L171.25 37.95L169.45 38.25L165.55 38.35L167.05 36.45L169.55 35.85L172.35 35.75L174.85 35.15L174.05 34.75L173.55 34.45L173.05 34.05L172.05 33.85L172.65 32.35L173.45 31.45L174.35 30.85L175.25 29.85L175.75 28.65L175.45 27.55L175.05 26.45L174.85 25.35L175.25 22.75L176.45 20.15L179.45 15.65L180.25 16.45L182.25 19.05L184.65 19.75L185.85 19.65L185.55 18.45L182.95 15.55ZM257.25 37.35L250.25 34.75L246.55 35.85L243.05 36.65L238.15 35.45L235.25 38.15L238.95 46.35L246.35 50.75L254.65 52.15L260.05 44.95L257.25 37.35ZM282.75 162.15L286.95 161.65L289.15 161.85L290.95 162.75L292.45 165.35L292.05 168.45L290.25 170.95L287.75 171.95L282.15 173.05L279.95 172.65L278.35 171.95L275.15 169.75V168.55L275.85 167.65L276.05 166.85L275.45 166.15L274.25 165.25L276.15 163.85L278.25 162.95L282.75 162.15ZM175.15 159.75L175.45 161.95L175.05 164.55L174.35 166.95L171.65 172.65L170.55 174.45L169.25 175.35L168.95 174.85L166.65 172.65L165.55 171.95V173.05L165.05 175.65L152.15 182.65L150.55 183.25L144.85 183.75L143.25 183.25L143.05 181.85L143.75 180.65L144.75 179.65L145.15 178.85L144.45 177.85L140.55 175.35V178.85L137.65 175.45L139.35 169.95L143.25 165.55L147.05 165.25L148.25 161.65L149.05 160.45L150.25 159.05L151.75 158.25L153.05 157.95L154.05 157.25L154.35 154.95L155.95 156.85L158.15 157.15L160.05 155.85L160.85 153.35L159.85 151.25L156.35 148.55L157.25 147.15L159.45 147.05L161.65 148.25L163.65 149.75L165.05 150.55L165.45 151.05L165.85 152.05L166.45 153.15L167.35 153.95L167.95 153.75L171.05 151.75L171.15 153.15L175.15 159.75ZM365.25 129.05L366.65 129.45L367.95 131.45L368.85 133.85L370.05 137.95L370.15 140.35L369.75 142.65L368.75 144.95L367.45 146.35L365.85 146.45L364.35 145.65L359.55 140.75L359.05 138.85L359.85 135.85L360.45 135.05L362.95 133.15L363.45 132.15L364.45 127.95L362.35 125.75L362.65 124.45L364.15 123.75L365.75 123.55L367.25 124.15L367.65 125.75L366.95 127.55L365.25 129.05ZM122.15 124.35L123.85 125.85L124.25 126.45L124.35 127.75L124.15 129.05L123.55 130.25L121.45 133.05L120.55 133.75L119.55 133.85L118.25 133.65L118.15 133.15L116.25 132.05L114.15 131.05L113.55 131.35L112.25 128.55L113.25 127.25L117.25 125.65L119.65 122.35L120.55 121.85L121.05 122.25L122.15 124.35ZM124.65 113.15V116.65L124.05 116.35L122.55 115.95L121.85 115.55L120.65 117.15H118.85L117.15 116.75L116.35 117.15L116.05 119.45L115.35 121.35L114.15 122.85L112.55 123.55L110.95 123.35L109.85 122.25L109.15 120.45L108.85 118.35L109.25 116.25L110.35 114.85L111.85 113.85L113.55 113.15L115.35 113.95L117.75 113.35L122.25 111.65L123.15 111.55L123.75 111.65L124.25 112.15L124.65 113.15ZM131.25 91.25L131.85 89.05L133.15 88.75L134.65 89.75L135.75 91.65L136.05 94.05L135.65 96.35L134.65 98.35L133.05 99.65L131.05 100.25L129.95 99.85L129.05 99.05L127.95 98.65L123.55 99.65H121.85V98.65L123.15 97.45L125.65 93.55L127.45 91.85L128.35 91.95L129.65 92.25H130.75L131.25 91.25ZM138.65 68.45L137.95 68.65L134.35 67.75L133.05 67.95L132.55 67.55L132.25 67.15L131.85 66.95L131.25 66.85L132.35 61.55L133.05 60.05L133.95 59.45L135.55 58.95L137.05 58.25L137.75 57.15L138.75 54.85L141.25 53.35L143.95 52.65L146.05 53.25L141.95 55.65L140.95 57.05L140.85 58.65L141.45 60.35L143.25 63.35L141.85 63.95L140.35 65.45L139.15 67.15L138.65 68.45ZM301.15 238.15L301.95 238.95L302.95 239.15L303.25 239.75L303.15 240.55L301.15 239.65L299.35 239.15L298.95 238.65L298.55 237.55L298.25 236.15L297.75 235.85L297.35 235.35L296.95 234.15L297.15 233.55V232.75L297.25 232.05L297.65 231.95L298.15 232.15L298.75 231.95L299.15 231.45H299.35L299.65 232.15L299.15 233.65L299.45 235.35L301.15 238.15ZM331.35 167.65L331.95 169.25V170.25L330.95 171.35L328.45 172.95L326.35 173.55L325.55 173.15L325.45 171.75L324.55 170.75L323.15 170.35L322.55 169.45L322.95 168.85L321.45 167.85L320.55 167.15L321.05 165.95L320.95 165.05L320.75 164.35L321.35 163.95L322.35 164.35L323.35 164.95L325.25 165.45V165.85L325.95 165.65L327.15 164.45H328.35L331.35 167.65ZM365.35 158.35L366.25 158.85L366.85 159.75L366.55 160.75L364.85 161.35L363.75 161.45L363.55 161.15L363.05 160.45L361.85 159.75L359.85 159.15L358.55 158.05L357.95 156.65L357.25 155.65L356.15 155.05L355.15 153.85L355.85 152.45L358.15 151.45L360.65 151.05L362.45 152.35L364.45 156.35L364.25 157.55L364.35 158.15L365.35 158.35ZM137.25 143.55L137.55 143.85L137.85 144.65L137.65 146.45L137.25 148.25L137.15 149.85L136.35 150.65L135.25 151.45L134.15 152.55L131.45 154.15L130.05 154.35L128.45 153.85L127.95 153.05L128.75 152.75H129.55L130.25 152.05L131.05 151.45L130.95 150.85L127.95 150.15L128.65 149.35L130.55 149.05L132.45 148.95L134.05 147.75L134.65 146.15L134.05 144.55L132.65 142.35L131.85 139.55L132.85 138.85L134.45 140.15L135.45 141.15L137.15 142.15L137.25 143.55ZM128.85 148.05L127.55 148.65L126.45 147.75L125.95 142.05L126.45 138.85L127.55 137.35L129.25 141.15L130.75 143.25L131.85 145.65L131.45 147.55L130.25 147.95L128.85 148.05ZM48.55 128.45L50.05 128.05L50.35 128.75L49.15 129.85L48.55 130.65L48.15 131.55L46.05 134.05L45.65 135.25L44.75 136.75L44.05 137.65L43.45 138.35L42.15 137.75L41.25 135.35L41.45 133.15L42.15 131.15L43.05 129.45L44.05 127.85L45.25 127.05L46.35 126.75L46.95 127.25L47.35 128.45H48.55ZM147.25 121.15L147.75 122.55V124.35L147.05 125.95L145.25 126.05L143.65 124.45L142.45 122.65H140.95L140.25 123.25L139.75 123.55L138.75 123.65L137.85 122.95L137.55 121.45L136.35 119.25L133.65 116.45L133.15 115.05L134.45 115.35H135.45L136.45 114.85L137.95 114.75L139.65 114.95L140.95 115.55L141.75 116.45L142.95 117.05L144.55 117.15L145.85 117.45L146.75 118.25L147.25 119.25L147.15 120.05L147.25 121.15ZM146.55 111.35L146.15 111.75L145.65 112.75L145.95 115.05L145.15 115.85L143.45 116.35L141.95 115.45L140.15 113.95L137.85 113.05L136.25 112.05L137.55 110.95L140.95 110.45L142.95 109.55L143.95 108.65L145.25 109.25L146.25 110.65L146.55 111.35ZM134.45 106.25L133.35 104.75L132.35 102.95L132.75 101.65L134.75 100.65L136.35 100.55L137.65 101.25H138.95L139.25 100.25L139.05 98.25L140.35 97.05H142.05L142.95 96.95L143.65 97.35L144.25 98.25L144.45 99.35L142.65 100.45L143.25 103.05L142.95 104.55L141.95 105.15H140.65L139.75 106.15L139.85 107.95L139.35 109.55L137.95 110.35L136.75 110.25L136.45 109.25V108.65L134.45 106.25ZM157.05 90.85L155.85 91.35L154.25 91.25L153.55 89.85L153.85 88.25L154.85 87.65H157.25L157.95 87.95L158.05 88.65L157.55 90.35L157.05 90.85ZM147.85 68.95L148.15 69.65L148.35 70.55L148.25 72.15L147.75 72.65L147.05 73.05L146.35 72.75L145.05 71.45L144.55 71.05L143.85 71.45L143.15 71.35L142.95 70.65L142.45 70.35H141.75L141.55 70.05L142.55 69.25L142.15 69.05L141.55 69.15L140.95 68.95L141.25 68.25L142.25 67.55L143.15 67.45L144.35 67.95L146.05 67.85L147.25 68.15L147.85 68.95ZM5.45 233.55L4.75 233.15L2.05 230.65L0.550003 229.75L0.25 228.45L0.949997 226.75L1.95 225.75L3.45 226.25L4.64999 227.75L6.55 231.75L6.75 233.05L6.25 233.85L5.75 233.75L5.45 233.55ZM204.85 213.85L206.05 214.35L207.15 215.75L206.85 216.55L206.25 216.05L205.85 215.95L205.55 216.55L205.05 216.35L203.85 215.65L202.55 215.75L201.85 216.45L201.35 217.35L199.85 218.35L198.45 219.55L196.45 220.75L193.85 220.65L192.45 218.75L192.35 216.25L193.55 213.85L195.95 212.15H197.95L200.65 213.85L201.45 213.95L202.55 213.65H204.15L204.85 213.85ZM214.75 216.35L215.35 216.65L215.75 217.45L215.35 217.95L214.75 218.05L214.55 219.05V220.75L213.85 221.95L212.55 222.35L211.85 221.95L211.65 221.15L210.95 220.65L210.25 220.55L209.95 218.35L210.85 214.55L211.15 212.45L210.25 211.55L209.95 210.85L211.05 209.75L211.15 209.25H212.35L214.65 210.35L214.95 211.95L213.65 213.15L213.45 214.35L214.75 216.35ZM246.95 209.15L248.25 210.25L249.05 211.25L248.75 213.25L248.35 214.15L247.55 215.65L245.95 216.55L243.95 216.75L242.45 215.95L241.25 214.85L240.35 214.95L239.85 215.75L239.35 215.45L238.75 212.95L239.65 211.25L239.85 209.65L240.35 208.45L241.35 207.55L243.25 206.55L245.55 207.15L246.95 209.15ZM206.65 205.75L207.25 206.55L207.35 207.95L206.35 208.75L205.95 210.65L203.95 210.75L202.85 210.95L203.55 212.15L202.85 212.75L200.75 212.15L199.65 211.15L199.45 210.55L198.85 210.35L198.25 210.15L198.05 209.65L198.75 207.65L199.15 206.95L199.25 206.45L198.95 206.05L199.05 205.65L199.55 205.45L199.85 205.05L199.75 204.65L199.15 203.45L199.55 203.05L200.65 203.45L201.65 203.95L204.45 204.45L205.95 205.25L206.65 205.75ZM135.65 191.05L135.55 192.85L135.75 194.05L135.15 194.95L133.85 195.15L133.05 195.75L132.45 195.55L131.95 194.65H131.45L131.25 195.45L130.35 195.55L127.55 194.45L126.65 193.05L126.55 192.15L127.05 191.35L127.15 190.55L128.15 189.85L132.85 190.85L134.75 190.55L135.65 191.05ZM239.45 190.95L238.85 191.55L237.65 191.75L236.95 190.85L236.65 189.55L235.95 188.55L234.95 188.15L233.55 188.35L231.95 188.95L230.65 188.85L230.05 188.65L229.55 188.25L226.55 186.95L226.35 186.45L227.75 186.25L229.15 185.85L229.75 185.45L230.25 185.25L231.25 185.45L232.55 185.95L234.05 185.35L235.85 183.85L237.25 183.55L238.05 184.15L239.05 184.35H239.55L240.15 184.25L241.65 184.35L243.55 184.85L244.75 185.55L244.55 186.75L243.75 187.65L243.55 188.25L243.35 189.35L242.55 190.35L241.35 190.15L240.15 190.35L239.45 190.95ZM271.65 184.95L272.15 185.35L272.35 186.15L271.55 186.35L270.45 185.75L269.05 185.45L268.05 185.85L268.45 186.25L269.25 186.75L268.25 187.75L265.85 189.55L264.55 190.25L264.35 188.75L265.05 187.75L265.95 187.15L265.45 186.55L262.45 185.95L262.85 185.25L262.55 184.45L261.65 183.85L259.35 183.65L258.45 183.35L258.05 183.05L258.45 182.75L259.45 182.55L260.15 182.05L261.45 180.55L262.75 179.45L262.65 178.95L263.15 179.15L264.05 180.05L264.95 181.35L265.45 182.85L266.55 183.35L268.35 182.75L269.75 182.55L270.35 183.15L270.85 183.95L271.65 184.95ZM227.25 190.85L227.55 191.85L228.25 193.65L227.85 194.15L227.15 194.05L226.45 193.85L225.25 193.25L224.25 192.65L223.65 192.75L223.55 193.75L222.85 194.05L221.65 193.55L219.65 193.05L217.05 192.15V191.05L218.35 190.15L217.95 188.95L216.85 188.65L215.45 188.95L213.65 188.45L212.05 187.45L211.05 186.25L210.65 184.45L210.55 182.45L210.65 180.35L211.25 178.25L212.25 176.75L213.75 176.05L214.55 175.85L216.95 175.55L218.45 176.05L219.95 177.05L221.55 178.95L222.75 182.15L223.15 184.75L223.55 185.95L224.35 186.95L224.75 188.35L227.25 190.85ZM227.05 178.75L226.35 178.65L225.75 178.05L226.25 177.05L226.95 176.15L227.85 174.05L229.75 171.55L232.45 170.05L235.25 169.35L236.95 169.65L237.55 170.65L237.65 171.75L236.95 172.45L237.05 172.85L238.35 173.65L239.35 174.75L240.25 176.15L240.45 177.15L239.45 177.25L236.65 176.45L235.45 176.75L234.75 177.75L231.25 179.35L229.95 181.05L229.55 182.85L228.85 183.35L227.95 182.35V180.65L227.65 179.15L227.05 178.75ZM169.85 99.45L172.45 100.35L172.75 103.85L170.05 106.35L168.55 105.75L169.45 104.75L169.85 103.85L169.55 103.15L165.75 101.15L165.15 100.85L161.15 101.45L159.35 102.35L157.35 102.65L155.75 102.05L154.95 101.05L155.65 100.15L157.85 100.05L160.55 99.05L161.05 98.35L161.55 97.95L161.65 97.25L163.35 96.75L163.95 95.65L164.05 94.45L162.95 93.05L162.55 91.35L163.95 90.65L166.35 91.15L168.75 92.45L170.45 94.15L170.25 95.15L169.15 95.25L167.05 96.65L166.75 97.45L166.85 98.35L167.05 99.15L167.95 99.45H169.85ZM155.45 69.15L155.65 68.35L154.75 68.05L151.25 67.55L150.55 66.85L149.35 66.75L148.75 66.55L148.15 66.05L147.35 65.65L146.65 64.75L145.15 61.35L146.05 60.05L147.75 59.45L149.35 60.05L150.55 60.85L151.75 60.45L153.05 59.85L153.85 60.25L154.15 60.95H154.85L155.65 60.65L156.05 61.75L155.05 62.75H153.85L153.25 63.45V64.25L154.75 65.85L156.05 66.35L157.45 66.45L158.25 67.65L158.65 69.15L159.35 70.05L159.55 71.35L159.05 72.95L158.55 73.35L158.15 72.85L156.65 72.45L155.95 71.65L155.45 70.65V69.15Z" fill="#6F9C76" stroke="white" stroke-width="0.5" stroke-linecap="round" stroke-linejoin="round"/>
</svg>
