<svg width="426" height="341" viewBox="0 0 426 341" fill="none" xmlns="http://www.w3.org/2000/svg">
<path d="M117.05 89.45L120.55 91.35L123.95 92.75L127.95 93.65L131.45 93.95L132.25 90.35L132.65 86.45L131.75 82.25L134.25 79.25L137.95 77.45L141.65 77.75L143.55 81.15L146.15 81.75L148.45 82.95L148.15 85.85L148.45 88.85L152.55 87.25L156.35 84.25L158.05 84.95L159.15 86.45L160.65 86.65L162.45 85.95L167.75 86.85L172.75 89.15L176.35 88.25L179.95 86.25L184.65 87.35L188.85 89.95L190.15 93.85L186.95 96.25L183.05 94.65L180.45 95.65L178.15 97.35L177.15 101.55L177.75 107.05L180.55 111.25L185.05 113.45L186.05 117.05L187.35 120.15L190.45 121.45L193.35 123.15L203.25 123.85L202.75 127.75L203.85 128.85L204.95 130.05L203.55 134.35L201.65 138.85L202.05 143.55L203.25 147.75L203.65 151.55L202.15 155.55L211.55 159.05L215.95 157.05L220.45 158.15H221.75L221.85 158.45L222.55 165.15L224.35 172.05L225.15 179.05L224.25 193.35L223.45 196.45L219.25 201.55L217.65 204.45L216.95 207.75L216.35 228.05L216.75 230.85L217.65 232.35L218.55 232.95L219.25 233.85L220.05 239.55L221.05 243.85L222.15 244.65L222.85 245.65L222.35 248.25L221.25 249.75L219.85 250.35L218.55 250.85L216.25 252.65L216.15 254.95L218.95 257.65L221.05 259.95L223.25 262.55L225.95 263.05L229.45 260.35L238.05 250.85L239.75 248.15L241.95 249.85L242.45 252.75L243.45 255.75L244.15 259.15L241.95 262.45L237.15 272.15L236.75 276.55L235.25 287.95L231.75 297.95L231.95 304.15L228.35 314.95L225.75 320.15L224.55 322.75L225.65 325.75L226.75 327.05H226.65L215.85 324.45L203.25 326.65L200.95 326.05L199.35 324.85L198.95 322.65V320.15L197.65 318.15L192.85 316.05L188.25 315.05L183.55 315.85L177.85 317.85L173.25 321.35L174.05 323.65L175.35 325.85L174.45 327.45L172.35 327.55L168.95 329.55L165.65 332.25L161.85 333.45L157.85 331.65L152.65 330.35L147.75 332.35L146.15 334.35L144.35 335.95L142.35 336.25L140.45 336.95L135.95 340.45L130.95 340.25L126.75 338.05L122.25 336.75L117.25 337.65L112.25 338.15L108.05 335.45L104.65 331.25L103.55 322.05L100.35 324.45L97.0501 329.25L93.3501 328.55L86.0501 332.25L82.2501 331.45L78.7501 328.85L75.0501 327.15L71.1501 326.45L67.0501 327.05L58.6501 326.65L56.5501 318.95L58.1501 315.25L58.2501 311.25L56.45 309.15L54.3501 307.85L53.95 306.45L53.1501 304.85L50.1501 302.75L48.3501 299.25L45.7501 296.45L42.2501 295.25L38.45 295.35L34.5501 295.05L32.3501 293.55L30.5501 292.05L26.45 291.75L25.3501 291.35L24.2501 290.85L23.7501 289.55L23.5501 288.15L22.3501 287.15L21.0501 286.15L18.3501 284.55L17.2501 280.85L17.8501 270.15L12.3501 260.75L15.6501 259.05L19.0501 257.95L21.1501 253.85L22.2501 249.55L23.3501 247.65L24.6501 246.05L24.95 243.35L24.8501 241.05L24.1501 236.55L27.45 233.65L30.6501 234.25L33.5501 234.45L31.95 225.75L28.95 223.45L22.0501 225.15L19.3501 223.85L15.5501 220.65L12.2501 219.55L6.85007 220.85L5.95007 212.85L8.95007 210.25L10.95 206.45L9.45004 203.75L8.55008 200.85L9.35007 196.75L9.95004 187.65L11.2501 183.75L13.7501 181.35L7.15005 171.65L1.85007 170.75L0.250061 166.95L2.25006 166.05L4.25006 165.65L6.25006 163.55L9.25006 159.45L10.0501 157.75L9.95004 156.15L10.3501 154.15L14.5501 151.25L19.2501 149.05L22.2501 144.65L27.3501 146.85L36.95 148.35L35.0501 144.55L32.45 141.25L33.3501 137.75L35.0501 134.05L36.6501 131.25L38.8501 132.75L41.5501 132.45L43.7501 129.45L46.0501 128.05L48.2501 129.45L52.45 130.85L56.3501 131.15L57.3501 128.45L57.95 125.75L59.45 123.55L61.1501 121.75L62.95 123.75L65.1501 125.35L68.3501 128.15L70.45 132.25L75.2501 133.85L86.5501 129.05L88.5501 122.45L86.7501 120.75L85.8501 119.05L87.5501 115.95L88.95 112.75L91.95 108.45L96.1501 105.45L97.3501 103.35L99.0501 101.95L101.85 101.05L104.05 98.85L107.55 95.95L110.65 92.65L111.95 91.85L113.55 92.45L115.45 91.35L117.05 89.45ZM129.45 287.25L131.55 285.05L132.25 282.45L132.15 279.55L131.95 276.95L130.45 275.65L129.35 274.05V269.85L129.95 268.65L130.05 267.35L128.35 264.35L122.85 260.35L115.75 260.85L107.15 262.05L100.75 267.35L101.55 274.95L99.2501 277.45L97.7501 280.75L99.0501 280.95L100.25 281.45L100.05 283.15L99.45 284.65L97.2501 285.05H95.2501L93.3501 287.65L94.1501 290.75L96.2501 291.55L98.2501 293.55L99.8501 296.65L102.25 298.55L103.95 299.65L105.15 300.75L106.25 299.85L108.15 296.45L110.05 294.95L114.45 295.35L122.25 297.35L125.35 295.55L125.75 293.95V292.95L127.05 289.55L127.15 288.15V287.05L128.45 286.95L129.45 287.25ZM422.55 0.25L424.85 2.05L424.75 6.35001L423.25 11.25L421.65 14.45L419.05 15.75L415.65 15.05L412.25 13.05L410.05 10.35L409.35 6.85001L410.45 4.25L412.95 2.65001L417.75 1.85001L420.95 0.650009L422.55 0.25Z" fill="#6F9C76" stroke="white" stroke-width="0.5" stroke-linecap="round" stroke-linejoin="round"/>
</svg>
