<svg width="226" height="213" viewBox="0 0 226 213" fill="none" xmlns="http://www.w3.org/2000/svg">
<path d="M0.950012 102.05L3.85001 99.05L3.95001 95.05L4.85001 90.55L10.55 83.75L11.35 79.25L9.45001 77.95L8.04999 74.75L8.25 70.55L6.75 66.55L6.54999 64.45L6.04999 62.65L2.54999 61.15L2.64999 56.95L4.54999 53.15L5.75 47.95L7.35001 42.85L9.45001 38.95L11.15 35.25L11.55 30.05L13.05 25.75L16.15 22.95L19.05 19.85L21.65 14.35L22.95 13.55L24.75 13.75L28.15 12.65L34.85 9.04999L36.15 5.54999L41.15 0.25L42.25 3.95001L44.95 5.54999L46.25 6.54999L47.45 7.54999L47.65 8.95001L48.15 10.25L49.25 10.75L50.35 11.15L54.45 11.45L56.25 12.95L58.45 14.45L62.35 14.75L66.15 14.65L69.65 15.85L72.25 18.65L74.05 22.15L77.05 24.25L77.85 25.85L78.25 27.25L80.35 28.55L82.15 30.65L82.05 34.65L80.45 38.35L82.55 46.05L90.95 46.45L95.05 45.85L98.95 46.55L102.65 48.25L106.15 50.85L109.95 51.65L117.25 47.95L120.95 48.65L124.25 43.85L127.45 41.45L128.55 50.65L131.95 54.85L136.15 57.55L141.15 57.05L146.15 56.15L150.65 57.45L154.85 59.65L159.85 59.85L164.35 56.35L166.25 55.65L168.25 55.35L170.05 53.75L171.65 51.75L176.55 49.75L181.75 51.05L185.75 52.85L189.55 51.65L190.15 58.25L186.75 65.05L188.75 69.15L197.15 70.45L200.65 73.15L206.45 79.85L213.45 83.75L216.55 86.15L217.45 90.75L220.45 93.65L224.25 95.05L224.85 95.55L224.25 97.75L223.95 100.75L223.15 102.35L222.25 103.75L223.05 106.05V106.95L221.55 110.05L219.35 114.65L216.95 117.55L215.65 120.25L215.45 120.75L215.15 120.15L212.45 117.35L209.95 114.25L206.85 111.65L204.45 108.35L203.65 104.65L201.05 102.95L197.55 102.85L194.35 104.15L191.85 106.05L189.85 108.45L188.45 118.25L186.55 121.15L184.45 123.75L183.35 125.75L182.75 125.15L181.45 127.05L177.35 134.35L175.45 134.45L175.35 131.05L175.45 127.95L174.55 127.75L173.35 130.45L172.45 134.35L169.05 133.95L160.15 134.15L159.65 131.05L158.75 129.45L157.45 134.05L156.15 134.75L152.95 133.35L151.45 130.55L149.85 130.35L147.75 131.95V124.75L147.25 124.15L146.05 124.55L145.05 126.15V128.65L142.85 126.95L141.15 124.55L139.35 123.05L136.55 124.15L137.15 121.85L136.05 118.45L136.55 117.25L135.25 112.85L134.45 112.45L132.85 113.85L131.25 116.45L131.15 118.25L132.85 121.85L133.85 126.25L134.45 127.75L135.55 129.75L137.85 132.85L138.15 134.35L137.55 136.55L138.55 136.75L140.25 137.45L141.25 137.75L140.05 138.55L138.85 138.85H136.05L134.65 138.45L134.25 137.65L134.15 136.55L133.75 135.45L132.45 134.05L131.45 133.35L124.15 130.75L122.15 130.65L117.65 131.45L116.45 132.05L116.55 133.25L118.05 135.45L115.55 135.95L110.95 138.35L105.55 139.75L104.85 141.85L104.65 144.15L103.15 145.65V146.75L116.75 139.55L118.95 139.35L119.45 142.35L120.25 144.45L120.55 146.35L119.45 148.55L117.75 149.55L115.05 149.95L112.45 149.85L110.65 149.15L109.75 150.75L110.35 151.55L111.65 152.25L112.55 153.65L112.65 154.45L112.75 155.75L112.55 159.15L111.55 165.95L112.75 167.15L113.95 166.75L114.85 165.45L115.35 163.75L117.15 165.95L115.25 169.35L111.85 173.85L108.85 174.75L104.75 174.45V171.95L107.45 171.85L108.55 171.65L109.25 170.55L100.75 169.65L99.05 168.95L97.05 166.25L96.85 164.85L98.25 163.95L101.35 162.75L98.25 156.55L96.05 158.75L93.75 163.05L90.65 163.25L87.75 159.45L86.25 158.45L83.25 158.15L81.85 158.95L81.05 160.95L80.85 163.55V165.95L78.05 165.45L71.75 165.75L69.25 164.35L68.95 163.45V161.05L68.75 160.45L68.15 160.25L66.65 160.55L64.65 160.05L61.45 159.75L60.35 159.15L59.75 157.85L59.85 156.55L60.15 155.35L60.35 154.25L60.15 141.95L60.35 139.95L60.75 139.05L61.45 137.85L62.05 136.25L62.25 134.25L60.15 136.75L58.35 139.75L56.25 141.95L52.95 142.25L55.45 148.05L53.75 149.25L50.05 149.15L46.55 151.35L45.15 147.45L44.25 145.75L42.75 144.65L42.35 149.95L40.95 154.15L38.05 156.65L34.45 157.05L33.05 156.45L31.75 156.15L30.65 156.25L29.85 157.05L27.75 155.35L26.35 154.95L26.05 154.25V151.15L24.25 146.65L15.75 137.45L14.35 134.35L13.15 130.85L10.15 127.75L6.75 125.25L4.95001 121.95L4.35001 113.15L3.04999 108.95L0.25 105.65L0.950012 102.05ZM62.25 178.45L62.95 180.35L62.55 181.95L61.85 183.75L61.45 185.85L61.75 189.25L61.65 191.25L60.85 192.05L59.85 192.65L60.95 196.05L60.45 197.75L58.35 198.15L56.35 196.95L54.15 195.95L51.65 197.15L49.45 197.45L48.15 194.25L46.55 187.55L44.35 186.35L42.55 187.65L41.35 190.35L40.95 193.85L40.15 195.25L38.15 195.35L36.15 194.65L34.95 193.85L34.05 192.35L33.85 191.15V189.65L33.55 187.55L29.85 175.35L29.35 172.45L29.65 169.55L31.25 166.55L32.25 165.85L33.35 165.65L34.15 165.05L34.75 161.45L35.55 160.35L37.75 158.65L39.55 157.75L41.65 158.45L43.35 160.05L44.45 162.15L44.25 164.25L43.05 166.35L40.05 169.55L40.55 170.65L41.25 173.55L41.95 175.05L43.15 175.85L46.05 176.85L47.65 179.75L50.25 179.35L53.65 178.05L56.75 177.35L61.35 178.15L62.25 178.45ZM154.35 169.55L154.15 171.45L153.55 173.55L152.35 174.75L150.55 173.95L151.25 176.15L153.05 179.95L153.35 182.45L152.35 182.85L149.95 182.05L147.45 180.75L145.85 179.55L145.45 181.95L145.05 183.15L142.65 185.85L141.95 188.05L143.55 189.25L145.75 190.25L146.85 191.45L144.75 193.35L134.95 196.35L131.95 196.55L136.65 193.25L134.75 192.35L133.95 190.85L134.05 188.85L134.75 186.45L130.55 188.65L129.35 187.75L128.75 185.85V183.95L129.65 183.05L133.05 182.35L133.95 180.55L134.05 177.95L134.75 175.05L132.95 173.95L131.55 175.65L126.65 177.85L124.55 179.55L122.95 177.15L121.05 175.05L119.45 172.65L119.05 169.55L119.95 167.65L121.75 165.85L123.75 164.55L125.55 163.75L130.65 162.75H131.95L134.25 163.75L136.05 164.85L137.85 165.75L140.35 165.95V164.95L137.85 163.25L136.35 160.75L135.75 157.95L135.65 155.35L137.35 155.55L146.85 150.15L145.25 147.15L146.05 144.05L148.15 142.45L150.55 143.35L151.15 144.75V146.35L150.25 152.45L150.35 153.45L150.95 155.35L151.75 156.95L152.35 158.55V160.75L151.85 162.65L149.65 168.35L152.45 167.35L153.75 166.45L154.15 166.75L154.35 169.55ZM62.65 173.45L63.25 173.95L63.95 175.05L62.55 175.45L56.45 173.75L53.05 174.85L51.15 174.65L49.05 173.45L47.85 171.05L48.85 168.55L50.65 166.15L51.85 163.85L53.05 162.25L55.25 161.65L55.95 163.55L54.95 166.15L54.55 167.95L54.65 169.55L55.35 170.05L56.15 168.25L57.75 165.65L59.05 165.45L59.45 166.65L60.15 167.25L60.85 167.65L61.15 169.65L61.85 172.35L62.65 173.45ZM167.05 144.25L166.45 147.65L165.55 148.85L164.85 149.15L164.55 148.45L163.95 145.55L162.85 144.45L162.55 143.55L162.65 142.45L162.25 141.05L161.45 139.75L161.85 138.55L163.35 137.75L164.85 137.55L166.25 137.95L167.15 140.05L167.05 144.25ZM92.75 207.35L93.15 207.75L92.95 208.65L91.65 210.25L91.05 210.65L90.15 210.75L88.85 210.45L87.85 210.65L86.35 211.35L85.65 212.05L84.85 212.15L84.75 211.55L85.15 210.55L85.05 209.65L84.45 209.05L83.95 208.95L83.35 208.55L83.45 207.65L83.75 206.95L83.85 206.05L84.35 205.55L85.25 205.25L89.55 207.55V208.55L90.25 208.65L92.75 207.35ZM105.15 177.65L106.45 177.05L108.55 176.55L110.85 176.45L112.25 177.75L112.55 179.85L111.85 181.15L112.35 181.95L111.75 182.95L110.35 182.35L109.85 182.75V183.15L110.95 183.35L112.15 184.25L111.55 185.25L110.15 186.95L107.95 187.05L106.95 185.75L106.45 184.45H105.25L105.55 183.35L105.15 182.25L103.45 182.05L102.85 181.55L104.15 180.45L104.35 179.25L103.05 178.15L100.55 177.35L99.05 177.85L98.15 177.75L97.85 176.65L98.95 175.45L100.55 175.05L102.65 175.95L104.25 177.15L105.15 177.65ZM85.35 174.95L87.35 177.25L88.15 178.55L87.55 179.45H86.15L85.45 179.75L85.55 180.95L85.15 181.45L83.85 181.05L83.05 180.65L81.55 179.65L80.75 178.35L80.85 177.45L81.85 175.95L83.65 174.55L85.35 174.95Z" fill="#6F9C76" stroke="white" stroke-width="0.5" stroke-linecap="round" stroke-linejoin="round"/>
</svg>
