<svg width="108" height="60" viewBox="0 0 108 60" fill="none" xmlns="http://www.w3.org/2000/svg">
<path d="M106.65 14.15L107.65 16.25L107.05 17.05L105.75 17.45L104.75 18.55L104.85 19.45L105.75 20.95V21.85L105.25 22.75L104.05 24.25L103.85 24.75L101.45 27.55L96.75 31.25L95.35 34.35L93.35 37.85L93.25 39.35L92.35 41.45L88.95 41.85L87.65 42.55L84.15 42.15L78.95 46.35L65.25 48.85L60.65 52.75L55.05 53.95L49.05 53.35L42.15 54.65L36.45 52.95L23.55 53.15L19.55 54.95L17.15 59.25L14.95 59.65L12.75 58.65L9.75 53.65L5.55002 52.25L1.65002 48.05L0.25 42.95L2.65002 36.35L4.95001 32.25L6.35001 30.85L11.05 28.05L15.05 21.05L18.75 20.05L20.45 16.35L26.85 14.15L40.65 10.25L44.15 7.25L57.35 5.85004L66.35 1.95001L68.45 2.55005L79.45 0.75L85.75 0.25L89.95 0.950012L91.65 3.35004L93.65 4.95001L100.15 7.55005L102.15 9.55005L103.45 14.45L104.75 16.35L105.45 15.55L106.25 14.85L106.65 14.15Z" fill="#6F9C76" stroke="white" stroke-width="0.5" stroke-linecap="round" stroke-linejoin="round"/>
</svg>
