<svg width="1000" height="1000" viewBox="0 0 1000 1000" fill="none" xmlns="http://www.w3.org/2000/svg">
<path d="M724.4 389.1H723.1L718.6 388L714.2 390L704.8 386.5L706.3 382.5L705.9 378.7L704.7 374.5L704.3 369.8L706.2 365.3L707.6 361L706.5 359.8L705.4 358.7L705.9 354.8L696 354.1L693.1 352.4L690 351.1L688.7 348L687.7 344.4L683.2 342.2L680.4 338L679.8 332.5L680.8 328.3L683.1 326.6L685.7 325.6L689.6 327.2L692.8 324.8L691.5 320.9L687.3 318.3L682.6 317.2L679 319.2L675.4 320.1L670.4 317.8L665.1 316.9L663.3 317.6L661.8 317.4L660.7 315.9L659 315.2L655.2 318.2L651.1 319.8L650.8 316.8L651.1 313.9L648.8 312.7L646.2 312.1L644.3 308.7L640.6 308.4L636.9 310.2L634.4 313.2L635.3 317.4L634.9 321.3L634.1 324.9L630.6 324.6L626.6 323.7L623.2 322.3L619.7 320.4L617 318.7L614.3 317.5L610.8 317.1L607.3 316.4L603.7 314.1L600.5 311.6L597.3 311.7L594 312.7L591.1 313.2L588.6 313.4L587.6 311.2L584.9 308.4L585.2 305.9L583.8 304.5L577.4 305.2L573.3 306.6L572 307.2L570.8 307.1L568.9 306.1L567.4 304.4L569.7 300.8L573.6 298L575.2 294.4L572.8 293.7L565 292.5L557.5 289.8L554.3 292.2L551.7 293.6L548.4 292.9L545.7 295L541.2 297.5L536.7 298.6L535 296.2V292.6L529.9 287.1L523 289.5L520.4 292.6L521.2 300.9L518.4 302.8L517.5 303.9L516.4 304.8L515.3 304.2L514.1 303.5L510 303.2L505.9 304.2L507 296L492.6 298L478.3 301.9L485.6 288.3L491.7 273.5L500 255.6L501.1 251.8L500.3 247.9L502.1 244.8L504.6 241.8L507.3 240.7L508.7 237.6L507.1 235L505.1 233.3L501.9 232.9L498.6 231.6L494 231L486.4 226.8L483 225.4L479.6 223.2L475.8 222.6L472.2 223.7L469.2 221.2L469.4 218.4L470.8 215.5L471.4 212.1V208.7L467.9 209.8L466.2 207.7L470.2 203.1L469.5 200L468.4 196.9L469.2 194.6V191.8L468.9 189.1L475.8 184L478.6 183.1L480.1 180.7L480.8 173.8L477.6 168.8L475 168.3L472.5 167.1L470.6 162.1L467.6 161.9L464.4 162.1L460.9 159.6L459.2 155L458.5 146.9L457.2 142.8L456.3 142.1L455.3 142.2L454.5 142.9L453.6 143.1L451.3 141.4L445.7 143.4L440.5 142.2L438.4 140.9L436.2 138.9V135.7L437.2 132.6L438 131.5L438.5 130.3L437.6 129.6L436.5 129.3L435.4 129.5L434.4 130.3L432.6 132.6L430.6 134.7L427.6 135.2L424.8 133.3L424.3 131.6L424.1 129.9L423.1 129.3L422.1 130.4L421.8 132.2L421.7 137.9L420 140.6L415 138.3L410.4 134.1L408.8 132.5L407.2 132.7L405.7 130.5L404.7 127.7L403.5 126.2L402 125L400.9 122.3L398.9 121L394.1 117.9L391.4 116.6L392.2 115.6L399.6 109.5L408.3 104.1L410.8 103L416.3 100.8L417.3 100.4L423.4 99.7L426.1 99.4L430.4 99.9L438.8 99.1L440.3 99L447.1 98.4L460 102.3L463.6 102L464.1 101.9L464.5 101.8L472 99.5L487.7 98.2L489.3 98L498.2 97.2L499.3 98L501 100.5L502.7 102.2L504.6 102.7L513.5 100.8L527.7 101.6L537 100.9L537.5 100.7L545 98L546.3 97.6L548 96.5L554.9 91.9L562.2 84.4L565.3 79.9L567.9 75.1L569.7 69.7L570.3 63.6L569.1 57.6L568.8 54.6L569.7 52.4L573.4 49.4L580.9 45.5H581L585.1 53.5L591.4 66L592.7 71.5L595.9 79.8L607.9 103.5L617.2 128.4L618.7 131.1L623.6 137.1L625.5 142.2L648 174.5L656.8 187.3L667.3 199L668.8 200.2L675.9 208.5L676.2 212V216.2L677.1 219.7L681.9 222.4L683.3 225.3L687.2 238.2L689 241.2L691.1 242.5L692.9 244.3L699.1 256.4L702.8 261.1L704.1 263.7L704.5 266.4L705.5 269L712 276.2L714.1 282.1L716 295L718.5 302.1L725.5 311.8L726 313.8L725.2 315.8L723.9 317.7L723.2 319.5L723.1 321.2L724.1 326.5L725.3 341.6L726.5 348.6L731 362.9L731.4 369.9L730 376.3L726.9 382.2L724.4 389.1Z" fill="#6F9C76" stroke="white" stroke-width="0.5" stroke-linecap="round" stroke-linejoin="round"/>
<path d="M394.1 117.9L398.9 121L400.9 122.3L402 125L403.5 126.2L404.7 127.7L405.7 130.5L407.2 132.7L408.8 132.5L410.4 134.1L415 138.3L420 140.6L421.7 137.9L421.8 132.2L422.1 130.4L423.1 129.3L424.1 129.9L424.3 131.6L424.8 133.3L427.6 135.2L430.6 134.7L432.6 132.6L434.4 130.3L435.4 129.5L436.5 129.3L437.6 129.6L438.5 130.3L438 131.5L437.2 132.6L436.2 135.7V138.9L438.4 140.9L440.5 142.2L445.7 143.4L451.3 141.4L453.6 143.1L454.5 142.9L455.3 142.2L456.3 142.1L457.2 142.8L458.5 146.9L459.2 155L460.9 159.6L464.4 162.1L467.6 161.9L470.6 162.1L472.5 167.1L475 168.3L477.6 168.8L480.8 173.8L480.1 180.7L478.6 183.1L475.8 184L468.9 189.1L469.2 191.8V194.6L468.4 196.9L469.5 200L470.2 203.1L466.2 207.7L467.9 209.8L471.4 208.7V212.1L470.8 215.5L469.4 218.4L469.2 221.2L472.2 223.7L475.8 222.6L479.6 223.2L483 225.4L486.4 226.8L494 231L498.6 231.6L501.9 232.9L505.1 233.3L507.1 235L508.7 237.6L507.3 240.7L504.6 241.8L502.1 244.8L500.3 247.9L501.1 251.8L500 255.6L491.7 273.5L485.6 288.3L478.3 301.9L477.3 303.7L476.2 305.4L475.2 306.1L474.1 307L473.3 308.3L472.7 309.7L466.2 321.8L462.8 324.2L462 323.2L459.4 322.6L457.3 324.8L456.1 327.7L454.5 329.8L451 331.3L448.8 333.7L447.6 338.7L443.1 340.2L437.3 343L431.2 344.8L424.8 343.9L419.6 339.5L413.7 336.8L402.5 341.6H397.2L390.8 340.3L392.5 339L394.6 338L396 336.4L397 332.3L396.7 331.5L395.4 330.2L395.2 329.8L395.9 329.2L396.7 329.1H397.4L399.2 328.1L400.4 327.9L401.3 327.3L401.7 325.3L393.6 327.6L392.4 329.3L392.8 334.6L391.8 335.8L388.6 336.8L384.2 336.2L378.8 333.1L374 328.3L372.2 323.8L380.3 322.9V321.8L379.7 321.6L378.5 320.6L380 320.4L381.4 320.5L382.8 320.9L383.9 321.8L383.4 318.6L381.5 315.7L380.2 312.4L381.1 307.9L379.6 307.2L378.4 308.8L377.7 311.5L377.5 314.2L376.8 317.2L375.5 317.9L374.3 316.6L371.7 317.1L369.1 317.8L362.8 315.9V314L362.3 312.3L362.8 310L362.5 307.1L364.1 304.2L365.9 301.7L368.1 300.6L370.4 299.7H373.8L377.5 298.7L378.3 297.6L378.5 294.4L377.6 293.8L375.7 294.8L372.9 297.3L371.2 296.9L369.9 296.1L369.2 294.8V292.7L366 294.4L363.4 296.2L358.5 301.5L357.3 302.5L355.7 303H354.3L353.4 302.1V300.6L354.3 299L356.3 296.2L352.3 297.1L351 296.7L350.6 294.4L351.3 292.7L353 291.7L354.9 291.1L356.3 290.3L357.9 288L357.5 287.5L353.8 288L352.6 287.2L351.7 285.4L350.8 283.1L349.7 281L350.3 280.8L350.7 280.5L351.5 279.7L352.5 280.5L354 280.4L356.7 279.7L358.8 280.3L360.6 281.4L362.4 282L364.5 281L364.3 282.9L364.5 284.7L365.1 286.2L366.4 286.8L367.9 286.2L368.5 284.6L369.2 281L371.5 277.6L373.4 277.8L375.5 279.1L378.5 278.7L377.8 277.3L377 276.2L375.9 275.5L374.7 275.2H372.8L371.9 273.9L369.9 273.6L368.3 274.1L366.7 274L364.1 273.5L359.8 272.1L353.9 267.7L353.6 265.7L356.3 261.9L358 260.1L362.3 258.8L363.3 258.1L365.1 256.7L367 253L368.3 248.8L367 246.7L364.8 245.2L363.4 241.9V237.9L355.4 230.2L348.5 230.4L342.3 230.6L341.6 229.1L340.6 226.6L339.4 224.6L338 222.2L336.4 220.7V218.4L335.8 214.9L334.4 209.6L332.4 195.5L332.9 193.1L334.7 192.8L342.2 195.5L344.6 195L346.6 194L348.3 193.7L350.2 194.9L350.8 196.9L351.1 200.1L350.9 203.3L350.2 205.5L350.1 209.6L354.3 213.1L359.5 215.3L362.8 215.5L360.3 212.8L352.4 207.2L354.7 201.1L355.4 197.5L354.8 194.9L353.5 192.2L353.4 190.8L353.3 188.8L353.9 185.3L355.3 182.6L354.3 181.3L353 181.5L352.4 181.9V181.5L353.9 177.6V177.3L354 176L354.1 174.9V174.3L354 173.3V171.8V170.8L354.3 170L354.6 169.2L354.7 168.6L354.4 167.5L354 165.6L353 162.8L354.8 162.6L358.3 161.3L359.4 160.4L360 160.2L360.6 159.9L360.9 159.8L362.7 159.6L364.7 159.8L365.9 159.6L366.7 158.8L368 156.8L369.8 154.6L371.6 152.8L372.1 152.3L374.4 150.2L375.7 148.6L376.5 147.4L376.6 147.2L377.5 145.4L378 143.3L378.1 142.1L378.2 141.7L378.7 140.1L379 139.4L379.7 138.1L380 137.6L381.4 136.3L382.4 135.7L384.9 133.8L387.1 131.9L387.6 131.5L387.8 131.4L389.1 130.7L391.1 129.6L391.5 129.4L392.1 128.7V128.3V128.1L391.9 127.7L390.8 126.1V125.4L391.2 122.2L391.5 121.3L391.8 120.2L392.3 119.6L392.7 118.9L392.9 118.8L393.7 118.5L394 118L394.1 117.9ZM411.7 230.4L413 225.6L412.9 221.4L411.5 217.6L410.6 212.1L408.2 208.1L403.4 207.7L399.1 208.7L396.4 211.6L394.5 215.7L391.4 219.7L385.3 220.3L384.5 223L384.3 225.9L381.4 227.7L378.2 228.8L373.9 226.1L370.1 225.9L368 230.2L371.2 234.2L373.9 238L374.6 242.9L377.3 244.7L381.3 245.9L385.3 251.1L391.1 251.3L393.5 250.9L395.9 249.5L399.3 248.5L402.7 247.7L404.2 251.3L408.2 249.3L412.1 248.4L415.6 246.3L416.9 244L419.2 240.9L418.1 239.6V236.6L420.1 235.2L422 234.2L422.4 231.7L421.4 229.2H418.6L415.4 230.4H411.7ZM351.2 182.7L350.9 182.9V182.3L351.2 182.7ZM300.4 187.3L303.1 187.2L305.6 187.6L306.9 189L306 192.1L303.6 194.2L300.6 194.4L294.9 193.1L293.7 193.6L292.2 194.4L290.8 194.5L290.3 192.6L290.6 192L292.2 187.3L293.8 185.7L295.7 185.2L297.9 185.7L300.4 187.3ZM308.8 205.7L310.5 207L311.8 208.5L312 210.1L310.6 212L307.9 212.1L298.7 205L299.8 203.9L300.4 202.5L301.2 199.3L301.6 198.5L302.3 197.6L303 196.9L303.8 196.7L304.3 197L304.6 197.6L304.8 198.3L305.3 201.4L305.4 202L306.1 203.1L306.9 204.1L308.8 205.7ZM329.3 222.5L328.2 222.6L327.4 222.2L326 220.7L325 220.1L324.2 220.3L323.7 220.9L323.2 221.2L316 221.6L313.4 220.4L310.6 216.7L314.8 215.6L315.8 214.9L316.9 213.1L316.8 212.3L316 211.7L315.3 210.8L310.5 201.6L310.2 200.2L310.7 198.3L310.5 190.2L311.1 188.4L312.4 187.9L315.6 184.1L318.1 183.5L320.2 185.1L322.3 187.5L324.3 189.4L328.7 191.6L330.4 193.3L331.1 196.1L331 197.5L330.3 199.8L330.1 200.8L330.4 202L331.7 204.3L332 205.5L332.4 211.7L332 213.1L332.7 214.1L333.5 215.9L333.9 216.7L332.1 217.7L330.6 221.3L329.3 222.5ZM88.6 156.7L90.1 158.5L89.9 161.1L88 162.4L85.4 160.9L81.9 161.2L81.2 161.5V163.3L82.6 164L84.2 164.3L84.9 164.9L82.1 167.1L76.6 166.3L72.5 162.8L73.9 156.7L77.3 157.9L84.8 155.3L88.6 156.7ZM274 285.5L273 286L272.4 285.8V285.2L272.9 282.4L273.6 280.1L274.6 278.7L275.7 279.5L276.7 281.1L277.6 281.9L281 283.7L282 284.8L281.4 285.8L279.7 287.6L278.5 288.1L276.9 288.4L275.6 287.8L274.7 286.2L274.3 285.3L274 285.5ZM326 276.8L327.4 277.7L328 279.8L327.4 280.5L325.9 281L325.4 282.1L325.3 283.1L324.1 284.5L322.5 284.9L321.5 284.1L320.4 284.2L319.5 283.7L319.2 281.5L319.4 279.3L320.6 277.8L322.9 276.5L326 276.8ZM343.7 280.8L344 281.6L344.3 283.1L343.6 284.6L336.7 290.2L333.5 290.6L333.6 289.7L335 287.7L335.2 286.5L334.6 285.6L336.4 283.5V281.5L335.7 279L334.7 277.2L333.7 276.1L334 275.8L336.3 276.8L338.2 275.2L338.6 275.3L338.2 276.8L338.8 278.1L340.4 279L342.9 280.1L343.7 280.8ZM218.2 208.4L219.6 208.6L220.6 209.6L220.2 211.4L218.9 212.7L218.1 213.1L217.7 212.2L216.9 210L217.1 208.6L218.2 208.4ZM86.4 179.6L87.5 180.2L87.7 181.3L87.1 182.8L86.6 184.6L86.1 186.1L85.1 186.6L84 186.5L83.1 186.8L82.4 187.6L82.1 187.7V187.2V187L81.7 186.2L80.6 184.8L81 183.4L83.3 181.6L84.7 180.1L85.4 179.5L86.4 179.6Z" fill="#6F9C76" stroke="white" stroke-width="0.5" stroke-linecap="round" stroke-linejoin="round"/>
<path d="M315.4 415.8L316.4 418.9L318.2 421.7L319 424.3L317.7 423.7L311.7 424.1L309.7 423.8L309.4 421.2L310 420.4L311.1 419.4L311.6 417.9L308.4 419.9L306.9 419.2L307.3 416.7L309.7 413.3L308.8 412.3L307 414.5L306.3 412.9L304.9 413.7L305.6 409.7L305.1 403.5L304.5 399.7L303.1 395L304.3 393.5L306.7 391.3L309.3 390.4L311.1 393.3L311.3 394.3L310.7 395.5L309.7 396.4L309.8 397.5L312.1 402.7L312.5 404.4L311.9 405.7L312.6 406.9L314.1 407.9L315.3 410H312.5V411L313.4 411.2L315.3 412.3L315.1 413.3L315 414.2L315.4 415.8ZM390.8 340.3L397.2 341.6H402.5L413.7 336.8L419.6 339.5L424.8 343.9L431.2 344.8L432.3 347.3L433.9 349L435.7 350L438 354.7L439.8 356L439.7 359.4L440.8 360.5L441.7 362.2L442 364.1L441.7 366L441 367.8L440.6 369.6L440.4 371.1L439.7 372.4L438.5 372.7L437.2 372.5L436 373.8L433.2 378.7L429.4 384.2L410.1 376.5L407 385.2L407.4 410.8L405.3 412.8L404.1 416.3L416.4 418.7L425.7 416.2L432.9 427.6L435.4 432.4L436.1 444.6L438.9 453.7L445.6 452L451.5 447.6L453.4 446.9L457 444.1L458.9 436.8L460.7 433.9L461.4 430L463.2 427.6L465.4 425.9L467.3 426.8L469.1 427.3L468.5 430.3L466.3 431.9L464.9 434.4L463.7 437.3L460.6 442.8L459 449.3L458.8 453.9L459.1 458.7L463.5 457.8L467.5 459.1L471.7 461.7L473.1 466.7L472.9 472.5L474.1 478.2L476.8 483.1L479.9 487.9L476.7 491.2L473.4 494.1L469.4 495.2L465.4 495.4L462.5 496.1L454.6 495.1L454.1 493.7L455 491.8L454.2 490.1L452.5 489.7L448 487.4L441.9 476.4L437.5 472.6L435.3 474.9L433.5 477.7L430.6 478.3L428.7 479.2L426.7 479.9L419.3 481.3L415.5 482.8L411.5 483.5L408.6 479L409.8 471.6L404.8 470.6L390.7 475.1L383.1 476.7L376.6 477.4L370.5 485L367.7 485.8L365 487.7L362.7 489.9L360.2 491.1L357.1 491.6L354.3 492.9L352.2 491.9L351.5 490.7L351.3 489.2L350.6 487.1L349.5 485.3L347.2 482.3L346 480.2L347.9 478.7L347 477.6L345.1 476.9L343.4 476.3L340.3 470.9L338 469.9L336.1 471L335.3 470.9L335.2 469.1L332.2 467.1L329.5 467.6L328.7 470.7L328.2 471.8L327.3 470.9L327.9 466L332.5 463.7L336.5 462.4L342.2 464.1L340.2 460.7L339.1 459.4L337.6 458.3L336.6 458.1L335.6 458.8L334.8 458.3L333.8 457.2L332.9 456L335.8 448.2L337.4 444.7L339.4 443.4L337.9 441.6L332.1 439.8L330.1 438.7L332.1 436.8L338.1 435.3L339.4 433.6L338.5 431.4L336.4 430.8H331.9L331 430.1L329.4 428.2L328.3 427.2V426.1H330.1L328 422.3L330.5 420.9L333.3 420.1L335.9 416.3L341.5 414.7L344.1 413.3H336.2L334.3 414.4L331.4 418.8L329.2 419.2L327.9 417.5L326.7 414.4L325.9 411.2L326 409.3L328.8 406L330.1 404L329.7 403.1L327.1 404L325.9 402.9L324.8 402.2L324.2 402L323.6 400.5L324.1 399.1L324 397.5L323.4 394.6L322.5 393.4V392.7L324.3 392.6L327 391.3L329.9 391.4L330.1 389.4L330.9 387.5L329.8 386.1L328.2 385.7L326 383.6L327.4 381.6L329.3 380.1L328 377.7L324.8 377.1L324.1 374.3L325.1 372.2L328.3 371.7L326.5 369.6L325.9 368.6L325.4 367.1L324.3 368.1L322.4 370.2L320.2 371.1L319.8 372.3L319.9 373.5L320.8 374.9L321 377.8L320 381.1L320.6 385.5L319.2 389.3L317.9 390.8L315.4 388.9L312.8 388.8L310.2 387L310.8 377.9L311.7 374.6L310.1 373.9L310.6 369.6L309.1 367.8L306.9 368.2L305.7 370.4L305.4 373.1L304.4 375.1L301.3 375.2L302.6 377.8L305 381.7L305.9 384.5L304.4 385.8L304.6 387.2L306.9 390.3L304.9 390.7L303.1 391.7L301.6 393.1L300.4 394.9L300.5 393.6L300.3 392.4L300 391.2L299.5 390.3L301.4 386.1L297.4 379.6L298.6 376.3L297.6 371.7L295.1 373.1L291.5 377.6L288.9 378.6L287.3 378.9L285.9 379.5L284.5 379.6L282.9 378.6L282.5 377.8L281.9 376.3L281.7 374.7L282.4 374L288 374.1L289.4 373.1L289.3 370.5L287.9 367.9L285.8 366.9L283.6 366.2L281.9 364.8L281.2 366.8L280.8 371L280 373L278.4 374.4L277.9 373L278.1 368.8L277.8 364.7L278.2 363.5L281.6 359.1L282.3 357.6L282.9 355.4L283.3 357.1L283.9 358.5L284.6 359.9L285.6 361.3L286.3 360.6L287.2 360.7L288.2 361L289.3 361.3L287.9 359.3L286.5 356.7L290.3 357.8L291.9 357.4L293 355.4L289.5 355.2L287.4 354.2L287.1 352.1L289.3 348.5L286.3 345.9L286.5 343.6L288.8 341.7L292.1 340.5L291.3 344.6L291.6 345.8L293.5 346.2L296.8 346.1L297.7 345.5L298.6 343.9L298.9 340.1L298.5 335L299.1 330.8L302.3 329.8L301.9 332.2L302 335.9L302.6 339.6L304.3 344L303.4 345.6L302.1 347L301.3 348.5V350L302.2 352.5L302.3 353.2L301.6 354L299.1 355.6L298.6 356L298.7 357.5L299.2 359.1L299.9 360L300.9 359.5L303.2 357.4L304.9 357.3L308.8 360L306 354L305 350.2L306.4 348.5L308.6 351.3L309.9 352.1L310.6 350.3L311.1 349.7L312.6 349.2L315.3 348.5V347.4L314.2 347.3L311.6 346.2V345.1L314.8 344.3L316.8 341.2L317.3 337.4L316.2 334.6L315 334.2L311.5 334.1L309.7 333.4L308.4 331.8L308 330.3L308.6 329.7L310.6 331.1L311.5 328.5L310.5 326.9L308.4 326.3L305.9 326.5L306.9 325.2L308.3 324.2L309.7 324L311.1 324.7L312.4 325.7L313.5 326L314 325.4L313.4 324.2V322.9L318.4 322.8L320.8 323.6L321.8 325.9L321.1 327.3L319.8 328.8L319 330.7L319.9 333.4L321.1 332.2L322.6 331.4H323.9L324.5 332.8L324.7 334L325.3 335.1L325.4 336.3L325.2 336.7L324 338.2L323.6 339.2V346.8L324 349L325 350.5L326 351.1L326.5 350.3L327 346.1L329.5 338L330.1 334L330.8 333.1L332.4 334.2L334.8 336.8L335.8 338.6L336.4 340.3L337.5 341.4L339.4 341.5V340.5L338.4 339.2L337.3 335.7L336.2 334L327.9 325.2L327.3 324.7L327.8 322.9L328.9 323.1L330.3 324.4L332.5 327.1L333.6 328.2L335 328.8H336.7L338 328L338.1 326.9L337.2 325.8L335.3 325.3L332.7 324.1L329.9 321.4L328.6 317.5L328.3 314.9L330.8 314.8L333 315.9L334.9 317.6L337.6 319.5L340.2 321.3L341.3 322.4L343.3 323.8L345.3 324.9L346.7 327.2L346 329.5L344.7 331.1L345 332.3L346.3 334.8L346.5 336.4L346 339.2L347.5 338.2L348.1 336.9L348.4 335.5L347.9 331.4L348.5 330L349.3 328.5L350.6 326.2L352.8 325.1H354.9L357.3 325.4L359.9 326.4L363.2 327.2L365.5 328.8L368.4 331.7L368.6 335.4L366.4 342.7L368.1 341.6L370.6 338.3L372 338.1L373 339.5L373.5 342L373.8 346.8L373.7 347.8L373.1 350.1L372.9 351.5L373.2 352.9L374.4 354.9L375.5 360.2L375.2 361.7L372.9 362.3L373.3 363.8L373.9 364.7L374.6 365.4L375.8 365.9L376.6 362.1L377.9 359.9L378.6 357.5L377.5 353.2L380.2 354L383.1 354.4L378.4 349.2L377 346.3L379.8 345.1L382.3 344.7L388.2 342.3L390.8 340.3Z" fill="#6F9C76" stroke="white" stroke-width="0.5" stroke-linecap="round" stroke-linejoin="round"/>
<path d="M342.3 230.6L348.5 230.4L355.4 230.2L363.4 237.9V241.9L364.8 245.2L367 246.7L368.3 248.8L367 253L365.1 256.7L363.3 258.1L362.3 258.8L358 260.1L357.6 258.9L350.5 258L347.2 262.2L343.8 259.6L345.2 256.5L347 253.8L345.9 251.9L343.4 250.6L341.2 249.4L341.5 246.3L341.1 243.8L342.4 241.5L346.3 240.3L347.5 239.7L347.8 238.3L345.9 237.8L345.4 239.3L342.6 239.6L341.9 237.9L341.6 234.8L342.3 230.6ZM336.8 236.6L337.3 237.1L337.9 238L338.6 238.7L339.1 239.8L339.5 240.7L338.7 241L337.6 241.9L337.1 242.5L334.8 243.1L333.7 242.9L332.3 243.6L329.1 244.9L327.4 246.5L326.4 248.2L320.5 252.6L319.2 252.3L318 252.5L317.4 252.3L316.9 250.2L315.8 249.6L315.3 250.1L314.8 250.3L314.7 249.9L314.9 249.3L314.6 248.5L313.8 248.4L313.2 249.1L312.4 249.7L311.4 249.3L309.9 248.9L310.8 248.1L310.5 247.1L309 245.7L308.6 244.8L309.1 243.6L309.9 243.3L311.1 243.9L317.2 239.6L321.6 239.1L324.6 239.2L327.4 237.7L328.3 233.9L330.2 233.2L331.8 234.8L332.5 235.1L333.3 235.5L334.1 235.8L334.9 235.9L335.7 236L336.8 236.6Z" fill="#6F9C76" stroke="white" stroke-width="0.5" stroke-linecap="round" stroke-linejoin="round"/>
<path d="M370.5 485L376.6 477.4L383.1 476.7L390.7 475.1L404.8 470.6L409.8 471.6L408.6 479L411.5 483.5L415.5 482.8L419.3 481.3L426.7 479.9L428.7 479.2L430.6 478.3L433.5 477.7L435.3 474.9L437.5 472.6L441.9 476.4L448 487.4L452.5 489.7L454.2 490.1L455 491.8L454.1 493.7L454.6 495.1L462.5 496.1L465.4 495.4L469.4 495.2L473.4 494.1L476.7 491.2L479.9 487.9L481.1 489.3L482.4 490.5L483.5 490.3L484.3 489.1L486.6 490.4L488.7 492.8L494.7 494.8L496 496.4L498.2 497L502.5 494.4L507.5 492.1L509.5 494L511.5 495.1L513.2 493.5L515 491.7L520.5 501.1L519.9 511.8L514.9 517.1L513.6 520.6L506.9 524.2L503.5 525.3L501.7 525.1L500.4 525.9L497.8 531.4L494.9 534.5L491.8 537.3L490.3 541.6L489.9 546.8L488.2 550.5L486.1 554.4L484.5 559.5L483.3 564.7L481.4 568.5L481.3 572.7L484.8 574.2L485.3 576L485.5 578.1L487 582.1L486.8 586.3L488.2 589.5L490.1 590.8L489.3 595.3L483.6 602.1L482.7 606.6L482.6 610.6L479.7 613.6L472 607.3L463.3 604.2L458.4 606.9L454.4 611.2L450.2 611.8H445.7L440.8 612.5L435.8 612.4L433.5 611L431.4 609.4L429 610H426.2L422.1 610.7L418.2 613L413.2 612.3L409.9 608.8L410.1 603.3L407.3 600.2L406.5 597.1L407.7 592.3L405 588.1L401 588.3L400 590L398.7 591.3L397.8 593.5L397.5 595.9L393.3 596L386.9 587.3L382.8 583.9L380.4 582.9L378 582.7L375.7 585.4L371.1 585L367.7 588V590.3L367.8 592.5L366.6 594.4L364.8 595.7L364.9 597.5L365.2 599.2L364.1 601.5L362.3 603.1L360.1 604.1L357.7 604.8L355.8 606L354 607.4L349.4 608L345.1 609.6L341.1 610.6L337.7 609.5L337.9 605L338.8 600.5L339.6 594.4L335.6 593.4L322.5 597L319.7 597.9V598L317.8 595.8L317.1 594L318.1 590.1L320.4 585.2L324.1 576.7L327.2 572.2L331.6 570.6L336.7 569.6L341 569.3L343 567.7L344.9 565L347.6 564.3L350 567L352.5 570.1L354.3 570.7L352.5 564.5L351.3 561.6L349.2 560.5L330 563.6L323.3 559.4L323.7 554.9L323.8 553.1L327 551.6L329.8 548.8L332.3 545.9L336.4 543.5L341.4 540.7L345.2 535.4L345.7 530.5L347.8 529.2L349.4 528.2L350.2 527.5L355.1 527L359.8 527.6L362.8 530L365 530.5L366.4 533L367 531.6L367.5 529.8L367.7 527.8L365.9 526.3L364.6 525.4L362 524.1L359.1 522.1L356.7 520.3L355.4 519.7L355.8 518.3L356.9 516.7L358 515.8L359.3 515.5L366.8 516L368.5 515.8L369.7 515.2L370.5 513.7L370.9 512.5L371.5 511.6L373.4 511.3L374 510.8L373.3 509.5L371.8 508.3L370.2 507.7L369.8 508L359.8 512L356.5 512.2L349.9 511.8L343.4 511.3V508.4L343 504.4L341.7 503.3L337.7 501.9L331.7 502.9L331.1 497.8L343.4 496.5L350.1 495.7L356.8 495.3L359 494L361.4 494.6L364.2 493.2L369.2 489.4L375.5 486.8L378.2 484.9L378.5 482.5L370.5 485ZM295.4 564.6L294.8 564L294.4 562.9L294.6 561.9L296.1 561.1L295.9 560.8L295.2 560.4L295.5 560L296.3 559.6L296.8 558.9L297.6 558.7L298.1 558.5L297.9 557.6H298.4L300 557.9L301 557.1L301.5 556.5L302.1 557L302.4 558L301.9 559.2L299.4 561.4L297.7 563.2L296.6 564.1L296.2 564.5L295.4 564.6Z" fill="#6F9C76" stroke="white" stroke-width="0.5" stroke-linecap="round" stroke-linejoin="round"/>
<path d="M319.7 598V597.9L322.5 597L335.6 593.4L339.6 594.4L338.8 600.5L337.9 605L337.7 609.5L341.1 610.6L345.1 609.6L349.4 608L354 607.4L355.8 606L357.7 604.8L360.1 604.1L362.3 603.1L364.1 601.5L365.2 599.2L364.9 597.5L364.8 595.7L366.6 594.4L367.8 592.5L367.7 590.3V588L371.1 585L375.7 585.4L378 582.7L380.4 582.9L382.8 583.9L386.9 587.3L393.3 596L397.5 595.9L397.8 593.5L398.7 591.3L400 590L401 588.3L405 588.1L407.7 592.3L406.5 597.1L407.3 600.2L410.1 603.3L409.9 608.8L413.2 612.3L418.2 613L422.1 610.7L426.2 610H429L431.4 609.4L433.5 611L435.8 612.4L440.8 612.5L445.7 611.8H450.2L454.4 611.2L458.4 606.9L463.3 604.2L472 607.3L479.7 613.6L479 617.2L481.8 620.5L483.1 624.7L483.7 633.5L485.5 636.8L488.9 639.3L491.9 642.4L493.1 645.9L494.5 649L503 658.2L504.8 662.7V665.8L505.1 666.5L504.2 666.3H498.7L496.9 666L496.2 665.2L495.9 663.9L495.1 662.3L493.5 661.1L493.1 662.3L493.4 664.3L493.7 665.2L492.7 668.2L492.1 669.3L490.9 670.7L485.8 674.8L482.9 676.1L480.9 674.4L478.3 669.1L476.2 668.3L474.7 670.4L474 673.7L474.1 676.5L475.4 679.4L477.5 683.2L479.9 686.5L482.1 687.9L483.6 689.8L485 690.5L486.7 689.5L490.9 685.5L493.8 685.1L496.3 685.6L498.6 685.7L501.2 684.4L501 687.6L500.6 690L499.2 694.6L497.7 702.9L496.5 704.8L491.8 706.4L488 704.5L485 703.8L482.5 709.3L481.7 708.8H481.5L481.3 709.1L480.6 709.3L481.7 711.4L482.5 713.8L483.5 721.1L482.9 722.5L481.5 721.7L479.2 719.4L476 719L473.6 717.7L472 715.2L471.4 711.5L472.2 708L474 704.6L475.2 701.4L474.6 698.6L473.5 697L471.4 692.4L470.8 692H470L469.2 691.9L468.6 691.1L468.5 690.3L468.7 689.3L469.1 688.7L467.1 684.3L466.7 682.7L466.9 681.8L467.5 680.1L467.6 679.3L467.3 678.4L466.7 677.6L466 677.4L465.7 678.1L465.3 678.5L463 684.4L462.1 685.6L461.6 686H460.9L456.3 687.7L453.6 688L447.7 687.9L445.5 688.5L447.3 690L450.8 691.5L453.7 692.4V693.4L447.9 695.2L445 696.9L444.5 699.1L445.7 700.1L448.2 699.1L449.6 699.6L450.5 701.2L450.3 701.8L449.5 702L449.2 702.4L451 709L455 712.5L459.2 715.2L462.1 719.4L460.7 719.2H458.3L457.3 719.4L463.1 721.6L463.9 723.5L464.3 726.9L463 728.1L461.6 729.3L459 729.2L457.3 729.6L451.1 725.8L449.2 725.1L447.4 725.5L445.2 726.5L443.4 727.8L442.6 729.1L442.9 729.6L444.5 733L446.4 733.4L447.6 734.2L452.7 732.8L455.5 735.2L449.1 741.1L446.8 744.4L444.3 743.2L440.4 746.2L440.8 749.1L442.6 751H438.8L433.3 743.7L431.4 739.7L426.3 734.2L424.7 734.6L419.4 737.4L419.9 739.1L420.3 739.7L418.1 739L416 738.6L414.1 737.6L412.9 735.2L412.7 732.8L413.6 731.4L416.6 729.6L417.6 728.8L420.3 725.1L422 721.6L422.9 720.4L424.9 719.4L424.8 722.1L424.1 724.8L422.1 729.6L426.1 729.4L429.4 728.1L431.4 725.4V720.5L430.6 718.6L429.5 717.5L428.7 716.3L428.6 713.8L429.3 712.5L433.2 708.1L434.7 708.9L435.6 709.9L435.8 711.2L435.1 712.7L435.9 714.9L437.1 716.4L438.6 716.9L440.7 716.1L441.6 715L443.5 711L444.5 709.3L442.6 706.5L441.9 703.5L440.9 702.2L438.4 704.2L435.4 705.5L433 703.4L429.6 698L427.7 701L425 708.1L423.1 710.4L421.1 711.2L419.5 711.1L416.1 710.4L414.5 711L413 712.3L410.5 715.6L409.4 716.5L404.5 719.4L401.8 721.4L400.1 722.4L398.4 722.9L397.4 723.4L397.2 724.8V726.6L397 728.5L396.1 729.9L394.8 731.3L394.2 733.1L395.2 735.2L387.7 742.6L388 749.4L386.7 750.5L383.1 748.7L381.9 750.2L381.3 751.8L381.4 753.5L382.2 755.5L380.4 754.9L376.6 752.2L371.4 750.7L370.2 749.9L369.2 746.8L369.7 738.5L369.2 735.2L369.9 733.2L369.8 730.6L368.9 728.4L367.3 727.3L365.9 727.7L364.4 729.1L363.3 730.9L362.8 732.4L363.4 734.7L364.2 736.7L364.3 738.1L360.1 739.5L360.6 741.5L363.7 745.3L358.5 748.4L356.5 750.2L358.5 751L359 751.3L359.1 752.1L359 752.9L358.5 753.3L357.7 753.1L356.4 752.4L355.8 752.2L354 752.5L353.6 753.2V754.4L352.9 756.1L351.9 756.8L347.8 757.8L346.3 759.1L345.8 760.1L342.5 771.2L342.2 772.8V774.7L338.9 774L332.7 776.1L331.1 775.7L330.9 773.8L332.2 769.9L331.9 768L330.7 766.9L329 766.6L325.4 766.8V765.7L326.2 764.8L326.4 764.1L326.7 761.6L327.1 761.5L327.7 761.7L328.3 761.3L330.2 757.8L330.6 756.1L330.1 754.4L329.4 753.9L328.4 753.5L326.4 753.3L324.9 752.9L324.7 752L325.1 751.2L325.4 751L325.5 748.9L326 746.8L325.8 745.7L323.6 746.5L324.2 742.5L326.9 740.5L330.5 739.8L333.9 739.7L333.3 738.5L332.4 737.5L331.4 736.8L330.1 736.4L332.2 734.9L333.5 733.1L333.6 731.6L331.9 730.6L331.3 730.9L330.1 732.4L329.2 733H328.1L326.4 731.9H325.4L324.6 732.6L324 733.7L323.6 735.2L322.4 735.5H321.2L319.9 735.2L317 735.3L315.4 735.6L313.4 736.4L313.2 733.7L312 732.2L308.8 730.6V730.1L308.1 728.8L307.3 728L306.9 729.1L306.5 729.7L305.6 730.2L304.5 730.5L303.6 730.1L300.8 727.4L300.4 727.3L300 725.6L300.2 725.1L300.8 724.9L301.3 724L301.8 724.8H303.2L304.2 724L303.6 722.3L300 720.5L297.2 718.5L296.9 713.7L298.1 708.4L299.5 704.8L299.7 703.5L299.6 702L299.8 700.7L300.9 700.2L301.9 700.3L303 700.6L303.7 701.1L304.6 703.1L308.8 709.3L307.5 711L307.1 712.6L307.3 714.3L307.8 716.1L310.6 724L312.3 725L319 726.1L321.9 728.1L323.4 728L324.5 725.1L323 725.4L322.2 725L319.4 724.3L318.1 722.3L316.4 720.6L316.8 716.8L315 717.1L314.2 719.4L312.8 719.6L311.9 716.5L311.5 712.4L312.5 710L311.7 707.1L315.5 706.8L321.1 708L321.9 709.3L321.5 711.5L321.6 712.1L321.5 712.8L321.8 713.8L323.2 714.7L324.1 715.8L325.8 717L328.3 717.9L329.7 719.3L331.6 720.7L333 721.6L333.6 720.9L330.8 717.2L332.5 716.8L335 718.2L338.2 720L342.1 721.3L345 720.5L342.1 720L339.8 718.6L335.7 715L336.7 713.8L333.8 711.6L329.3 705.9L326.9 704.8L323.5 704.1L319.5 704.3L316.7 702.6L313.3 703.5L310.2 702.4L309.8 700.9L311.7 698.4L313.6 697.7L317.6 698.3L322.8 696L329 700.6L331.1 700.2L331.6 700.5L331.9 700.9L332.3 701.1L332.9 701.4L332.3 698.2L332.6 695.3L334.2 693.2L337.6 692.4L343.8 694.2L346.9 694.5L346 692.4L348.1 691.3L349.2 691.1H350.6L348.6 688.8L345.5 688.3L338.5 688.9L339 687.3L338.8 686.2L338.5 685.1V683.4L339 682.3L339.7 681.5L340.3 680.4V678.7L339.2 676.3L337.4 675.7L335.4 676.7L333.9 678.7L333.7 680.1L334.6 682.9L334.8 684.4L334.6 684.6L332.9 687.9L331.4 693.5L330 695.4L327.3 695.6V695.3L326.5 694.6L327 693.7L327.7 692L328.3 691.1L326.5 690.2L325.2 690.8L324 691.8L322.3 692.4L318.6 691.6L317.5 692.1L317.3 693.8H315.4L312.5 694.7L311.1 694L310.6 692.3L311.6 690.6L314.3 687.9L315.3 686.3L315.9 685.1L316.1 684L316.2 682.7L315.8 680.3L316.3 679L318 677.5L316.4 676.2L314.9 673.4L314.1 670.2L314.3 667.4L316.2 665.7L318.8 664L319.6 662.5L316.2 661.7L314.6 662L313.7 662.8L313 663.6L312 664L310.7 664.6L310.9 666.3L311.5 668.1L311.6 669.7L309.7 671.4L307.2 671.6L304.9 670.8L303.2 669.7L304.4 668.8L305 668.6L303.8 667.7L302.8 666.7L302 665.5L301.3 664L302.9 663.2H304.4L307.8 664L307.4 660.4L311.1 656.6L310.1 653.2L306.3 647.8L303.9 645.6L301.3 644.7L302.4 648.5L301.4 650.6L299.5 650.7L297.6 648.1L298.9 646.4L295.4 641.7L294.9 639L296.8 636.7L299.6 636.3L302.1 637.6L303.2 640.2L304.9 639.1L305.8 637.2L306.9 633.4L307.9 635.3L308.1 636.9L307.7 640L307.1 641.5L306.9 642.5L307.2 643.5H307.7L308.4 643.2L308.8 643.5L309.3 645.7L309.5 646.6L309.9 647.2L311.6 648.1L312.9 648.6L315.2 648.7L316.2 649.3L315.4 651.2L315.6 653L316.6 654.7L318 656.2L321.5 648.4L321.8 645.8V642.8L321.1 641.8L318.5 641.1L317.5 640.5L316.6 639.6L315.2 635.9L310.7 630.7L309.7 628.3L310 627.5L310.6 626.8L311.3 625.9L311.6 624.4L310.1 623.3L309.4 622L309.7 619.7L308 620.4L306.2 620.7L302.3 620.8L303.8 618.9L306.3 618.3L309.1 618.2L311.6 617.6L310.8 617.2L310.3 616.9L309.8 616.5L308.8 616.3L309.4 614.8L310.2 613.9L311.1 613.3L312 612.3L312.5 611.1L312.2 610L311.8 608.9L311.6 607.8L312 605.2L313.2 602.6L316.2 598.1L317 598.9L319 601.5L321.4 602.2L322.6 602.1L322.3 600.9L319.7 598ZM394 619.8L387 617.2L383.3 618.3L379.8 619.1L374.9 617.9L372 620.6L375.7 628.8L383.1 633.2L391.4 634.6L396.8 627.4L394 619.8ZM419.5 744.6L423.7 744.1L425.9 744.3L427.7 745.2L429.2 747.8L428.8 750.9L427 753.4L424.5 754.4L418.9 755.5L416.7 755.1L415.1 754.4L411.9 752.2V751L412.6 750.1L412.8 749.3L412.2 748.6L411 747.7L412.9 746.3L415 745.4L419.5 744.6ZM311.9 742.2L312.2 744.4L311.8 747L311.1 749.4L308.4 755.1L307.3 756.9L306 757.8L305.7 757.3L303.4 755.1L302.3 754.4V755.5L301.8 758.1L288.9 765.1L287.3 765.7L281.6 766.2L280 765.7L279.8 764.3L280.5 763.1L281.5 762.1L281.9 761.3L281.2 760.3L277.3 757.8V761.3L274.4 757.9L276.1 752.4L280 748L283.8 747.7L285 744.1L285.8 742.9L287 741.5L288.5 740.7L289.8 740.4L290.8 739.7L291.1 737.4L292.7 739.3L294.9 739.6L296.8 738.3L297.6 735.8L296.6 733.7L293.1 731L294 729.6L296.2 729.5L298.4 730.7L300.4 732.2L301.8 733L302.2 733.5L302.6 734.5L303.2 735.6L304.1 736.4L304.7 736.2L307.8 734.2L307.9 735.6L311.9 742.2ZM502 711.5L503.4 711.9L504.7 713.9L505.6 716.3L506.8 720.4L506.9 722.8L506.5 725.1L505.5 727.4L504.2 728.8L502.6 728.9L501.1 728.1L496.3 723.2L495.8 721.3L496.6 718.3L497.2 717.5L499.7 715.6L500.2 714.6L501.2 710.4L499.1 708.2L499.4 706.9L500.9 706.2L502.5 706L504 706.6L504.4 708.2L503.7 710L502 711.5ZM258.9 706.8L260.6 708.3L261 708.9L261.1 710.2L260.9 711.5L260.3 712.7L258.2 715.5L257.3 716.2L256.3 716.3L255 716.1L254.9 715.6L253 714.5L250.9 713.5L250.3 713.8L249 711L250 709.7L254 708.1L256.4 704.8L257.3 704.3L257.8 704.7L258.9 706.8ZM261.4 695.6V699.1L260.8 698.8L259.3 698.4L258.6 698L257.4 699.6H255.6L253.9 699.2L253.1 699.6L252.8 701.9L252.1 703.8L250.9 705.3L249.3 706L247.7 705.8L246.6 704.7L245.9 702.9L245.6 700.8L246 698.7L247.1 697.3L248.6 696.3L250.3 695.6L252.1 696.4L254.5 695.8L259 694.1L259.9 694L260.5 694.1L261 694.6L261.4 695.6ZM268 673.7L268.6 671.5L269.9 671.2L271.4 672.2L272.5 674.1L272.8 676.5L272.4 678.8L271.4 680.8L269.8 682.1L267.8 682.7L266.7 682.3L265.8 681.5L264.7 681.1L260.3 682.1H258.6V681.1L259.9 679.9L262.4 676L264.2 674.3L265.1 674.4L266.4 674.7H267.5L268 673.7ZM275.4 650.9L274.7 651.1L271.1 650.2L269.8 650.4L269.3 650L269 649.6L268.6 649.4L268 649.3L269.1 644L269.8 642.5L270.7 641.9L272.3 641.4L273.8 640.7L274.5 639.6L275.5 637.3L278 635.8L280.7 635.1L282.8 635.7L278.7 638.1L277.7 639.5L277.6 641.1L278.2 642.8L280 645.8L278.6 646.4L277.1 647.9L275.9 649.6L275.4 650.9ZM437.9 820.6L438.7 821.4L439.7 821.6L440 822.2L439.9 823L437.9 822.1L436.1 821.6L435.7 821.1L435.3 820L435 818.6L434.5 818.3L434.1 817.8L433.7 816.6L433.9 816V815.2L434 814.5L434.4 814.4L434.9 814.6L435.5 814.4L435.9 813.9H436.1L436.4 814.6L435.9 816.1L436.2 817.8L437.9 820.6ZM468.1 750.1L468.7 751.7V752.7L467.7 753.8L465.2 755.4L463.1 756L462.3 755.6L462.2 754.2L461.3 753.2L459.9 752.8L459.3 751.9L459.7 751.3L458.2 750.3L457.3 749.6L457.8 748.4L457.7 747.5L457.5 746.8L458.1 746.4L459.1 746.8L460.1 747.4L462 747.9V748.3L462.7 748.1L463.9 746.9H465.1L468.1 750.1ZM502.1 740.8L503 741.3L503.6 742.2L503.3 743.2L501.6 743.8L500.5 743.9L500.3 743.6L499.8 742.9L498.6 742.2L496.6 741.6L495.3 740.5L494.7 739.1L494 738.1L492.9 737.5L491.9 736.3L492.6 734.9L494.9 733.9L497.4 733.5L499.2 734.8L501.2 738.8L501 740L501.1 740.6L502.1 740.8ZM274 726L274.3 726.3L274.6 727.1L274.4 728.9L274 730.7L273.9 732.3L273.1 733.1L272 733.9L270.9 735L268.2 736.6L266.8 736.8L265.2 736.3L264.7 735.5L265.5 735.2H266.3L267 734.5L267.8 733.9L267.7 733.3L264.7 732.6L265.4 731.8L267.3 731.5L269.2 731.4L270.8 730.2L271.4 728.6L270.8 727L269.4 724.8L268.6 722L269.6 721.3L271.2 722.6L272.2 723.6L273.9 724.6L274 726ZM265.6 730.5L264.3 731.1L263.2 730.2L262.7 724.5L263.2 721.3L264.3 719.8L266 723.6L267.5 725.7L268.6 728.1L268.2 730L267 730.4L265.6 730.5ZM185.3 710.9L186.8 710.5L187.1 711.2L185.9 712.3L185.3 713.1L184.9 714L182.8 716.5L182.4 717.7L181.5 719.2L180.8 720.1L180.2 720.8L178.9 720.2L178 717.8L178.2 715.6L178.9 713.6L179.8 711.9L180.8 710.3L182 709.5L183.1 709.2L183.7 709.7L184.1 710.9H185.3ZM284 703.6L284.5 705V706.8L283.8 708.4L282 708.5L280.4 706.9L279.2 705.1H277.7L277 705.7L276.5 706L275.5 706.1L274.6 705.4L274.3 703.9L273.1 701.7L270.4 698.9L269.9 697.5L271.2 697.8H272.2L273.2 697.3L274.7 697.2L276.4 697.4L277.7 698L278.5 698.9L279.7 699.5L281.3 699.6L282.6 699.9L283.5 700.7L284 701.7L283.9 702.5L284 703.6ZM283.3 693.8L282.9 694.2L282.4 695.2L282.7 697.5L281.9 698.3L280.2 698.8L278.7 697.9L276.9 696.4L274.6 695.5L273 694.5L274.3 693.4L277.7 692.9L279.7 692L280.7 691.1L282 691.7L283 693.1L283.3 693.8ZM271.2 688.7L270.1 687.2L269.1 685.4L269.5 684.1L271.5 683.1L273.1 683L274.4 683.7H275.7L276 682.7L275.8 680.7L277.1 679.5H278.8L279.7 679.4L280.4 679.8L281 680.7L281.2 681.8L279.4 682.9L280 685.5L279.7 687L278.7 687.6H277.4L276.5 688.6L276.6 690.4L276.1 692L274.7 692.8L273.5 692.7L273.2 691.7V691.1L271.2 688.7ZM293.8 673.3L292.6 673.8L291 673.7L290.3 672.3L290.6 670.7L291.6 670.1H294L294.7 670.4L294.8 671.1L294.3 672.8L293.8 673.3ZM284.6 651.4L284.9 652.1L285.1 653L285 654.6L284.5 655.1L283.8 655.5L283.1 655.2L281.8 653.9L281.3 653.5L280.6 653.9L279.9 653.8L279.7 653.1L279.2 652.8H278.5L278.3 652.5L279.3 651.7L278.9 651.5L278.3 651.6L277.7 651.4L278 650.7L279 650L279.9 649.9L281.1 650.4L282.8 650.3L284 650.6L284.6 651.4ZM142.2 816L141.5 815.6L138.8 813.1L137.3 812.2L137 810.9L137.7 809.2L138.7 808.2L140.2 808.7L141.4 810.2L143.3 814.2L143.5 815.5L143 816.3L142.5 816.2L142.2 816ZM341.6 796.3L342.8 796.8L343.9 798.2L343.6 799L343 798.5L342.6 798.4L342.3 799L341.8 798.8L340.6 798.1L339.3 798.2L338.6 798.9L338.1 799.8L336.6 800.8L335.2 802L333.2 803.2L330.6 803.1L329.2 801.2L329.1 798.7L330.3 796.3L332.7 794.6H334.7L337.4 796.3L338.2 796.4L339.3 796.1H340.9L341.6 796.3ZM351.5 798.8L352.1 799.1L352.5 799.9L352.1 800.4L351.5 800.5L351.3 801.5V803.2L350.6 804.4L349.3 804.8L348.6 804.4L348.4 803.6L347.7 803.1L347 803L346.7 800.8L347.6 797L347.9 794.9L347 794L346.7 793.3L347.8 792.2L347.9 791.7H349.1L351.4 792.8L351.7 794.4L350.4 795.6L350.2 796.8L351.5 798.8ZM383.7 791.6L385 792.7L385.8 793.7L385.5 795.7L385.1 796.6L384.3 798.1L382.7 799L380.7 799.2L379.2 798.4L378 797.3L377.1 797.4L376.6 798.2L376.1 797.9L375.5 795.4L376.4 793.7L376.6 792.1L377.1 790.9L378.1 790L380 789L382.3 789.6L383.7 791.6ZM343.4 788.2L344 789L344.1 790.4L343.1 791.2L342.7 793.1L340.7 793.2L339.6 793.4L340.3 794.6L339.6 795.2L337.5 794.6L336.4 793.6L336.2 793L335.6 792.8L335 792.6L334.8 792.1L335.5 790.1L335.9 789.4L336 788.9L335.7 788.5L335.8 788.1L336.3 787.9L336.6 787.5L336.5 787.1L335.9 785.9L336.3 785.5L337.4 785.9L338.4 786.4L341.2 786.9L342.7 787.7L343.4 788.2ZM272.4 773.5L272.3 775.3L272.5 776.5L271.9 777.4L270.6 777.6L269.8 778.2L269.2 778L268.7 777.1H268.2L268 777.9L267.1 778L264.3 776.9L263.4 775.5L263.3 774.6L263.8 773.8L263.9 773L264.9 772.3L269.6 773.3L271.5 773L272.4 773.5ZM376.2 773.4L375.6 774L374.4 774.2L373.7 773.3L373.4 772L372.7 771L371.7 770.6L370.3 770.8L368.7 771.4L367.4 771.3L366.8 771.1L366.3 770.7L363.3 769.4L363.1 768.9L364.5 768.7L365.9 768.3L366.5 767.9L367 767.7L368 767.9L369.3 768.4L370.8 767.8L372.6 766.3L374 766L374.8 766.6L375.8 766.8H376.3L376.9 766.7L378.4 766.8L380.3 767.3L381.5 768L381.3 769.2L380.5 770.1L380.3 770.7L380.1 771.8L379.3 772.8L378.1 772.6L376.9 772.8L376.2 773.4ZM408.4 767.4L408.9 767.8L409.1 768.6L408.3 768.8L407.2 768.2L405.8 767.9L404.8 768.3L405.2 768.7L406 769.2L405 770.2L402.6 772L401.3 772.7L401.1 771.2L401.8 770.2L402.7 769.6L402.2 769L399.2 768.4L399.6 767.7L399.3 766.9L398.4 766.3L396.1 766.1L395.2 765.8L394.8 765.5L395.2 765.2L396.2 765L396.9 764.5L398.2 763L399.5 761.9L399.4 761.4L399.9 761.6L400.8 762.5L401.7 763.8L402.2 765.3L403.3 765.8L405.1 765.2L406.5 765L407.1 765.6L407.6 766.4L408.4 767.4ZM364 773.3L364.3 774.3L365 776.1L364.6 776.6L363.9 776.5L363.2 776.3L362 775.7L361 775.1L360.4 775.2L360.3 776.2L359.6 776.5L358.4 776L356.4 775.5L353.8 774.6V773.5L355.1 772.6L354.7 771.4L353.6 771.1L352.2 771.4L350.4 770.9L348.8 769.9L347.8 768.7L347.4 766.9L347.3 764.9L347.4 762.8L348 760.7L349 759.2L350.5 758.5L351.3 758.3L353.7 758L355.2 758.5L356.7 759.5L358.3 761.4L359.5 764.6L359.9 767.2L360.3 768.4L361.1 769.4L361.5 770.8L364 773.3ZM363.8 761.2L363.1 761.1L362.5 760.5L363 759.5L363.7 758.6L364.6 756.5L366.5 754L369.2 752.5L372 751.8L373.7 752.1L374.3 753.1L374.4 754.2L373.7 754.9L373.8 755.3L375.1 756.1L376.1 757.2L377 758.6L377.2 759.6L376.2 759.7L373.4 758.9L372.2 759.2L371.5 760.2L368 761.8L366.7 763.5L366.3 765.3L365.6 765.8L364.7 764.8V763.1L364.4 761.6L363.8 761.2ZM306.6 681.9L309.2 682.8L309.5 686.3L306.8 688.8L305.3 688.2L306.2 687.2L306.6 686.3L306.3 685.6L302.5 683.6L301.9 683.3L297.9 683.9L296.1 684.8L294.1 685.1L292.5 684.5L291.7 683.5L292.4 682.6L294.6 682.5L297.3 681.5L297.8 680.8L298.3 680.4L298.4 679.7L300.1 679.2L300.7 678.1L300.8 676.9L299.7 675.5L299.3 673.8L300.7 673.1L303.1 673.6L305.5 674.9L307.2 676.6L307 677.6L305.9 677.7L303.8 679.1L303.5 679.9L303.6 680.8L303.8 681.6L304.7 681.9H306.6ZM292.2 651.6L292.4 650.8L291.5 650.5L288 650L287.3 649.3L286.1 649.2L285.5 649L284.9 648.5L284.1 648.1L283.4 647.2L281.9 643.8L282.8 642.5L284.5 641.9L286.1 642.5L287.3 643.3L288.5 642.9L289.8 642.3L290.6 642.7L290.9 643.4H291.6L292.4 643.1L292.8 644.2L291.8 645.2H290.6L290 645.9V646.7L291.5 648.3L292.8 648.8L294.2 648.9L295 650.1L295.4 651.6L296.1 652.5L296.3 653.8L295.8 655.4L295.3 655.8L294.9 655.3L293.4 654.9L292.7 654.1L292.2 653.1V651.6Z" fill="#6F9C76" stroke="white" stroke-width="0.5" stroke-linecap="round" stroke-linejoin="round"/>
<path d="M479.7 613.6L482.6 610.6L482.7 606.6L483.6 602.1L489.3 595.3L490.1 590.8L488.2 589.5L486.8 586.3L487 582.1L485.5 578.1L485.3 576L484.8 574.2L481.3 572.7L481.4 568.5L483.3 564.7L484.5 559.5L486.1 554.4L488.2 550.5L489.9 546.8L490.3 541.6L491.8 537.3L494.9 534.5L497.8 531.4L500.4 525.9L501.7 525.1L503.5 525.3L506.9 524.2L513.6 520.6L514.9 517.1L519.9 511.8L521 515.5L523.7 517.1L525 518.1L526.2 519.1L526.4 520.5L526.9 521.8L528 522.3L529.1 522.7L533.2 523L535 524.5L537.2 526L541.1 526.3L544.9 526.2L548.4 527.4L551 530.2L552.8 533.7L555.8 535.8L556.6 537.4L557 538.8L559.1 540.1L560.9 542.2L560.8 546.2L559.2 549.9L561.3 557.6L569.7 558L573.8 557.4L577.7 558.1L581.4 559.8L584.9 562.4L588.7 563.2L596 559.5L599.7 560.2L603 555.4L606.2 553L607.3 562.2L610.7 566.4L614.9 569.1L619.9 568.6L624.9 567.7L629.4 569L633.6 571.2L638.6 571.4L643.1 567.9L645 567.2L647 566.9L648.8 565.3L650.4 563.3L655.3 561.3L660.5 562.6L664.5 564.4L668.3 563.2L668.9 569.8L665.5 576.6L667.5 580.7L675.9 582L679.4 584.7L685.2 591.4L692.2 595.3L695.3 597.7L696.2 602.3L699.2 605.2L703 606.6L703.6 607.1L703 609.3L702.7 612.3L701.9 613.9L701 615.3L701.8 617.6V618.5L700.3 621.6L698.1 626.2L695.7 629.1L694.4 631.8L694.2 632.3L693.9 631.7L691.2 628.9L688.7 625.8L685.6 623.2L683.2 619.9L682.4 616.2L679.8 614.5L676.3 614.4L673.1 615.7L670.6 617.6L668.6 620L667.2 629.8L665.3 632.7L663.2 635.3L662.1 637.3L661.5 636.7L660.2 638.6L656.1 645.9L654.2 646L654.1 642.6L654.2 639.5L653.3 639.3L652.1 642L651.2 645.9L647.8 645.5L638.9 645.7L638.4 642.6L637.5 641L636.2 645.6L634.9 646.3L631.7 644.9L630.2 642.1L628.6 641.9L626.5 643.5V636.3L626 635.7L624.8 636.1L623.8 637.7V640.2L621.6 638.5L619.9 636.1L618.1 634.6L615.3 635.7L615.9 633.4L614.8 630L615.3 628.8L614 624.4L613.2 624L611.6 625.4L610 628L609.9 629.8L611.6 633.4L612.6 637.8L613.2 639.3L614.3 641.3L616.6 644.4L616.9 645.9L616.3 648.1L617.3 648.3L619 649L620 649.3L618.8 650.1L617.6 650.4H614.8L613.4 650L613 649.2L612.9 648.1L612.5 647L611.2 645.6L610.2 644.9L602.9 642.3L600.9 642.2L596.4 643L595.2 643.6L595.3 644.8L596.8 647L594.3 647.5L589.7 649.9L584.3 651.3L583.6 653.4L583.4 655.7L581.9 657.2V658.3L595.5 651.1L597.7 650.9L598.2 653.9L599 656L599.3 657.9L598.2 660.1L596.5 661.1L593.8 661.5L591.2 661.4L589.4 660.7L588.5 662.3L589.1 663.1L590.4 663.8L591.3 665.2L591.4 666L591.5 667.3L591.3 670.7L590.3 677.5L591.5 678.7L592.7 678.3L593.6 677L594.1 675.3L595.9 677.5L594 680.9L590.6 685.4L587.6 686.3L583.5 686V683.5L586.2 683.4L587.3 683.2L588 682.1L579.5 681.2L577.8 680.5L575.8 677.8L575.6 676.4L577 675.5L580.1 674.3L577 668.1L574.8 670.3L572.5 674.6L569.4 674.8L566.5 671L565 670L562 669.7L560.6 670.5L559.8 672.5L559.6 675.1V677.5L556.8 677L550.5 677.3L548 675.9L547.7 675V672.6L547.5 672L546.9 671.8L545.4 672.1L543.4 671.6L540.2 671.3L539.1 670.7L538.5 669.4L538.6 668.1L538.9 666.9L539.1 665.8L538.9 653.5L539.1 651.5L539.5 650.6L540.2 649.4L540.8 647.8L541 645.8L538.9 648.3L537.1 651.3L535 653.5L531.7 653.8L534.2 659.6L532.5 660.8L528.8 660.7L525.3 662.9L523.9 659L523 657.3L521.5 656.2L521.1 661.5L519.7 665.7L516.8 668.2L513.2 668.6L511.8 668L510.5 667.7L509.4 667.8L508.6 668.6L506.5 666.9L505.1 666.5L504.8 665.8V662.7L503 658.2L494.5 649L493.1 645.9L491.9 642.4L488.9 639.3L485.5 636.8L483.7 633.5L483.1 624.7L481.8 620.5L479 617.2L479.7 613.6ZM541 690L541.7 691.9L541.3 693.5L540.6 695.3L540.2 697.4L540.5 700.8L540.4 702.8L539.6 703.6L538.6 704.2L539.7 707.6L539.2 709.3L537.1 709.7L535.1 708.5L532.9 707.5L530.4 708.7L528.2 709L526.9 705.8L525.3 699.1L523.1 697.9L521.3 699.2L520.1 701.9L519.7 705.4L518.9 706.8L516.9 706.9L514.9 706.2L513.7 705.4L512.8 703.9L512.6 702.7V701.2L512.3 699.1L508.6 686.9L508.1 684L508.4 681.1L510 678.1L511 677.4L512.1 677.2L512.9 676.6L513.5 673L514.3 671.9L516.5 670.2L518.3 669.3L520.4 670L522.1 671.6L523.2 673.7L523 675.8L521.8 677.9L518.8 681.1L519.3 682.2L520 685.1L520.7 686.6L521.9 687.4L524.8 688.4L526.4 691.3L529 690.9L532.4 689.6L535.5 688.9L540.1 689.7L541 690ZM633.1 681.1L632.9 683L632.3 685.1L631.1 686.3L629.3 685.5L630 687.7L631.8 691.5L632.1 694L631.1 694.4L628.7 693.6L626.2 692.3L624.6 691.1L624.2 693.5L623.8 694.7L621.4 697.4L620.7 699.6L622.3 700.8L624.5 701.8L625.6 703L623.5 704.9L613.7 707.9L610.7 708.1L615.4 704.8L613.5 703.9L612.7 702.4L612.8 700.4L613.5 698L609.3 700.2L608.1 699.3L607.5 697.4V695.5L608.4 694.6L611.8 693.9L612.7 692.1L612.8 689.5L613.5 686.6L611.7 685.5L610.3 687.2L605.4 689.4L603.3 691.1L601.7 688.7L599.8 686.6L598.2 684.2L597.8 681.1L598.7 679.2L600.5 677.4L602.5 676.1L604.3 675.3L609.4 674.3H610.7L613 675.3L614.8 676.4L616.6 677.3L619.1 677.5V676.5L616.6 674.8L615.1 672.3L614.5 669.5L614.4 666.9L616.1 667.1L625.6 661.7L624 658.7L624.8 655.6L626.9 654L629.3 654.9L629.9 656.3V657.9L629 664L629.1 665L629.7 666.9L630.5 668.5L631.1 670.1V672.3L630.6 674.2L628.4 679.9L631.2 678.9L632.5 678L632.9 678.3L633.1 681.1ZM541.4 685L542 685.5L542.7 686.6L541.3 687L535.2 685.3L531.8 686.4L529.9 686.2L527.8 685L526.6 682.6L527.6 680.1L529.4 677.7L530.6 675.4L531.8 673.8L534 673.2L534.7 675.1L533.7 677.7L533.3 679.5L533.4 681.1L534.1 681.6L534.9 679.8L536.5 677.2L537.8 677L538.2 678.2L538.9 678.8L539.6 679.2L539.9 681.2L540.6 683.9L541.4 685ZM645.8 655.8L645.2 659.2L644.3 660.4L643.6 660.7L643.3 660L642.7 657.1L641.6 656L641.3 655.1L641.4 654L641 652.6L640.2 651.3L640.6 650.1L642.1 649.3L643.6 649.1L645 649.5L645.9 651.6L645.8 655.8ZM571.5 718.9L571.9 719.3L571.7 720.2L570.4 721.8L569.8 722.2L568.9 722.3L567.6 722L566.6 722.2L565.1 722.9L564.4 723.6L563.6 723.7L563.5 723.1L563.9 722.1L563.8 721.2L563.2 720.6L562.7 720.5L562.1 720.1L562.2 719.2L562.5 718.5L562.6 717.6L563.1 717.1L564 716.8L568.3 719.1V720.1L569 720.2L571.5 718.9ZM583.9 689.2L585.2 688.6L587.3 688.1L589.6 688L591 689.3L591.3 691.4L590.6 692.7L591.1 693.5L590.5 694.5L589.1 693.9L588.6 694.3V694.7L589.7 694.9L590.9 695.8L590.3 696.8L588.9 698.5L586.7 698.6L585.7 697.3L585.2 696H584L584.3 694.9L583.9 693.8L582.2 693.6L581.6 693.1L582.9 692L583.1 690.8L581.8 689.7L579.3 688.9L577.8 689.4L576.9 689.3L576.6 688.2L577.7 687L579.3 686.6L581.4 687.5L583 688.7L583.9 689.2ZM564.1 686.5L566.1 688.8L566.9 690.1L566.3 691H564.9L564.2 691.3L564.3 692.5L563.9 693L562.6 692.6L561.8 692.2L560.3 691.2L559.5 689.9L559.6 689L560.6 687.5L562.4 686.1L564.1 686.5Z" fill="#6F9C76" stroke="white" stroke-width="0.5" stroke-linecap="round" stroke-linejoin="round"/>
<path d="M662.1 637.3L663.2 635.3L665.3 632.7L667.2 629.8L668.6 620L670.6 617.6L673.1 615.7L676.3 614.4L679.8 614.5L682.4 616.2L683.2 619.9L685.6 623.2L688.7 625.8L691.2 628.9L693.9 631.7L694.2 632.3L693.5 633.7L691.4 633.6H689.9L687.9 633.9L686.5 633.8L685.1 634.4L683.4 634.6L683.3 637L684.4 638.6L684.6 640.5L683.9 642.7L680.8 644.1L678.4 642L676.9 640.8L675.8 639.4L672.2 643.2L670.6 646.3L670.1 649.5L669 650.3L668.4 648.6L666.7 646.9L666.9 648.4L667.2 651.8H666.2L665.7 650.7L665.1 650.4L663.7 651.4L662.4 652.2L661.5 651.1L660.4 647.3L660.9 644L661.9 639.7L662.1 637.3Z" fill="#6F9C76" stroke="white" stroke-width="0.5" stroke-linecap="round" stroke-linejoin="round"/>
<path d="M703.6 607.1L703 606.6L699.2 605.2L696.2 602.3L695.3 597.7L692.2 595.3L685.2 591.4L679.4 584.7L675.9 582L667.5 580.7L665.5 576.6L668.9 569.8L668.3 563.2L671.6 560.5L675 558.5L677.1 558.4L678 556.8L676.7 554.6L675.9 552.3L680.5 548.8L686.2 546.8L690.9 546L695.5 547L700.3 549.1L701.6 551.1V553.6L702 555.8L703.6 557L705.9 557.6L718.5 555.4L729.3 558H729.4L729.6 558.2L730.5 559.8L730 563.4L729.7 567.7L728.8 574.2L727.4 576.9L725.2 580L723.1 581.1L722.2 578.1L721.4 574.3L719.7 571.4L717.8 571L716.7 574.2L718.5 574.6L719.6 576L720.2 578.1L720.3 580.5L719.7 582.7L718.3 583.2L716.7 583.4L715.6 584.4L715.8 585.6L716 588.7L716.6 591.9L715.3 594L714.2 596L715.3 597.6L716.2 598.5L716 600.8L713.2 601.7L710.6 603.3L706.8 607L703.6 606.9V607.1Z" fill="#6F9C76" stroke="white" stroke-width="0.5" stroke-linecap="round" stroke-linejoin="round"/>
<path d="M619.7 320.4L623.2 322.3L626.6 323.7L630.6 324.6L634.1 324.9L634.9 321.3L635.3 317.4L634.4 313.2L636.9 310.2L640.6 308.4L644.3 308.7L646.2 312.1L648.8 312.7L651.1 313.9L650.8 316.8L651.1 319.8L655.2 318.2L659 315.2L660.7 315.9L661.8 317.4L663.3 317.6L665.1 316.9L670.4 317.8L675.4 320.1L679 319.2L682.6 317.2L687.3 318.3L691.5 320.9L692.8 324.8L689.6 327.2L685.7 325.6L683.1 326.6L680.8 328.3L679.8 332.5L680.4 338L683.2 342.2L687.7 344.4L688.7 348L690 351.1L693.1 352.4L696 354.1L705.9 354.8L705.4 358.7L706.5 359.8L707.6 361L706.2 365.3L704.3 369.8L704.7 374.5L705.9 378.7L706.3 382.5L704.8 386.5L714.2 390L718.6 388L723.1 389.1H724.4L724.5 389.4L725.2 396.1L727 403L727.8 410L726.9 424.3L726.1 427.4L721.9 432.5L720.3 435.4L719.6 438.7L719 459L719.4 461.8L720.3 463.3L721.2 463.9L721.9 464.8L722.7 470.5L723.7 474.8L724.8 475.6L725.5 476.6L725 479.2L723.9 480.7L722.5 481.3L721.2 481.8L718.9 483.6L718.8 485.9L721.6 488.6L723.7 490.9L725.9 493.5L728.6 494L732.1 491.3L740.7 481.8L742.4 479.1L744.6 480.8L745.1 483.7L746.1 486.7L746.8 490.1L744.6 493.4L739.8 503.1L739.4 507.5L737.9 518.9L734.4 528.9L734.6 535.1L731 545.9L728.4 551.1L727.2 553.7L728.3 556.7L729.4 558H729.3L718.5 555.4L705.9 557.6L703.6 557L702 555.8L701.6 553.6V551.1L700.3 549.1L695.5 547L690.9 546L686.2 546.8L680.5 548.8L675.9 552.3L676.7 554.6L678 556.8L677.1 558.4L675 558.5L671.6 560.5L668.3 563.2L664.5 564.4L660.5 562.6L655.3 561.3L650.4 563.3L648.8 565.3L647 566.9L645 567.2L643.1 567.9L638.6 571.4L633.6 571.2L629.4 569L624.9 567.7L619.9 568.6L614.9 569.1L610.7 566.4L607.3 562.2L606.2 553L603 555.4L599.7 560.2L596 559.5L588.7 563.2L584.9 562.4L581.4 559.8L577.7 558.1L573.8 557.4L569.7 558L561.3 557.6L559.2 549.9L560.8 546.2L560.9 542.2L559.1 540.1L557 538.8L556.6 537.4L555.8 535.8L552.8 533.7L551 530.2L548.4 527.4L544.9 526.2L541.1 526.3L537.2 526L535 524.5L533.2 523L529.1 522.7L528 522.3L526.9 521.8L526.4 520.5L526.2 519.1L525 518.1L523.7 517.1L521 515.5L519.9 511.8L520.5 501.1L515 491.7L518.3 490L521.7 488.9L523.8 484.8L524.9 480.5L526 478.6L527.3 477L527.6 474.3L527.5 472L526.8 467.5L530.1 464.6L533.3 465.2L536.2 465.4L534.6 456.7L531.6 454.4L524.7 456.1L522 454.8L518.2 451.6L514.9 450.5L509.5 451.8L508.6 443.8L511.6 441.2L513.6 437.4L512.1 434.7L511.2 431.8L512 427.7L512.6 418.6L513.9 414.7L516.4 412.3L509.8 402.6L504.5 401.7L502.9 397.9L504.9 397L506.9 396.6L508.9 394.5L511.9 390.4L512.7 388.7L512.6 387.1L513 385.1L517.2 382.2L521.9 380L524.9 375.6L530 377.8L539.6 379.3L537.7 375.5L535.1 372.2L536 368.7L537.7 365L539.3 362.2L541.5 363.7L544.2 363.4L546.4 360.4L548.7 359L550.9 360.4L555.1 361.8L559 362.1L560 359.4L560.6 356.7L562.1 354.5L563.8 352.7L565.6 354.7L567.8 356.3L571 359.1L573.1 363.2L577.9 364.8L589.2 360L591.2 353.4L589.4 351.7L588.5 350L590.2 346.9L591.6 343.7L594.6 339.4L598.8 336.4L600 334.3L601.7 332.9L604.5 332L606.7 329.8L610.2 326.9L613.3 323.6L614.6 322.8L616.2 323.4L618.1 322.3L619.7 320.4ZM632.1 518.2L634.2 516L634.9 513.4L634.8 510.5L634.6 507.9L633.1 506.6L632 505V500.8L632.6 499.6L632.7 498.3L631 495.3L625.5 491.3L618.4 491.8L609.8 493L603.4 498.3L604.2 505.9L601.9 508.4L600.4 511.7L601.7 511.9L602.9 512.4L602.7 514.1L602.1 515.6L599.9 516H597.9L596 518.6L596.8 521.7L598.9 522.5L600.9 524.5L602.5 527.6L604.9 529.5L606.6 530.6L607.8 531.7L608.9 530.8L610.8 527.4L612.7 525.9L617.1 526.3L624.9 528.3L628 526.5L628.4 524.9V523.9L629.7 520.5L629.8 519.1V518L631.1 517.9L632.1 518.2ZM925.2 231.2L927.5 233L927.4 237.3L925.9 242.2L924.3 245.4L921.7 246.7L918.3 246L914.9 244L912.7 241.3L912 237.8L913.1 235.2L915.6 233.6L920.4 232.8L923.6 231.6L925.2 231.2Z" fill="#6F9C76" stroke="white" stroke-width="0.5" stroke-linecap="round" stroke-linejoin="round"/>
<path d="M388.7 909L389.7 911.1L389.1 911.9L387.8 912.3L386.8 913.4L386.9 914.3L387.8 915.8V916.7L387.3 917.6L386.1 919.1L385.9 919.6L383.5 922.4L378.8 926.1L377.4 929.2L375.4 932.7L375.3 934.2L374.4 936.3L371 936.7L369.7 937.4L366.2 937L361 941.2L347.3 943.7L342.7 947.6L337.1 948.8L331.1 948.2L324.2 949.5L318.5 947.8L305.6 948L301.6 949.8L299.2 954.1L297 954.5L294.8 953.5L291.8 948.5L287.6 947.1L283.7 942.9L282.3 937.8L284.7 931.2L287 927.1L288.4 925.7L293.1 922.9L297.1 915.9L300.8 914.9L302.5 911.2L308.9 909L322.7 905.1L326.2 902.1L339.4 900.7L348.4 896.8L350.5 897.4L361.5 895.6L367.8 895.1L372 895.8L373.7 898.2L375.7 899.8L382.2 902.4L384.2 904.4L385.5 909.3L386.8 911.2L387.5 910.4L388.3 909.7L388.7 909Z" fill="#6F9C76" stroke="white" stroke-width="0.5" stroke-linecap="round" stroke-linejoin="round"/>
<path d="M411.7 230.4H415.4L418.6 229.2H421.4L422.4 231.7L422 234.2L420.1 235.2L418.1 236.6V239.6L419.2 240.9L416.9 244L415.6 246.3L412.1 248.4L408.2 249.3L404.2 251.3L402.7 247.7L399.3 248.5L395.9 249.5L393.5 250.9L391.1 251.3L385.3 251.1L381.3 245.9L377.3 244.7L374.6 242.9L373.9 238L371.2 234.2L368 230.2L370.1 225.9L373.9 226.1L378.2 228.8L381.4 227.7L384.3 225.9L384.5 223L385.3 220.3L391.4 219.7L394.5 215.7L396.4 211.6L399.1 208.7L403.4 207.7L408.2 208.1L410.6 212.1L411.5 217.6L412.9 221.4L413 225.6L411.7 230.4Z" fill="#6F9C76" stroke="white" stroke-width="0.5" stroke-linecap="round" stroke-linejoin="round"/>
<path d="M461.4 430L460.7 433.9L458.9 436.8L457 444.1L453.4 446.9L451.5 447.6L445.6 452L438.9 453.7L436.1 444.6L435.4 432.4L432.9 427.6L425.7 416.2L431.9 414.5L440.7 412.1L443.8 412.4L443.5 413.6L444 414.9L444.9 415.9L446.1 416.5L446.9 418.4L446.4 421.3L450.5 422.5L454.8 421.5L456.4 419.2L458.3 419.7L458.1 421.6L459.7 422.5L460 425.5L461.4 430Z" fill="#6F9C76" stroke="white" stroke-width="0.5" stroke-linecap="round" stroke-linejoin="round"/>
<path d="M425.7 416.2L416.4 418.7L404.1 416.3L405.3 412.8L407.4 410.8L407 385.2L410.1 376.5L429.4 384.2L426.8 389.9L427 392.8L425.3 397.6L424.7 402.8L434.7 400.8L445 401.5L444.9 403.3L444.2 404.9L443.9 406.2L444.4 407.2L444.5 408.1L444.6 409L444.4 410.7L443.8 412.4L440.7 412.1L431.9 414.5L425.7 416.2Z" fill="#6F9C76" stroke="white" stroke-width="0.5" stroke-linecap="round" stroke-linejoin="round"/>
<path d="M478.3 301.9L492.6 298L507 296L505.9 304.2L510 303.2L514.1 303.5L515.3 304.2L516.4 304.8L517.5 303.9L518.4 302.8L521.2 300.9L520.4 292.6L523 289.5L529.9 287.1L535 292.6V296.2L536.7 298.6L541.2 297.5L545.7 295L548.4 292.9L551.7 293.6L554.3 292.2L557.5 289.8L565 292.5L572.8 293.7L575.2 294.4L573.6 298L569.7 300.8L567.4 304.4L568.9 306.1L570.8 307.1L572 307.2L573.3 306.6L577.4 305.2L583.8 304.5L585.2 305.9L584.9 308.4L587.6 311.2L588.6 313.4L591.1 313.2L594 312.7L597.3 311.7L600.5 311.6L603.7 314.1L607.3 316.4L610.8 317.1L614.3 317.5L617 318.7L619.7 320.4L618.1 322.3L616.2 323.4L614.6 322.8L613.3 323.6L610.2 326.9L606.7 329.8L604.5 332L601.7 332.9L600 334.3L598.8 336.4L594.6 339.4L591.6 343.7L590.2 346.9L588.5 350L589.4 351.7L591.2 353.4L589.2 360L577.9 364.8L573.1 363.2L571 359.1L567.8 356.3L565.6 354.7L563.8 352.7L562.1 354.5L560.6 356.7L560 359.4L559 362.1L555.1 361.8L550.9 360.4L548.7 359L546.4 360.4L544.2 363.4L541.5 363.7L539.3 362.2L537.7 365L536 368.7L535.1 372.2L537.7 375.5L539.6 379.3L530 377.8L524.9 375.6L521.9 380L517.2 382.2L513 385.1L512.6 387.1L512.7 388.7L511.9 390.4L508.9 394.5L506.9 396.6L504.9 397L502.9 397.9L504.5 401.7L509.8 402.6L516.4 412.3L513.9 414.7L512.6 418.6L512 427.7L511.2 431.8L512.1 434.7L513.6 437.4L511.6 441.2L508.6 443.8L509.5 451.8L514.9 450.5L518.2 451.6L522 454.8L524.7 456.1L531.6 454.4L534.6 456.7L536.2 465.4L533.3 465.2L530.1 464.6L526.8 467.5L527.5 472L527.6 474.3L527.3 477L526 478.6L524.9 480.5L523.8 484.8L521.7 488.9L518.3 490L515 491.7L513.2 493.5L511.5 495.1L509.5 494L507.5 492.1L502.5 494.4L498.2 497L496 496.4L494.7 494.8L488.7 492.8L486.6 490.4L484.3 489.1L483.5 490.3L482.4 490.5L481.1 489.3L479.9 487.9L476.8 483.1L474.1 478.2L472.9 472.5L473.1 466.7L471.7 461.7L467.5 459.1L463.5 457.8L459.1 458.7L458.8 453.9L459 449.3L460.6 442.8L463.7 437.3L464.9 434.4L466.3 431.9L468.5 430.3L469.1 427.3L467.3 426.8L465.4 425.9L463.2 427.6L461.4 430L460 425.5L459.7 422.5L458.1 421.6L458.3 419.7L456.4 419.2L454.8 421.5L450.5 422.5L446.4 421.3L446.9 418.4L446.1 416.5L444.9 415.9L444 414.9L443.5 413.6L443.8 412.4L444.4 410.7L444.6 409L444.5 408.1L444.4 407.2L443.9 406.2L444.2 404.9L444.9 403.3L445 401.5L434.7 400.8L424.7 402.8L425.3 397.6L427 392.8L426.8 389.9L429.4 384.2L433.2 378.7L436 373.8L437.2 372.5L438.5 372.7L439.7 372.4L440.4 371.1L440.6 369.6L441 367.8L441.7 366L442 364.1L441.7 362.2L440.8 360.5L439.7 359.4L439.8 356L438 354.7L435.7 350L433.9 349L432.3 347.3L431.2 344.8L437.3 343L443.1 340.2L447.6 338.7L448.8 333.7L451 331.3L454.5 329.8L456.1 327.7L457.3 324.8L459.4 322.6L462 323.2L462.8 324.2L466.2 321.8L472.7 309.7L473.3 308.3L474.1 307L475.2 306.1L476.2 305.4L477.3 303.7L478.3 301.9Z" fill="#6F9C76" stroke="white" stroke-width="0.5" stroke-linecap="round" stroke-linejoin="round"/>
<path d="M394 619.8L396.8 627.4L391.4 634.6L383.1 633.2L375.7 628.8L372 620.6L374.9 617.9L379.8 619.1L383.3 618.3L387 617.2L394 619.8Z" fill="#6F9C76" stroke="white" stroke-width="0.5" stroke-linecap="round" stroke-linejoin="round"/>
<path d="M632.1 518.2L631.1 517.9L629.8 518V519.1L629.7 520.5L628.4 523.9V524.9L628 526.5L624.9 528.3L617.1 526.3L612.7 525.9L610.8 527.4L608.9 530.8L607.8 531.7L606.6 530.6L604.9 529.5L602.5 527.6L600.9 524.5L598.9 522.5L596.8 521.7L596 518.6L597.9 516H599.9L602.1 515.6L602.7 514.1L602.9 512.4L601.7 511.9L600.4 511.7L601.9 508.4L604.2 505.9L603.4 498.3L609.8 493L618.4 491.8L625.5 491.3L631 495.3L632.7 498.3L632.6 499.6L632 500.8V505L633.1 506.6L634.6 507.9L634.8 510.5L634.9 513.4L634.2 516L632.1 518.2Z" fill="#6F9C76" stroke="white" stroke-width="0.5" stroke-linecap="round" stroke-linejoin="round"/>
</svg>
